<svg width="50" height="50" viewBox="0 0 50 50" fill="none" xmlns="http://www.w3.org/2000/svg">
<path fill-rule="evenodd" clip-rule="evenodd" d="M24.8735 6C13.8934 6 5 14.8934 5 25.8735C5 34.6676 10.6888 42.0953 18.5885 44.7285C19.5822 44.9024 19.9548 44.3062 19.9548 43.7845C19.9548 43.3126 19.93 41.7475 19.93 40.0831C14.9368 41.0023 13.645 38.8658 13.2475 37.748C13.0239 37.1766 12.0551 35.4128 11.2105 34.9408C10.5149 34.5682 9.52123 33.649 11.1856 33.6242C12.7507 33.5994 13.8686 35.065 14.2412 35.6612C16.0298 38.6671 18.8866 37.8225 20.0294 37.3008C20.2032 36.009 20.7249 35.1396 21.2963 34.6427C16.8744 34.1459 12.2538 32.4318 12.2538 24.8302C12.2538 22.6689 13.0239 20.8803 14.2909 19.4892C14.0921 18.9923 13.3966 16.9553 14.4896 14.2227C14.4896 14.2227 16.154 13.701 19.9548 16.2597C21.5447 15.8126 23.234 15.589 24.9232 15.589C26.6125 15.589 28.3017 15.8126 29.8916 16.2597C33.6924 13.6762 35.3568 14.2227 35.3568 14.2227C36.4499 16.9553 35.7543 18.9923 35.5556 19.4892C36.8225 20.8803 37.5926 22.6441 37.5926 24.8302C37.5926 32.4566 32.9472 34.1459 28.5253 34.6427C29.2457 35.2638 29.8668 36.4562 29.8668 38.3193C29.8668 40.9774 29.8419 43.1138 29.8419 43.7845C29.8419 44.3062 30.2145 44.9273 31.2082 44.7285C35.1534 43.3966 38.5816 40.861 41.0103 37.4786C43.439 34.0963 44.7459 30.0375 44.7471 25.8735C44.7471 14.8934 35.8537 6 24.8735 6Z" fill="black"/>
</svg>
