<svg width="50" height="50" viewBox="0 0 50 50" fill="none" xmlns="http://www.w3.org/2000/svg">
<path d="M25 10C16.7307 10 10 16.7307 10 25C10 33.2693 16.7307 40 25 40C33.2693 40 40 33.2693 40 25C40 16.7307 33.2693 10 25 10ZM25 35.7143C19.0921 35.7143 14.2857 30.9079 14.2857 25C14.2857 19.0921 19.0921 14.2857 25 14.2857C30.9079 14.2857 35.7143 19.0921 35.7143 25C35.7143 30.9079 30.9079 35.7143 25 35.7143Z" fill="black"/>
<path d="M25 18.75C21.6104 18.75 18.75 21.6104 18.75 25C18.75 28.3896 21.6104 31.25 25 31.25C28.3896 31.25 31.25 28.3896 31.25 25C31.25 21.6104 28.3896 18.75 25 18.75Z" fill="black"/>
</svg>
