<svg width="50" height="50" viewBox="0 0 50 50" fill="none" xmlns="http://www.w3.org/2000/svg">
<path d="M9 25.0001C9 25.3537 9.14047 25.6929 9.39052 25.9429C9.64057 26.193 9.97971 26.3334 10.3333 26.3334H39.6667C40.0203 26.3334 40.3594 26.193 40.6095 25.9429C40.8595 25.6929 41 25.3537 41 25.0001C41 24.6465 40.8595 24.3073 40.6095 24.0573C40.3594 23.8072 40.0203 23.6668 39.6667 23.6668H10.3333C9.97971 23.6668 9.64057 23.8072 9.39052 24.0573C9.14047 24.3073 9 24.6465 9 25.0001ZM29.3905 12.6095L26.3333 9.55235V19.6667C26.3333 20.0204 26.1929 20.3595 25.9428 20.6095C25.6928 20.8596 25.3536 21.0001 25 21.0001C24.6464 21.0001 24.3072 20.8596 24.0572 20.6095C23.8071 20.3595 23.6667 20.0204 23.6667 19.6667V9.55235L20.6095 12.6095C20.3594 12.8596 20.0203 13.0001 19.6667 13.0001C19.313 13.0001 18.9739 12.8596 18.7238 12.6095C18.4738 12.3595 18.3333 12.0203 18.3333 11.6667C18.3333 11.3131 18.4738 10.9739 18.7238 10.7239L24.0572 5.3905C24.066 5.38167 24.0757 5.374 24.0848 5.3655C24.1073 5.34377 24.1305 5.32281 24.1543 5.30267C24.1717 5.28833 24.19 5.276 24.208 5.26267C24.225 5.25 24.2415 5.23667 24.2593 5.22483C24.279 5.21167 24.2993 5.20017 24.3197 5.18817C24.3368 5.17783 24.3537 5.167 24.3713 5.15767C24.3913 5.147 24.4113 5.13817 24.4315 5.12867C24.451 5.1195 24.4702 5.10967 24.49 5.1015C24.5088 5.09367 24.528 5.0875 24.547 5.08067C24.5692 5.07267 24.591 5.06417 24.6137 5.05733C24.6318 5.05183 24.6503 5.04783 24.6687 5.04317C24.6925 5.03717 24.716 5.0305 24.7402 5.02567C24.7603 5.02167 24.7808 5.0195 24.8013 5.0165C24.8238 5.01317 24.8463 5.00883 24.8693 5.0065C24.903 5.00358 24.9367 5.00191 24.9705 5.0015C24.9805 5.00133 24.99 5 25 5C25.01 5 25.0197 5.00133 25.0295 5.0015C25.0633 5.00191 25.097 5.00358 25.1307 5.0065C25.1537 5.00883 25.1762 5.01317 25.1987 5.0165C25.2192 5.0195 25.2397 5.02167 25.2598 5.02567C25.284 5.03067 25.3075 5.03717 25.3312 5.04317C25.3495 5.04783 25.3682 5.05183 25.3863 5.05733C25.409 5.06417 25.4308 5.07267 25.453 5.08067C25.472 5.08733 25.4913 5.09367 25.51 5.1015C25.53 5.10983 25.549 5.1195 25.5683 5.12867C25.5885 5.13817 25.6088 5.147 25.6285 5.15767C25.6463 5.167 25.663 5.17783 25.6803 5.18817C25.7007 5.20017 25.721 5.21167 25.7407 5.22483C25.7585 5.23667 25.775 5.24983 25.792 5.26267C25.81 5.276 25.8283 5.28833 25.8457 5.30267C25.8698 5.32267 25.8925 5.344 25.9152 5.3655C25.9243 5.374 25.934 5.38167 25.9428 5.3905L31.2762 10.7239C31.5262 10.9739 31.6667 11.3131 31.6667 11.6667C31.6667 12.0203 31.5262 12.3595 31.2762 12.6095C31.0261 12.8596 30.687 13.0001 30.3333 13.0001C29.9797 13.0001 29.6406 12.8596 29.3905 12.6095ZM20.6095 37.3907L23.6667 40.4478V30.3335C23.6667 29.9798 23.8071 29.6407 24.0572 29.3906C24.3072 29.1406 24.6464 29.0001 25 29.0001C25.3536 29.0001 25.6928 29.1406 25.9428 29.3906C26.1929 29.6407 26.3333 29.9798 26.3333 30.3335V40.4478L29.3905 37.3907C29.6406 37.1406 29.9797 37.0001 30.3333 37.0001C30.687 37.0001 31.0261 37.1406 31.2762 37.3907C31.5262 37.6407 31.6667 37.9799 31.6667 38.3335C31.6667 38.6871 31.5262 39.0263 31.2762 39.2763L25.9428 44.6097C25.9338 44.6187 25.9238 44.6264 25.9147 44.6352C25.8922 44.6564 25.8697 44.6779 25.8457 44.6975C25.828 44.712 25.8093 44.7249 25.791 44.7384C25.7743 44.7507 25.7582 44.7637 25.741 44.7752C25.7205 44.7889 25.6995 44.8007 25.6787 44.813C25.662 44.8229 25.6458 44.8334 25.6288 44.8424C25.6082 44.8535 25.587 44.8629 25.5658 44.8729C25.5475 44.8815 25.5293 44.8907 25.5105 44.8985C25.4903 44.9069 25.4697 44.9135 25.4492 44.9209C25.4287 44.9284 25.4083 44.9362 25.3872 44.9425C25.367 44.9487 25.3463 44.9534 25.3258 44.9584C25.3042 44.9639 25.2827 44.97 25.2607 44.9744C25.2372 44.979 25.2133 44.9817 25.1898 44.9852C25.1703 44.9879 25.1513 44.9915 25.1315 44.9935C25.044 45.0022 24.9558 45.0022 24.8683 44.9935C24.8487 44.9915 24.8297 44.9879 24.8102 44.9852C24.7867 44.9819 24.7628 44.979 24.7395 44.9744C24.7173 44.97 24.6958 44.9639 24.6742 44.9584C24.6537 44.9534 24.633 44.9487 24.6128 44.9427C24.5917 44.9362 24.5713 44.9284 24.5508 44.921C24.5303 44.9135 24.5097 44.9069 24.4895 44.8985C24.4707 44.8907 24.4525 44.8815 24.4342 44.8729C24.413 44.8629 24.3918 44.8535 24.3712 44.8424C24.3542 44.8334 24.3378 44.8229 24.3213 44.813C24.3005 44.8007 24.2795 44.7889 24.2592 44.7752C24.2418 44.7637 24.2258 44.7507 24.209 44.7385C24.1907 44.7249 24.172 44.712 24.1543 44.6975C24.1303 44.6779 24.1078 44.6564 24.0853 44.6352C24.0762 44.6265 24.0662 44.6187 24.057 44.6097L18.7237 39.2763C18.4736 39.0263 18.3331 38.6871 18.3332 38.3334C18.3332 37.9798 18.4737 37.6406 18.7237 37.3906C18.9738 37.1405 19.313 37 19.6666 37.0001C20.0203 37.0001 20.3594 37.1406 20.6095 37.3907Z" fill="black"/>
</svg>
