<svg width="50" height="50" viewBox="0 0 50 50" fill="none" xmlns="http://www.w3.org/2000/svg">
<path d="M10 43.4615C10 43.8696 10.158 44.2609 10.4393 44.5494C10.7206 44.8379 11.1022 45 11.5 45C16.6699 44.994 21.6264 42.8849 25.2821 39.1355C28.9378 35.3861 30.9941 30.3025 31 25V10.2527L37.4393 16.8571C37.7206 17.1456 38.1021 17.3077 38.5 17.3077C38.8978 17.3077 39.2793 17.1456 39.5606 16.8571C39.842 16.5686 40 16.1773 40 15.7692C40 15.5672 39.9612 15.3671 39.8858 15.1805C39.8104 14.9938 39.6999 14.8242 39.5606 14.6813L30.5607 5.45058C30.5507 5.44038 30.5398 5.43154 30.5295 5.42173C30.504 5.39692 30.4785 5.37212 30.4513 5.34923C30.4318 5.33269 30.4112 5.31846 30.3912 5.30308C30.3718 5.28827 30.3531 5.27308 30.3332 5.25942C30.3111 5.24423 30.2882 5.23096 30.2653 5.21712C30.246 5.20519 30.2271 5.19269 30.2072 5.18173C30.1849 5.16962 30.1622 5.15942 30.1395 5.14846C30.1176 5.13769 30.096 5.12654 30.0737 5.11712C30.0525 5.10808 30.031 5.10096 30.0096 5.09308C29.9847 5.08385 29.9601 5.07404 29.9346 5.06615C29.9142 5.05981 29.8933 5.05519 29.8727 5.04981C29.8459 5.04288 29.8195 5.03519 29.7921 5.02962C29.7696 5.025 29.7465 5.0225 29.7237 5.01904C29.6982 5.015 29.673 5.01019 29.647 5.0075C29.6091 5.00365 29.5712 5.0025 29.5332 5.00173C29.5219 5.00154 29.5112 5 29.5 5C29.4887 5 29.478 5.00154 29.4668 5.00173C29.4287 5.0025 29.3909 5.00365 29.353 5.0075C29.3271 5.01019 29.3018 5.01519 29.2763 5.01904C29.2534 5.0225 29.2305 5.025 29.2077 5.02962C29.1805 5.03538 29.154 5.04288 29.1274 5.04981C29.1068 5.05519 29.0858 5.05981 29.0652 5.06615C29.0399 5.07404 29.0153 5.08385 28.9904 5.09308C28.969 5.10077 28.9474 5.10808 28.9262 5.11712C28.9037 5.12673 28.8824 5.13788 28.8606 5.14846C28.8379 5.15942 28.815 5.16962 28.7929 5.18192C28.7729 5.19269 28.7539 5.20519 28.7346 5.21712C28.7117 5.23096 28.6889 5.24423 28.6667 5.25942C28.6467 5.27308 28.6281 5.28827 28.609 5.30308C28.5887 5.31846 28.5681 5.33269 28.5486 5.34923C28.5214 5.37231 28.4959 5.39692 28.4704 5.42173C28.4601 5.43154 28.4492 5.44038 28.4393 5.45058L19.4393 14.6813C19.158 14.9699 19 15.3612 19 15.7692C19 16.1773 19.158 16.5686 19.4393 16.8571C19.7206 17.1456 20.1022 17.3077 20.5 17.3077C20.8978 17.3077 21.2794 17.1456 21.5607 16.8571L28 10.2527V25C27.995 29.4867 26.255 33.7882 23.1618 36.9608C20.0685 40.1334 15.8745 41.918 11.5 41.9231C11.1022 41.9231 10.7206 42.0852 10.4393 42.3737C10.158 42.6622 10 43.0535 10 43.4615Z" fill="black"/>
</svg>
