<svg width="50" height="50" viewBox="0 0 50 50" fill="none" xmlns="http://www.w3.org/2000/svg">
<path d="M42 9.54642V18.8182C42 19.2281 41.8372 19.6212 41.5473 19.911C41.2575 20.2008 40.8644 20.3636 40.4545 20.3636C40.0447 20.3636 39.6516 20.2008 39.3617 19.911C39.0719 19.6212 38.9091 19.2281 38.9091 18.8182V13.2766L30.7292 21.4565C30.5857 21.6 30.4153 21.7138 30.2278 21.7915C30.0403 21.8692 29.8393 21.9091 29.6364 21.9091C29.4334 21.9091 29.2324 21.8692 29.0449 21.7915C28.8574 21.7138 28.687 21.6 28.5435 21.4565C28.4 21.313 28.2862 21.1426 28.2085 20.9551C28.1308 20.7676 28.0909 20.5666 28.0909 20.3636C28.0909 20.1607 28.1308 19.9597 28.2085 19.7722C28.2862 19.5847 28.4 19.4143 28.5435 19.2708L36.7234 11.0909H31.1818C30.7719 11.0909 30.3788 10.9281 30.089 10.6383C29.7992 10.3484 29.6364 9.95533 29.6364 9.54545C29.6364 9.13557 29.7992 8.74248 30.089 8.45265C30.3788 8.16282 30.7719 8 31.1818 8H40.4545C40.4603 8 40.4659 8.00077 40.4715 8.00077C40.5168 8.00135 40.5618 8.00328 40.6066 8.00773C40.6315 8.01005 40.6556 8.01468 40.68 8.01835C40.7055 8.02202 40.731 8.02492 40.7561 8.02994C40.7831 8.03535 40.8096 8.04269 40.8363 8.04926C40.8583 8.05506 40.8807 8.05989 40.9027 8.06665C40.9286 8.07438 40.9537 8.08403 40.979 8.09311C41.0012 8.10123 41.0235 8.10857 41.0457 8.11765C41.0689 8.12731 41.0913 8.1387 41.1141 8.14933C41.1372 8.16034 41.1604 8.17058 41.1828 8.18256C41.2043 8.19415 41.2248 8.20709 41.2456 8.21965C41.268 8.23317 41.2908 8.24573 41.3127 8.26022C41.3353 8.27548 41.3565 8.29228 41.3783 8.30851C41.3969 8.32242 41.4162 8.33556 41.4344 8.35043C41.4703 8.37999 41.5047 8.41128 41.5377 8.44393C41.5408 8.44702 41.5443 8.44973 41.5474 8.45262C41.5512 8.45649 41.5547 8.46093 41.5586 8.46499C41.5901 8.49725 41.6208 8.53067 41.6494 8.56544C41.6654 8.58495 41.6793 8.60543 41.6942 8.62533C41.7095 8.64581 41.7251 8.6659 41.7394 8.68695C41.755 8.71014 41.7686 8.73448 41.7829 8.75843C41.7945 8.77775 41.8064 8.79649 41.8171 8.81639C41.8302 8.84073 41.8412 8.86565 41.8528 8.89057C41.8626 8.91163 41.8733 8.9321 41.8822 8.95355C41.8918 8.97769 41.9001 9.00223 41.9088 9.02657C41.9171 9.04975 41.9262 9.07255 41.9332 9.09611C41.9407 9.12084 41.9463 9.14595 41.9525 9.17107C41.9583 9.19502 41.965 9.21859 41.9699 9.24293C41.9757 9.2721 41.9793 9.30147 41.9834 9.33083C41.9863 9.3515 41.9901 9.37159 41.9923 9.39245C41.9974 9.44371 42 9.49503 42 9.54642ZM19.2708 28.5435L11.0909 36.7234V31.1818C11.0909 30.7719 10.9281 30.3788 10.6383 30.089C10.3484 29.7992 9.95533 29.6364 9.54545 29.6364C9.13557 29.6364 8.74248 29.7992 8.45265 30.089C8.16282 30.3788 8 30.7719 8 31.1818V40.4536C8 40.505 8.00258 40.5563 8.00773 40.6075C8.00966 40.6284 8.01372 40.6485 8.01661 40.6692C8.02067 40.6985 8.02434 40.7279 8.03014 40.7571C8.03497 40.7814 8.04173 40.805 8.04752 40.8289C8.0537 40.854 8.05931 40.8792 8.06684 40.9037C8.07399 40.9275 8.08288 40.9501 8.09118 40.9732C8.09988 40.9978 8.10799 41.0223 8.11784 41.0466C8.12673 41.0679 8.13716 41.0884 8.1472 41.1094C8.1588 41.1343 8.16981 41.1593 8.18294 41.1836C8.19357 41.2035 8.20555 41.2223 8.21714 41.2416C8.23143 41.2655 8.24495 41.2899 8.2606 41.313C8.2747 41.3343 8.29055 41.3542 8.30581 41.3745C8.32068 41.3946 8.33459 41.415 8.35062 41.4344C8.37922 41.4693 8.40993 41.5027 8.44142 41.5348C8.44528 41.5389 8.44857 41.5433 8.45262 41.5474C8.45572 41.5505 8.45919 41.553 8.46228 41.5561C8.49532 41.5887 8.5299 41.62 8.56583 41.6496C8.58399 41.6646 8.60331 41.6776 8.62185 41.6917C8.64349 41.7079 8.66474 41.7245 8.68734 41.7396C8.70936 41.7545 8.73235 41.7674 8.75515 41.7809C8.77582 41.7931 8.79572 41.806 8.81697 41.8174C8.84015 41.8298 8.86391 41.8402 8.88767 41.8514C8.90969 41.8619 8.93133 41.8727 8.95393 41.8824C8.97692 41.8916 9.0003 41.8994 9.02348 41.9077C9.04782 41.9164 9.07177 41.9258 9.09689 41.9333C9.12007 41.9403 9.14344 41.9455 9.16682 41.9513C9.19232 41.9577 9.21743 41.9648 9.24332 41.9701C9.27056 41.9755 9.29818 41.9786 9.32542 41.9826C9.34802 41.9857 9.37005 41.99 9.39303 41.9923C9.44365 41.9973 9.49445 42 9.54545 42H18.8182C19.2281 42 19.6212 41.8372 19.911 41.5473C20.2008 41.2575 20.3636 40.8644 20.3636 40.4545C20.3636 40.0447 20.2008 39.6516 19.911 39.3617C19.6212 39.0719 19.2281 38.9091 18.8182 38.9091H13.2766L21.4565 30.7292C21.6 30.5857 21.7138 30.4153 21.7915 30.2278C21.8692 30.0403 21.9091 29.8393 21.9091 29.6364C21.9091 29.4334 21.8692 29.2324 21.7915 29.0449C21.7138 28.8574 21.6 28.687 21.4565 28.5435C21.313 28.4 21.1426 28.2862 20.9551 28.2085C20.7676 28.1308 20.5666 28.0909 20.3636 28.0909C20.1607 28.0909 19.9597 28.1308 19.7722 28.2085C19.5847 28.2862 19.4143 28.4 19.2708 28.5435Z" fill="black"/>
</svg>
