<svg width="50" height="50" viewBox="0 0 50 50" fill="none" xmlns="http://www.w3.org/2000/svg">
<path d="M36.1785 17.583C36.3333 17.7392 36.4561 17.9246 36.5399 18.1287C36.6236 18.3327 36.6667 18.5514 36.6667 18.7723C36.6667 18.9932 36.6236 19.2119 36.5399 19.4159C36.4561 19.62 36.3333 19.8054 36.1785 19.9616L15.6904 40.6363H32.5C32.942 40.6363 33.366 40.8135 33.6785 41.1289C33.9911 41.4443 34.1667 41.8721 34.1667 42.3182C34.1667 42.7642 33.9911 43.192 33.6785 43.5074C33.366 43.8228 32.942 44 32.5 44H11.6667C11.6117 44 11.5569 43.9971 11.5021 43.9916C11.4773 43.9891 11.4533 43.9844 11.4288 43.9811C11.3996 43.9767 11.3702 43.9733 11.3412 43.9674C11.3129 43.9617 11.2856 43.954 11.2579 43.947C11.2329 43.9407 11.2077 43.935 11.1829 43.9275C11.1558 43.9191 11.13 43.909 11.1037 43.8995C11.0788 43.8905 11.0535 43.8821 11.0287 43.8718C11.0046 43.8617 10.9812 43.8497 10.9575 43.8385C10.9319 43.8263 10.906 43.8148 10.881 43.8011C10.8585 43.7891 10.8373 43.7753 10.8156 43.7622C10.7906 43.7473 10.7654 43.7328 10.741 43.7166C10.7177 43.7008 10.6958 43.6832 10.6733 43.6664C10.6523 43.6504 10.6304 43.6357 10.61 43.6184C10.5745 43.5887 10.5402 43.5575 10.5073 43.5249C10.501 43.5188 10.4944 43.5137 10.4881 43.5074C10.4825 43.5017 10.4777 43.4954 10.4721 43.4896C10.4393 43.4558 10.4079 43.4208 10.3779 43.3844C10.3612 43.3636 10.3462 43.3418 10.3304 43.3203C10.3137 43.2976 10.2965 43.2758 10.281 43.2522C10.2644 43.2276 10.2502 43.2017 10.2352 43.1765C10.2225 43.1547 10.209 43.1334 10.1971 43.1114C10.1835 43.0857 10.1721 43.0594 10.16 43.0336C10.1488 43.0096 10.1371 42.9863 10.1269 42.9617C10.1169 42.9369 10.1085 42.9112 10.0996 42.886C10.0902 42.8595 10.08 42.8334 10.0719 42.8063C10.0644 42.7811 10.0587 42.7554 10.0525 42.73C10.0456 42.7022 10.0379 42.6749 10.0323 42.6467C10.0265 42.6173 10.0231 42.5879 10.019 42.5582C10.0154 42.5334 10.0106 42.5093 10.0085 42.484C10.0031 42.4303 10.0003 42.3765 10.0002 42.3226L10 42.3182V21.2951C10 20.849 10.1756 20.4212 10.4882 20.1058C10.8007 19.7904 11.2246 19.6132 11.6667 19.6132C12.1087 19.6132 12.5326 19.7904 12.8452 20.1058C13.1577 20.4212 13.3333 20.849 13.3333 21.2951V38.2578L33.8215 17.583C34.1341 17.2677 34.558 17.0906 35 17.0906C35.442 17.0906 35.8659 17.2677 36.1785 17.583ZM43.3333 7H6.66667C6.22464 7 5.80072 7.17719 5.48816 7.4926C5.1756 7.80801 5 8.23579 5 8.68185C5 9.1279 5.1756 9.55569 5.48816 9.87109C5.80072 10.1865 6.22464 10.3637 6.66667 10.3637H43.3333C43.7754 10.3637 44.1993 10.1865 44.5118 9.87109C44.8244 9.55569 45 9.1279 45 8.68185C45 8.23579 44.8244 7.80801 44.5118 7.4926C44.1993 7.17719 43.7754 7 43.3333 7Z" fill="black"/>
</svg>
