<svg width="50" height="50" viewBox="0 0 50 50" fill="none" xmlns="http://www.w3.org/2000/svg">
<path d="M41.4467 11.2246L14.4491 38.2222H34.4444C34.9454 38.2222 35.4258 38.4212 35.7801 38.7755C36.1343 39.1297 36.3333 39.6101 36.3333 40.1111C36.3333 40.6121 36.1343 41.0925 35.7801 41.4468C35.4258 41.801 34.9454 42 34.4444 42H9.88889C9.38792 42 8.90748 41.801 8.55324 41.4468C8.19901 41.0925 8 40.6121 8 40.1111V15.5556C8 15.0546 8.19901 14.5742 8.55324 14.2199C8.90748 13.8657 9.38792 13.6667 9.88889 13.6667C10.3898 13.6667 10.8703 13.8657 11.2245 14.2199C11.5788 14.5742 11.7778 15.0546 11.7778 15.5556V35.5509L38.7754 8.55326C38.9508 8.37785 39.159 8.23871 39.3882 8.14379C39.6174 8.04886 39.863 8 40.1111 8C40.3591 8 40.6048 8.04886 40.8339 8.14379C41.0631 8.23871 41.2713 8.37785 41.4467 8.55326C41.6221 8.72866 41.7613 8.93689 41.8562 9.16607C41.9511 9.39525 42 9.64088 42 9.88893C42 10.137 41.9511 10.3826 41.8562 10.6118C41.7613 10.841 41.6221 11.0492 41.4467 11.2246Z" fill="black"/>
</svg>
