<svg width="50" height="50" viewBox="0 0 50 50" fill="none" xmlns="http://www.w3.org/2000/svg">
<path d="M11.4246 16.5607C11.6966 16.8419 12.0654 16.9999 12.45 16.9999C12.8345 16.9999 13.2033 16.8419 13.4753 16.5607L19.7 10.1212V24.5C19.7056 29.6699 21.6934 34.6264 25.2273 38.2821C28.7611 41.9378 33.5524 43.9941 38.55 44C38.9346 44 39.3034 43.842 39.5753 43.5607C39.8472 43.2794 40 42.8978 40 42.5C40 42.1022 39.8472 41.7206 39.5753 41.4393C39.3034 41.158 38.9346 41 38.55 41C34.3213 40.995 30.2671 39.2551 27.2769 36.1618C24.2868 33.0685 22.6048 28.8745 22.6 24.5V10.1212L28.8247 16.5607C29.0966 16.842 29.4654 17 29.85 17C30.2346 17 30.6034 16.842 30.8753 16.5607C31.1473 16.2794 31.3 15.8978 31.3 15.5C31.3 15.1022 31.1473 14.7206 30.8753 14.4393L22.1753 5.43931C22.1657 5.42938 22.1552 5.42075 22.1452 5.41119C22.1206 5.387 22.0959 5.36281 22.0696 5.3405C22.0508 5.32438 22.0309 5.3105 22.0115 5.2955C21.9928 5.28106 21.9749 5.26625 21.9556 5.25294C21.9341 5.23813 21.912 5.22519 21.8898 5.21169C21.8712 5.20006 21.8529 5.18787 21.8337 5.17719C21.8121 5.16537 21.7902 5.15544 21.7682 5.14475C21.747 5.13444 21.7262 5.12356 21.7046 5.11419C21.6841 5.10537 21.6633 5.09844 21.6426 5.09075C21.6185 5.08175 21.5948 5.07219 21.5701 5.0645C21.5504 5.05831 21.5302 5.05381 21.5103 5.04856C21.4844 5.04181 21.4588 5.03431 21.4326 5.02887C21.4106 5.02437 21.3883 5.02194 21.3662 5.01856C21.3416 5.01481 21.3173 5.00994 21.2921 5.00731C21.2555 5.00375 21.2189 5.00244 21.1821 5.00169C21.1712 5.0015 21.1609 5 21.15 5C21.1391 5 21.1288 5.0015 21.1179 5.00169C21.0811 5.00244 21.0445 5.00375 21.0079 5.00731C20.9829 5.00994 20.9584 5.01481 20.9339 5.01856C20.9116 5.02194 20.8895 5.02437 20.8674 5.02887C20.8411 5.0345 20.8156 5.04181 20.7898 5.04856C20.7699 5.05381 20.7496 5.05831 20.7297 5.0645C20.7052 5.07219 20.6815 5.08175 20.6573 5.09075C20.6367 5.09825 20.6158 5.10537 20.5954 5.11419C20.5736 5.12356 20.5529 5.13444 20.5319 5.14475C20.51 5.15544 20.4879 5.16537 20.4665 5.17719C20.4471 5.18787 20.4288 5.20006 20.4101 5.21169C20.388 5.22519 20.3659 5.23813 20.3445 5.25294C20.3253 5.26625 20.3072 5.28106 20.2887 5.2955C20.2691 5.3105 20.2492 5.32438 20.2303 5.3405C20.204 5.36281 20.1796 5.387 20.1547 5.41119C20.1448 5.42075 20.1343 5.42938 20.1247 5.43931L11.4246 14.4393C11.1527 14.7206 11 15.1022 11 15.5C11 15.8978 11.1527 16.2794 11.4246 16.5607Z" fill="black"/>
</svg>
