<svg width="50" height="50" viewBox="0 0 50 50" fill="none" xmlns="http://www.w3.org/2000/svg">
<path d="M43.6827 21.178C43.6602 21.181 43.6383 21.1852 43.6155 21.1874C43.5652 21.1923 43.5147 21.1949 43.464 21.1949H34.248C33.8407 21.1949 33.45 21.0368 33.1619 20.7554C32.8739 20.4739 32.712 20.0922 32.712 19.6942C32.712 19.2962 32.8739 18.9145 33.1619 18.6331C33.45 18.3517 33.8407 18.1935 34.248 18.1935H39.7557L35.861 14.3886C32.9783 11.5783 29.0723 10.0001 25 10.0001C20.9277 10.0001 17.0217 11.5783 14.139 14.3886C13.8509 14.67 13.4602 14.8281 13.0527 14.8281C12.6453 14.8281 12.2546 14.67 11.9665 14.3886C11.6784 14.1071 11.5166 13.7253 11.5166 13.3273C11.5166 12.9292 11.6784 12.5475 11.9665 12.266C15.4259 8.89383 20.1132 7 25 7C29.8868 7 34.5741 8.89383 38.0335 12.266L41.928 16.071V10.6901C41.928 10.2921 42.0898 9.9104 42.3779 9.62897C42.6659 9.34754 43.0566 9.18943 43.464 9.18943C43.8714 9.18943 44.2621 9.34754 44.5501 9.62897C44.8382 9.9104 45 10.2921 45 10.6901V19.6931C45 19.743 44.9973 19.7929 44.9923 19.8426C44.9904 19.8627 44.9864 19.8822 44.9835 19.9021C44.9795 19.9308 44.9758 19.9595 44.97 19.9878C44.9654 20.0112 44.9587 20.0339 44.9528 20.0572C44.9466 20.0816 44.9412 20.106 44.9336 20.1304C44.9265 20.1529 44.9178 20.1748 44.9098 20.197C44.9009 20.221 44.8929 20.2452 44.8829 20.269C44.874 20.2893 44.8639 20.3086 44.8545 20.3285C44.8427 20.3532 44.8314 20.378 44.818 20.4022C44.808 20.4204 44.7967 20.4378 44.7859 20.4555C44.7711 20.4798 44.7571 20.5044 44.7406 20.5282C44.7279 20.5466 44.7137 20.5639 44.7003 20.5819C44.684 20.6035 44.6686 20.6252 44.6511 20.646C44.6289 20.6725 44.6047 20.6974 44.5807 20.7224C44.5701 20.7331 44.5611 20.7447 44.5501 20.7552C44.5398 20.7653 44.5284 20.774 44.5177 20.7839C44.4918 20.8077 44.4659 20.8318 44.4382 20.8539C44.4179 20.8704 44.3963 20.8848 44.3752 20.9C44.356 20.9139 44.3374 20.9285 44.3176 20.9415C44.294 20.9569 44.2698 20.9702 44.2458 20.9841C44.2266 20.9951 44.2082 21.0068 44.1886 21.0171C44.1646 21.0297 44.1402 21.0402 44.1158 21.0514C44.0947 21.0612 44.0738 21.0715 44.0521 21.0803C44.0289 21.0897 44.0051 21.0972 43.9814 21.1054C43.9578 21.1139 43.9344 21.1227 43.91 21.1298C43.8868 21.1368 43.863 21.1418 43.8394 21.1476C43.8144 21.1538 43.7896 21.1608 43.7641 21.1657C43.7372 21.1709 43.71 21.1739 43.6827 21.1778V21.178ZM35.861 35.6113C32.9783 38.4215 29.0723 39.9997 25 39.9997C20.9277 39.9997 17.0217 38.4215 14.139 35.6113L10.2443 31.8063H15.752C16.1593 31.8063 16.55 31.6482 16.8381 31.3667C17.1261 31.0853 17.288 30.7036 17.288 30.3056C17.288 29.9076 17.1261 29.5259 16.8381 29.2444C16.55 28.963 16.1593 28.8049 15.752 28.8049H6.536C6.52448 28.8049 6.51353 28.8064 6.50201 28.8068C6.46304 28.8075 6.42425 28.8086 6.38547 28.8124C6.35897 28.8148 6.33305 28.8195 6.30694 28.8235C6.28352 28.8268 6.2599 28.8295 6.23667 28.834C6.20883 28.8392 6.18176 28.8467 6.15449 28.8535C6.13337 28.8587 6.11187 28.8632 6.09075 28.8694C6.06483 28.8771 6.03968 28.8867 6.01414 28.8957C5.99225 28.9034 5.97017 28.9103 5.94848 28.9191C5.92544 28.9285 5.90355 28.9394 5.88128 28.9497C5.85805 28.9604 5.83462 28.9703 5.81197 28.9824C5.79142 28.993 5.77203 29.0052 5.75225 29.0167C5.72883 29.0302 5.70541 29.0431 5.68275 29.0579C5.66221 29.0713 5.6432 29.0861 5.62361 29.1005C5.60288 29.1155 5.58176 29.1294 5.56179 29.1456C5.53395 29.1681 5.50784 29.1921 5.48173 29.2163C5.47117 29.2258 5.46003 29.2345 5.44985 29.2444C5.43891 29.2549 5.42989 29.2665 5.41933 29.2772C5.39533 29.3022 5.37113 29.3271 5.34886 29.3536C5.33139 29.3742 5.31603 29.3962 5.2999 29.4177C5.28646 29.4356 5.27206 29.453 5.25939 29.4714C5.24307 29.4952 5.22867 29.5198 5.21408 29.5442C5.20333 29.562 5.192 29.5793 5.18202 29.5974C5.16858 29.6216 5.15744 29.6464 5.14554 29.6712C5.13594 29.6911 5.12595 29.7106 5.11731 29.7306C5.10733 29.7543 5.09907 29.7787 5.09043 29.8027C5.08218 29.8248 5.07354 29.8467 5.06643 29.8693C5.05894 29.8936 5.05338 29.918 5.04723 29.9424C5.04147 29.9657 5.03456 29.9884 5.02995 30.0118C5.02419 30.0402 5.02054 30.0689 5.01651 30.0976C5.01363 30.1174 5.00979 30.1369 5.00768 30.157C5.00269 30.2067 5 30.2566 5 30.3065V39.3097C5 39.7077 5.16183 40.0894 5.44988 40.3708C5.73794 40.6523 6.12862 40.8104 6.536 40.8104C6.94337 40.8104 7.33405 40.6523 7.62211 40.3708C7.91016 40.0894 8.07199 39.7077 8.07199 39.3097V33.929L11.9665 37.734C15.4259 41.1062 20.1132 43 25 43C29.8868 43 34.5741 41.1062 38.0335 37.734C38.3216 37.4525 38.4834 37.0708 38.4834 36.6727C38.4834 36.2747 38.3216 35.8929 38.0335 35.6114C37.7454 35.33 37.3547 35.1719 36.9473 35.1719C36.5398 35.1719 36.1491 35.33 35.861 35.6114V35.6113Z" fill="black"/>
</svg>
