<svg width="50" height="50" viewBox="0 0 50 50" fill="none" xmlns="http://www.w3.org/2000/svg">
<path d="M42.1429 10H7.85714C7.09964 10.0009 6.37341 10.3067 5.83778 10.8503C5.30214 11.394 5.00085 12.1311 5 12.9V17.25C5.00085 18.0189 5.30214 18.756 5.83778 19.2997C6.37341 19.8433 7.09964 20.1491 7.85714 20.15V36.1C7.85799 36.8689 8.15929 37.606 8.69492 38.1497C9.23055 38.6933 9.95679 38.9991 10.7143 39H39.2857C40.0432 38.9991 40.7694 38.6933 41.3051 38.1497C41.8407 37.606 42.142 36.8689 42.1429 36.1V20.15C42.9004 20.1491 43.6266 19.8433 44.1622 19.2997C44.6979 18.756 44.9991 18.0189 45 17.25V12.9C44.9991 12.1311 44.6979 11.394 44.1622 10.8503C43.6266 10.3067 42.9004 10.0009 42.1429 10ZM29.2857 27.4H20.7143C20.3354 27.4 19.972 27.2472 19.7041 26.9753C19.4362 26.7034 19.2857 26.3346 19.2857 25.95C19.2857 25.5654 19.4362 25.1966 19.7041 24.9247C19.972 24.6528 20.3354 24.5 20.7143 24.5H29.2857C29.6646 24.5 30.028 24.6528 30.2959 24.9247C30.5638 25.1966 30.7143 25.5654 30.7143 25.95C30.7143 26.3346 30.5638 26.7034 30.2959 26.9753C30.028 27.2472 29.6646 27.4 29.2857 27.4ZM42.1429 17.25H7.85714V12.9H42.1429L42.1446 17.25H42.1429Z" fill="black"/>
</svg>
