<svg width="50" height="50" viewBox="0 0 50 50" fill="none" xmlns="http://www.w3.org/2000/svg">
<path d="M33.2496 28.4169C33.5622 28.7295 33.7378 29.1534 33.7378 29.5955C33.7378 30.0376 33.5622 30.4616 33.2496 30.7742L26.1785 37.8452C26.169 37.8548 26.1587 37.8629 26.149 37.8721C26.1194 37.9002 26.0898 37.9283 26.0583 37.9542C26.0448 37.9652 26.0302 37.975 26.0165 37.9854C25.9871 38.0081 25.9579 38.031 25.9269 38.0517C25.9156 38.0594 25.9033 38.0656 25.8917 38.0729C25.8573 38.0948 25.8229 38.1165 25.7867 38.1358C25.7783 38.1404 25.769 38.1442 25.7604 38.1485C25.7208 38.169 25.6806 38.1887 25.639 38.2058C25.6333 38.2083 25.6273 38.21 25.6215 38.2121C25.577 38.2303 25.5317 38.2466 25.4858 38.2608C25.4798 38.2629 25.4735 38.2637 25.4677 38.2656C25.4217 38.2793 25.3751 38.291 25.3281 38.3006C25.3146 38.3033 25.3006 38.3046 25.2871 38.3069C25.2473 38.314 25.2073 38.3208 25.1663 38.3248C25.0556 38.336 24.9442 38.336 24.8335 38.3248C24.7925 38.3206 24.7525 38.3137 24.7127 38.3069C24.6992 38.3044 24.6854 38.3033 24.6721 38.3006C24.6249 38.291 24.5782 38.2793 24.5321 38.2656C24.5262 38.2637 24.5202 38.2627 24.5142 38.2608C24.4683 38.2467 24.4232 38.2305 24.3787 38.2123L24.361 38.206C24.3198 38.1885 24.2793 38.1693 24.2396 38.1485C24.231 38.1442 24.2219 38.1404 24.2133 38.136C24.1776 38.1163 24.1426 38.0952 24.1083 38.0729C24.0967 38.0656 24.0844 38.0594 24.0729 38.0517C24.0421 38.0308 24.0129 38.0081 23.9835 37.9854C23.9698 37.975 23.9552 37.9652 23.9419 37.9542C23.9106 37.9279 23.8803 37.9005 23.851 37.8721C23.8412 37.8629 23.831 37.8548 23.8215 37.8452L16.7504 30.7742C16.4378 30.4616 16.2621 30.0376 16.2621 29.5956C16.2621 29.1535 16.4376 28.7295 16.7502 28.4169C17.0628 28.1043 17.4867 27.9286 17.9288 27.9286C18.3709 27.9285 18.7949 28.1041 19.1075 28.4167L23.3333 32.6431V20C23.3333 19.558 23.5089 19.134 23.8215 18.8215C24.134 18.5089 24.558 18.3333 25 18.3333C25.442 18.3333 25.866 18.5089 26.1785 18.8215C26.4911 19.134 26.6667 19.558 26.6667 20V32.6431L30.8925 28.4169C31.2051 28.1044 31.629 27.9289 32.071 27.9289C32.513 27.9289 32.937 28.1044 33.2496 28.4169V28.4169ZM45 13.3333V41.6667C44.999 42.5504 44.6475 43.3977 44.0226 44.0226C43.3977 44.6475 42.5504 44.999 41.6667 45H8.33333C7.44958 44.999 6.60231 44.6475 5.97741 44.0226C5.3525 43.3977 5.00099 42.5504 5 41.6667V13.3333C5.00019 13.2718 5.00374 13.2103 5.01062 13.1492C5.0125 13.134 5.01562 13.119 5.01771 13.1038C5.02396 13.0577 5.03146 13.0121 5.04167 12.9673C5.04542 12.9502 5.05021 12.9337 5.05458 12.9167C5.07001 12.8566 5.08879 12.7974 5.11083 12.7394C5.12667 12.6983 5.14403 12.658 5.16292 12.6185C5.1675 12.6085 5.17083 12.5977 5.17604 12.5879L8.50938 5.92125C8.6478 5.64443 8.86057 5.41162 9.12384 5.24891C9.38712 5.0862 9.6905 5.00001 10 5H40C40.3095 5.00001 40.6129 5.0862 40.8762 5.24891C41.1394 5.41162 41.3522 5.64443 41.4906 5.92125L44.824 12.5879C44.829 12.5979 44.8323 12.6085 44.8373 12.6185C44.8827 12.7142 44.9189 12.814 44.9454 12.9165C44.9496 12.9335 44.9546 12.9504 44.9583 12.9675C44.9683 13.0121 44.9758 13.0573 44.9823 13.1033C44.9844 13.1185 44.9875 13.134 44.9894 13.1492C44.9963 13.2103 44.9998 13.2718 45 13.3333V13.3333ZM9.36333 11.6667H40.6367L38.97 8.33333H11.03L9.36333 11.6667ZM41.6687 41.6667L41.6667 15H8.33333V41.6667H41.6687Z" fill="black"/>
</svg>
