<svg width="50" height="50" viewBox="0 0 50 50" fill="none" xmlns="http://www.w3.org/2000/svg">
<path d="M11 24.5C11 24.8448 11.1273 25.1754 11.3539 25.4192C11.5805 25.663 11.8879 25.8 12.2083 25.8H38.7917C39.1121 25.8 39.4195 25.663 39.6461 25.4192C39.8727 25.1754 40 24.8448 40 24.5C40 24.1552 39.8727 23.8246 39.6461 23.5808C39.4195 23.337 39.1121 23.2 38.7917 23.2H12.2083C11.8879 23.2 11.5805 23.337 11.3539 23.5808C11.1273 23.8246 11 24.1552 11 24.5ZM26.3544 20.2193C26.3463 20.228 26.3372 20.2355 26.3289 20.2441C26.3085 20.2648 26.2881 20.2857 26.2664 20.3049C26.2504 20.319 26.2335 20.3315 26.2168 20.3447C26.2017 20.3567 26.1871 20.3694 26.1715 20.3806C26.153 20.3939 26.1339 20.4055 26.115 20.4175C26.0999 20.4271 26.0853 20.4373 26.0699 20.4461C26.0512 20.457 26.032 20.4661 26.0128 20.4758C25.9962 20.4843 25.9797 20.4932 25.9626 20.5009C25.9444 20.509 25.9256 20.5155 25.9071 20.5226C25.8885 20.53 25.8701 20.5376 25.8509 20.5438C25.8326 20.5498 25.8139 20.5542 25.7953 20.5592C25.7757 20.5646 25.7562 20.5706 25.7362 20.5748C25.7149 20.5794 25.6933 20.582 25.672 20.5854C25.6544 20.588 25.6371 20.5915 25.6192 20.5935C25.5399 20.6019 25.46 20.6019 25.3807 20.5935C25.3629 20.5915 25.3456 20.588 25.328 20.5854C25.3067 20.5821 25.2851 20.5794 25.2639 20.5748C25.2438 20.5706 25.2243 20.5646 25.2047 20.5592C25.1861 20.5543 25.1674 20.5498 25.1491 20.5438C25.1299 20.5376 25.1115 20.53 25.0929 20.5226C25.0744 20.5155 25.0556 20.509 25.0374 20.5009C25.0203 20.4932 25.0038 20.4843 24.9872 20.4758C24.968 20.4661 24.9488 20.457 24.9301 20.4461C24.9147 20.4373 24.8999 20.4271 24.885 20.4175C24.8661 20.4055 24.847 20.3939 24.8286 20.3806C24.8129 20.3694 24.7984 20.3567 24.7832 20.3449C24.7665 20.3315 24.7496 20.319 24.7336 20.3049C24.7119 20.2857 24.6915 20.2648 24.6711 20.2441C24.6628 20.2357 24.6537 20.228 24.6454 20.2193L19.8121 15.0193C19.5855 14.7754 19.4582 14.4447 19.4582 14.0999C19.4582 13.7551 19.5855 13.4245 19.8121 13.1807C20.0388 12.9369 20.3462 12.7999 20.6666 12.7999C20.9871 12.7999 21.2945 12.9369 21.5211 13.1807L24.2917 16.1615V6.3C24.2917 5.95522 24.419 5.62456 24.6456 5.38076C24.8722 5.13696 25.1795 5 25.5 5C25.8205 5 26.1278 5.13696 26.3544 5.38076C26.581 5.62456 26.7083 5.95522 26.7083 6.3V16.1615L29.4789 13.1807C29.5911 13.06 29.7243 12.9643 29.8709 12.8989C30.0175 12.8336 30.1746 12.8 30.3333 12.8C30.6538 12.8 30.9612 12.9369 31.1878 13.1807C31.3 13.3015 31.389 13.4448 31.4497 13.6025C31.5104 13.7602 31.5417 13.9293 31.5417 14.1C31.5417 14.4448 31.4144 14.7755 31.1878 15.0193L26.3544 20.2193ZM24.6456 28.7807C24.6536 28.7721 24.6623 28.7646 24.6706 28.7564C24.691 28.7352 24.712 28.7147 24.7336 28.6951C24.7493 28.6811 24.7659 28.6691 24.7822 28.6561C24.7977 28.6437 24.8126 28.6307 24.8288 28.6192C24.8466 28.6064 24.865 28.5952 24.8834 28.5835C24.899 28.5734 24.9143 28.5628 24.9303 28.5537C24.9484 28.5433 24.9665 28.5347 24.9848 28.5254C25.0025 28.5165 25.0198 28.5069 25.0378 28.499C25.0549 28.4913 25.0722 28.4853 25.0895 28.4786C25.1096 28.4708 25.1293 28.4626 25.1499 28.4559C25.1663 28.4505 25.1831 28.4466 25.1997 28.4421C25.2213 28.4362 25.2426 28.4297 25.2645 28.425C25.2828 28.4211 25.3014 28.419 25.32 28.4161C25.3403 28.4128 25.3607 28.4086 25.3816 28.4063C25.4121 28.4035 25.4427 28.4019 25.4733 28.4015C25.4823 28.4013 25.4909 28.4 25.5 28.4C25.5091 28.4 25.5178 28.4013 25.5267 28.4015C25.5573 28.4019 25.5879 28.4035 25.6184 28.4063C25.6393 28.4086 25.6597 28.4128 25.68 28.4161C25.6986 28.419 25.7172 28.4211 25.7355 28.425C25.7574 28.4299 25.7787 28.4362 25.8001 28.4421C25.8167 28.4466 25.8337 28.4505 25.8501 28.4559C25.8707 28.4626 25.8904 28.4708 25.9105 28.4786C25.9277 28.4851 25.9453 28.4913 25.9622 28.499C25.9803 28.5071 25.9975 28.5165 26.0151 28.5254C26.0333 28.5347 26.0518 28.5433 26.0696 28.5537C26.0857 28.5628 26.1008 28.5734 26.1166 28.5835C26.135 28.5952 26.1534 28.6064 26.1712 28.6192C26.1874 28.6307 26.2023 28.6436 26.2177 28.6561C26.2341 28.6691 26.2507 28.6811 26.2664 28.6951C26.2883 28.7146 26.3088 28.7354 26.3294 28.7564C26.3377 28.7646 26.3464 28.7721 26.3544 28.7807L31.1878 33.9807C31.3 34.1015 31.389 34.2448 31.4497 34.4025C31.5104 34.5602 31.5417 34.7293 31.5417 34.9C31.5417 35.0707 31.5104 35.2398 31.4497 35.3975C31.389 35.5552 31.3 35.6985 31.1878 35.8193C31.0756 35.94 30.9424 36.0357 30.7958 36.1011C30.6491 36.1664 30.492 36.2 30.3333 36.2C30.1746 36.2 30.0175 36.1664 29.8709 36.1011C29.7243 36.0357 29.5911 35.94 29.4789 35.8193L26.7083 32.8385V42.7C26.7083 43.0448 26.581 43.3754 26.3544 43.6192C26.1278 43.863 25.8205 44 25.5 44C25.1795 44 24.8722 43.863 24.6456 43.6192C24.419 43.3754 24.2917 43.0448 24.2917 42.7V32.8385L21.5211 35.8193C21.2945 36.0631 20.9871 36.2 20.6667 36.2C20.3462 36.2 20.0388 36.0631 19.8122 35.8193C19.5856 35.5755 19.4583 35.2448 19.4583 34.9C19.4583 34.5552 19.5856 34.2245 19.8122 33.9807L24.6456 28.7807Z" fill="black"/>
</svg>
