<svg width="50" height="50" viewBox="0 0 50 50" fill="none" xmlns="http://www.w3.org/2000/svg">
<path d="M35.8889 5H14.1111C13.2863 5.00093 12.4955 5.32994 11.9122 5.91485C11.329 6.49977 11.0009 7.29281 11 8.12V42.44C11 42.7185 11.0743 42.9919 11.2153 43.2318C11.3562 43.4717 11.5586 43.6694 11.8015 43.8044C12.0443 43.9394 12.3188 44.0068 12.5964 43.9995C12.874 43.9921 13.1445 43.9105 13.38 43.7629L24.9986 36.4796L36.62 43.7629C36.8555 43.9105 37.126 43.9921 37.4036 43.9995C37.6812 44.0068 37.9557 43.9394 38.1985 43.8044C38.4414 43.6694 38.6438 43.4717 38.7847 43.2318C38.9257 42.9919 39 42.7185 39 42.44V8.12C38.9991 7.29281 38.671 6.49977 38.0878 5.91485C37.5045 5.32994 36.7137 5.00093 35.8889 5ZM35.8889 39.6256L25.8229 33.3171C25.5757 33.1622 25.29 33.08 24.9984 33.08C24.7069 33.08 24.4212 33.1622 24.174 33.3171L14.1111 39.6254V8.12H35.8889V39.6256Z" fill="black"/>
</svg>
