<svg width="50" height="50" viewBox="0 0 50 50" fill="none" xmlns="http://www.w3.org/2000/svg">
<path d="M41.9232 8H8.07834C7.2626 8.00092 6.48054 8.32686 5.90373 8.90632C5.32691 9.48578 5.00245 10.2714 5.00154 11.0909V18.7882C5.00135 18.7983 5 18.8081 5 18.8182C5 18.8282 5.00135 18.8381 5.00154 18.8481V38.9091C5.00245 39.7286 5.32691 40.5142 5.90373 41.0937C6.48054 41.6731 7.2626 41.9991 8.07834 42H41.9232C42.7389 41.9991 43.521 41.6731 44.0978 41.0937C44.6746 40.5142 44.9991 39.7286 45 38.9091V11.0909C44.9991 10.2714 44.6746 9.48578 44.0978 8.90632C43.521 8.32686 42.7389 8.00092 41.9232 8ZM41.9232 11.0909L41.9236 17.2727H8.07834V11.0909H41.9232ZM41.9232 38.9091H8.07834V20.3636H41.9236L41.9249 38.9091H41.9232Z" fill="black"/>
</svg>
