<svg width="50" height="50" viewBox="0 0 50 50" fill="none" xmlns="http://www.w3.org/2000/svg">
<path d="M41.9232 8H14.232C13.4162 8.00092 12.6342 8.32686 12.0573 8.90632C11.4805 9.48578 11.1561 10.2714 11.1551 11.0909V14.1818H8.07834C7.2626 14.1827 6.48054 14.5087 5.90373 15.0881C5.32691 15.6676 5.00245 16.4532 5.00154 17.2727V21.8791C5.00135 21.8892 5 21.899 5 21.9091C5 21.9191 5.00135 21.929 5.00154 21.939V38.9091C5.00245 39.7286 5.32691 40.5142 5.90373 41.0937C6.48054 41.6731 7.2626 41.9991 8.07834 42H35.7696C36.5853 41.9991 37.3674 41.6731 37.9442 41.0937C38.521 40.5142 38.8455 39.7286 38.8464 38.9091V35.8182H41.9232C42.7389 35.8173 43.521 35.4913 44.0978 34.9119C44.6746 34.3324 44.9991 33.5467 45 32.7273V11.0909C44.9991 10.2714 44.6746 9.48578 44.0978 8.90632C43.521 8.32686 42.7389 8.00092 41.9232 8ZM35.7696 17.2727L35.7698 20.3636H8.07834V17.2727H35.7696ZM35.7696 38.9091H8.07834V23.4545H35.77L35.7709 34.2424C35.7707 34.2526 35.7694 34.2625 35.7694 34.2727C35.7694 34.283 35.7707 34.293 35.7709 34.3032L35.7713 38.9091H35.7696ZM41.9232 32.7273H38.8464V17.2727C38.8455 16.4532 38.521 15.6676 37.9442 15.0881C37.3674 14.5087 36.5853 14.1827 35.7696 14.1818H14.232V11.0909H41.9232V32.7273Z" fill="black"/>
</svg>
