<svg width="50" height="50" viewBox="0 0 50 50" fill="none" xmlns="http://www.w3.org/2000/svg">
<path d="M36.9 5H18.3C17.4781 5.00089 16.6902 5.31725 16.109 5.87967C15.5278 6.44208 15.2009 7.20462 15.2 8V11H12.1C11.2781 11.0009 10.4902 11.3172 9.90899 11.8797C9.32783 12.4421 9.00092 13.2046 9 14V42.5C8.99999 42.7756 9.07845 43.0459 9.22676 43.2811C9.37508 43.5164 9.58751 43.7076 9.84074 43.8337C10.094 43.9599 10.3782 44.016 10.6623 43.9961C10.9463 43.9761 11.2192 43.8808 11.4509 43.7206L21.3986 36.8433L31.3493 43.7206C31.581 43.8807 31.8539 43.976 32.1379 43.9959C32.4219 44.0159 32.7061 43.9597 32.9593 43.8336C33.2125 43.7075 33.4249 43.5163 33.5732 43.2811C33.7215 43.0458 33.8 42.7755 33.8 42.5V35.1293L37.5491 37.7206C37.7808 37.8808 38.0537 37.9761 38.3377 37.9961C38.6218 38.016 38.906 37.9599 39.1593 37.8338C39.4125 37.7076 39.6249 37.5164 39.7732 37.2812C39.9215 37.0459 40 36.7756 40 36.5V8C39.9991 7.20462 39.6722 6.44208 39.091 5.87967C38.5098 5.31725 37.7219 5.00089 36.9 5ZM36.9 33.5853L33.8 31.4427V14C33.7991 13.2046 33.4722 12.4421 32.891 11.8797C32.3098 11.3172 31.5219 11.0009 30.7 11H18.3V8H36.9V33.5853Z" fill="black"/>
</svg>
