<svg width="50" height="50" viewBox="0 0 50 50" fill="none" xmlns="http://www.w3.org/2000/svg">
<path d="M40 8.2V43.4C40 43.6856 39.9204 43.966 39.7694 44.2121C39.6184 44.4582 39.4015 44.661 39.1413 44.7994C38.8811 44.9379 38.587 45.0069 38.2896 44.9994C37.9922 44.992 37.7023 44.9082 37.45 44.7568L24.9985 37.2868L12.55 44.7568C12.2977 44.9082 12.0078 44.992 11.7104 44.9994C11.413 45.0069 11.1189 44.9379 10.8587 44.7994C10.5985 44.661 10.3816 44.4582 10.2306 44.2121C10.0796 43.966 10 43.6856 10 43.4V8.2C10.001 7.3516 10.3525 6.53822 10.9774 5.93831C11.6023 5.3384 12.4496 5.00095 13.3333 5H36.6667C37.5504 5.00095 38.3977 5.3384 39.0226 5.93831C39.6475 6.53822 39.999 7.3516 40 8.2Z" fill="black"/>
</svg>
