<svg width="50" height="50" viewBox="0 0 50 50" fill="none" xmlns="http://www.w3.org/2000/svg">
<path d="M36.9 5H18.3C17.4781 5.00092 16.6902 5.32538 16.109 5.90222C15.5278 6.47906 15.2009 7.26115 15.2 8.07692V11.1538H12.1C11.2781 11.1548 10.4902 11.4792 9.90899 12.0561C9.32783 12.6329 9.00092 13.415 9 14.2308V43.4615C8.99999 43.7442 9.07845 44.0214 9.22676 44.2627C9.37508 44.504 9.58751 44.7001 9.84074 44.8295C10.094 44.9588 10.3782 45.0164 10.6623 44.996C10.9463 44.9755 11.2192 44.8777 11.4509 44.7134L21.3986 37.6598L31.3493 44.7134C31.581 44.8777 31.8539 44.9754 32.1379 44.9958C32.4219 45.0163 32.7061 44.9587 32.9593 44.8293C33.2125 44.7 33.4249 44.5039 33.5732 44.2626C33.7215 44.0213 33.8 43.7441 33.8 43.4615V35.9019L37.5491 38.5596C37.7808 38.7239 38.0537 38.8216 38.3377 38.8421C38.6218 38.8626 38.906 38.805 39.1593 38.6756C39.4125 38.5463 39.6249 38.3502 39.7732 38.1089C39.9215 37.8676 40 37.5903 40 37.3077V8.07692C39.9991 7.26115 39.6722 6.47906 39.091 5.90222C38.5098 5.32538 37.7219 5.00092 36.9 5ZM30.7 40.4723L22.2994 34.5173C22.0365 34.3309 21.7215 34.2307 21.3984 34.2307C21.0754 34.2307 20.7604 34.3309 20.4975 34.5173L12.1 40.4717V14.2308H30.7V40.4723ZM36.9 34.3184L33.8 32.1209V14.2308C33.7991 13.415 33.4722 12.6329 32.891 12.0561C32.3098 11.4792 31.5219 11.1548 30.7 11.1538H18.3V8.07692H36.9V34.3184Z" fill="black"/>
</svg>
