<svg width="50" height="50" viewBox="0 0 50 50" fill="none" xmlns="http://www.w3.org/2000/svg">
<path d="M6.13154 33.0227C6.26229 33.312 6.48368 33.5592 6.76773 33.7332C7.05177 33.9072 7.38571 34 7.72732 34H42.2727C42.6143 34 42.9483 33.9072 43.2323 33.7332C43.5164 33.5592 43.7378 33.3119 43.8685 33.0226C43.9993 32.7333 44.0335 32.4149 43.9668 32.1078C43.9002 31.8006 43.7356 31.5185 43.4941 31.2971L26.2214 15.4638C26.061 15.3167 25.8706 15.2001 25.661 15.1205C25.4514 15.041 25.2268 15 25 15C24.7732 15 24.5485 15.041 24.339 15.1205C24.1294 15.2001 23.939 15.3167 23.7786 15.4638L6.50592 31.2971C6.26434 31.5185 6.09982 31.8007 6.03318 32.1078C5.96654 32.415 6.00077 32.7334 6.13154 33.0227Z" fill="black"/>
</svg>
