<svg width="50" height="50" viewBox="0 0 50 50" fill="none" xmlns="http://www.w3.org/2000/svg">
<path d="M6.50594 16.9875L23.7786 34.4874C23.939 34.6499 24.1294 34.7788 24.339 34.8668C24.5485 34.9547 24.7732 35 25 35C25.2268 35 25.4514 34.9547 25.661 34.8668C25.8706 34.7788 26.061 34.6499 26.2214 34.4874L43.4941 16.9875C43.7356 16.7427 43.9002 16.4309 43.9668 16.0914C44.0335 15.7519 43.9993 15.4001 43.8685 15.0803C43.7378 14.7605 43.5164 14.4872 43.2323 14.2949C42.9483 14.1026 42.6143 14 42.2727 14H7.72733C7.3857 14 7.05174 14.1026 6.76768 14.2949C6.48362 14.4872 6.26222 14.7605 6.13148 15.0803C6.00075 15.4001 5.96655 15.7519 6.0332 16.0914C6.09985 16.4309 6.26436 16.7427 6.50594 16.9875Z" fill="black"/>
</svg>
