<svg width="50" height="50" viewBox="0 0 50 50" fill="none" xmlns="http://www.w3.org/2000/svg">
<path d="M34.5744 19.3223C34.8561 19.6175 35.009 20.0124 34.9995 20.4203C34.9899 20.8282 34.8188 21.2156 34.5237 21.4973L23.2417 32.2665C22.9556 32.5397 22.5752 32.6921 22.1796 32.6922C21.7839 32.6922 21.4035 32.5398 21.1173 32.2667L15.4762 26.8821C15.3289 26.7429 15.2105 26.576 15.1279 26.3909C15.0453 26.2058 15.0001 26.0062 14.9949 25.8036C14.9897 25.601 15.0245 25.3993 15.0975 25.2103C15.1704 25.0212 15.28 24.8483 15.4199 24.7017C15.5599 24.5551 15.7274 24.4376 15.9129 24.3559C16.0984 24.2743 16.2982 24.23 16.5008 24.2258C16.7035 24.2216 16.9049 24.2575 17.0937 24.3314C17.2824 24.4052 17.4547 24.5157 17.6006 24.6563L22.1794 29.0271L32.3992 19.2717C32.6944 18.99 33.0893 18.8371 33.4972 18.8466C33.9051 18.8561 34.2925 19.0272 34.5742 19.3223H34.5744ZM45 25C45 28.9556 43.827 32.8224 41.6294 36.1114C39.4318 39.4004 36.3082 41.9638 32.6537 43.4776C28.9991 44.9913 24.9778 45.3874 21.0982 44.6157C17.2186 43.844 13.6549 41.9392 10.8579 39.1421C8.06082 36.3451 6.15601 32.7814 5.3843 28.9018C4.6126 25.0222 5.00867 21.0008 6.52242 17.3463C8.03617 13.6918 10.5996 10.5682 13.8886 8.37061C17.1776 6.17298 21.0444 5 25 5C30.3025 5.00601 35.3861 7.11507 39.1355 10.8645C42.8849 14.6139 44.994 19.6975 45 25ZM41.9231 25C41.9231 21.6529 40.9306 18.381 39.071 15.598C37.2115 12.8151 34.5685 10.646 31.4762 9.36511C28.3839 8.08425 24.9812 7.74911 21.6985 8.40209C18.4157 9.05508 15.4003 10.6668 13.0336 13.0336C10.6669 15.4003 9.05508 18.4157 8.4021 21.6985C7.74912 24.9812 8.08426 28.3839 9.36512 31.4762C10.646 34.5685 12.8151 37.2115 15.598 39.071C18.381 40.9305 21.6529 41.9231 25 41.9231C29.4867 41.918 33.7882 40.1334 36.9608 36.9608C40.1334 33.7882 41.918 29.4867 41.9231 25Z" fill="black"/>
</svg>
