<svg width="50" height="50" viewBox="0 0 50 50" fill="none" xmlns="http://www.w3.org/2000/svg">
<path d="M15.5126 26.2214L33.0125 43.4941C33.2573 43.7356 33.5691 43.9002 33.9086 43.9668C34.2481 44.0335 34.5999 43.9993 34.9197 43.8685C35.2395 43.7378 35.5128 43.5164 35.7051 43.2323C35.8974 42.9483 36 42.6143 36 42.2727V7.72733C36 7.3857 35.8974 7.05174 35.7051 6.76768C35.5128 6.48362 35.2395 6.26222 34.9197 6.13148C34.5999 6.00075 34.2481 5.96654 33.9086 6.03319C33.5691 6.09985 33.2573 6.26436 33.0125 6.50594L15.5126 23.7786C15.3501 23.939 15.2212 24.1294 15.1332 24.339C15.0453 24.5486 15 24.7732 15 25C15 25.2268 15.0453 25.4515 15.1332 25.661C15.2212 25.8706 15.3501 26.061 15.5126 26.2214Z" fill="black"/>
</svg>
