<svg width="50" height="50" viewBox="0 0 50 50" fill="none" xmlns="http://www.w3.org/2000/svg">
<path d="M29.6998 10C27.044 10.0022 24.4412 10.7534 22.1823 12.1697C19.9234 13.5859 18.0975 15.6113 16.9089 18.0195H16.908C15.9126 20.0305 15.3953 22.2499 15.3977 24.5C15.3977 24.8496 15.2608 25.1849 15.017 25.4321C14.7732 25.6793 14.4425 25.8182 14.0977 25.8182C13.7529 25.8182 13.4223 25.6793 13.1785 25.4321C12.9347 25.1849 12.7977 24.8496 12.7977 24.5C12.7957 22.2701 13.2252 20.0614 14.062 17.9992C11.4418 18.3436 9.04923 19.6864 7.37013 21.7548C5.69103 23.8232 4.85135 26.4621 5.02164 29.1355C5.19193 31.8089 6.35943 34.3163 8.28699 36.1485C10.2146 37.9807 12.7576 39.0002 15.3997 39H29.6998C33.4925 39 37.1298 37.4723 39.8116 34.753C42.4934 32.0338 44 28.3456 44 24.5C44 20.6544 42.4934 16.9662 39.8116 14.247C37.1298 11.5277 33.4925 10 29.6998 10ZM34.8333 28.3883C34.5895 28.6355 34.2588 28.7743 33.9141 28.7743C33.5693 28.7743 33.2387 28.6355 32.9949 28.3883L29.6987 25.0459V35.0455C29.6987 35.3951 29.5617 35.7303 29.3179 35.9776C29.0741 36.2248 28.7435 36.3636 28.3987 36.3636C28.0539 36.3636 27.7232 36.2248 27.4794 35.9776C27.2356 35.7303 27.0987 35.3951 27.0987 35.0455V25.0459L23.8025 28.3883C23.682 28.5119 23.5387 28.6102 23.3806 28.6774C23.2226 28.7446 23.053 28.7795 22.8816 28.78C22.7102 28.7805 22.5404 28.7467 22.382 28.6804C22.2236 28.6142 22.0796 28.5168 21.9584 28.3939C21.8373 28.271 21.7412 28.125 21.6759 27.9644C21.6106 27.8037 21.5772 27.6316 21.5777 27.4578C21.5782 27.284 21.6127 27.1121 21.679 26.9518C21.7453 26.7916 21.8422 26.6462 21.9641 26.5241L27.4789 20.9322C27.5095 20.9012 27.5416 20.8718 27.5751 20.844C27.5886 20.8325 27.6031 20.8229 27.6171 20.8122C27.6369 20.7969 27.6566 20.7812 27.6772 20.7672C27.6947 20.7554 27.7129 20.7452 27.7306 20.7343C27.7492 20.7231 27.7672 20.7112 27.7864 20.701C27.8048 20.6911 27.8238 20.6825 27.8426 20.6735C27.8621 20.6641 27.8816 20.6542 27.9016 20.6456C27.9198 20.6381 27.9383 20.632 27.9569 20.6252C27.9783 20.6173 27.9998 20.6089 28.0219 20.6021C28.0402 20.5965 28.0587 20.5926 28.0771 20.5878C28.0999 20.5819 28.1221 20.5756 28.145 20.571C28.1662 20.5667 28.1874 20.5644 28.2087 20.5611C28.2294 20.558 28.2498 20.554 28.2708 20.552C28.3085 20.5483 28.3464 20.5466 28.3842 20.5461C28.3891 20.5461 28.394 20.5455 28.3989 20.5455C28.4037 20.5455 28.4083 20.5461 28.4132 20.5461C28.451 20.5466 28.4889 20.5483 28.5266 20.552C28.5477 20.554 28.568 20.558 28.5887 20.5611C28.6098 20.5644 28.6312 20.5667 28.6524 20.571C28.6753 20.5756 28.6977 20.5819 28.7201 20.5878C28.7386 20.5926 28.7573 20.5965 28.7755 20.6021C28.7976 20.6089 28.8191 20.6173 28.8405 20.6252C28.8591 20.632 28.8776 20.6381 28.8958 20.6456C28.9159 20.6542 28.9353 20.6641 28.9549 20.6736C28.9736 20.6825 28.9926 20.6909 29.011 20.701C29.0302 20.7114 29.0484 20.7231 29.0667 20.7343C29.0846 20.7452 29.1027 20.7554 29.1202 20.7672C29.1408 20.7812 29.1605 20.7969 29.1803 20.8122C29.1943 20.8229 29.2088 20.8327 29.2224 20.844C29.2559 20.8718 29.288 20.9012 29.3186 20.9322L34.8334 26.5241C34.9542 26.6465 35.0499 26.7918 35.1153 26.9517C35.1806 27.1117 35.2142 27.2831 35.2142 27.4562C35.2142 27.6293 35.1806 27.8007 35.1153 27.9606C35.0499 28.1206 34.9542 28.2659 34.8334 28.3883H34.8333Z" fill="black"/>
</svg>
