<svg width="50" height="50" viewBox="0 0 50 50" fill="none" xmlns="http://www.w3.org/2000/svg">
<path d="M44.9999 24.5C45.009 27.6394 44.0045 30.6955 42.1397 33.2016C42.0377 33.3414 41.9094 33.4593 41.7622 33.5486C41.6151 33.6378 41.4519 33.6967 41.2822 33.7217C41.1126 33.7468 40.9397 33.7376 40.7735 33.6946C40.6073 33.6516 40.4512 33.5757 40.3141 33.4712C40.177 33.3668 40.0616 33.2359 39.9746 33.086C39.8877 32.9362 39.8308 32.7703 39.8072 32.5981C39.7837 32.4258 39.794 32.2506 39.8376 32.0824C39.8812 31.9142 39.9571 31.7564 40.0611 31.6182C41.1733 30.1142 41.9172 28.3638 42.2314 26.5112C42.5456 24.6586 42.4212 22.7567 41.8684 20.9624C41.3156 19.1681 40.3502 17.5327 39.0518 16.1909C37.7534 14.8492 36.1592 13.8395 34.4004 13.2451C32.6417 12.6506 30.7689 12.4885 28.9363 12.772C27.1036 13.0555 25.3637 13.7765 23.8598 14.8757C22.3558 15.9748 21.131 17.4206 20.2862 19.0939C19.4415 20.7672 19.0009 22.6201 19.0008 24.5C19.0008 24.8496 18.8639 25.1848 18.6201 25.4321C18.3763 25.6793 18.0457 25.8181 17.7009 25.8181C17.3561 25.8181 17.0255 25.6793 16.7817 25.4321C16.5379 25.1848 16.4009 24.8496 16.4009 24.5C16.4001 23.1696 16.5802 21.8456 16.9362 20.5652C16.758 20.5525 16.5795 20.5459 16.4009 20.5454C14.3323 20.5454 12.3484 21.3787 10.8857 22.8619C9.42295 24.3452 8.60119 26.3569 8.60119 28.4545C8.60119 30.5521 9.42295 32.5639 10.8857 34.0471C12.3484 35.5303 14.3323 36.3636 16.4009 36.3636H20.3008C20.6456 36.3636 20.9762 36.5025 21.22 36.7497C21.4638 36.9969 21.6007 37.3322 21.6007 37.6818C21.6007 38.0314 21.4638 38.3667 21.22 38.6139C20.9762 38.8611 20.6456 39 20.3008 39H16.4009C14.9714 39.0002 13.5571 38.7015 12.2465 38.1226C10.9358 37.5437 9.757 36.6969 8.78355 35.6353C7.8101 34.5737 7.06296 33.32 6.58877 31.9524C6.11458 30.5849 5.92354 29.1329 6.02757 27.6871C6.13161 26.2413 6.52848 24.8328 7.19341 23.5496C7.85834 22.2663 8.77704 21.1358 9.89215 20.2287C11.0073 19.3216 12.2948 18.6574 13.6744 18.2775C15.0541 17.8977 16.4961 17.8103 17.9105 18.0209C19.3498 15.0983 21.7204 12.7542 24.6378 11.3687C27.5553 9.98311 30.8488 9.63728 33.9844 10.3872C37.1199 11.1372 39.9138 12.9389 41.9132 15.5005C43.9126 18.062 45.0003 21.2332 44.9999 24.5ZM30.3202 23.5687C30.2897 23.5376 30.2576 23.5081 30.2242 23.4803C30.2105 23.469 30.1962 23.4593 30.1822 23.4485C30.1623 23.4334 30.1426 23.4177 30.122 23.4036C30.1044 23.3917 30.0864 23.3816 30.0685 23.3706C30.05 23.3594 30.0319 23.3477 30.0128 23.3373C29.9944 23.3274 29.9754 23.3189 29.9565 23.31C29.937 23.3004 29.9175 23.2905 29.8976 23.282C29.8794 23.2745 29.8608 23.2683 29.8423 23.2617C29.8209 23.2536 29.7994 23.2452 29.7773 23.2386C29.7591 23.233 29.7404 23.2289 29.7221 23.2241C29.6993 23.2184 29.677 23.2119 29.6541 23.2073C29.633 23.203 29.6117 23.2007 29.5904 23.1974C29.5698 23.1945 29.5493 23.1905 29.5284 23.1884C29.4907 23.1848 29.4528 23.1828 29.4149 23.1826C29.4101 23.1826 29.4052 23.1818 29.4005 23.1818C29.3958 23.1818 29.3909 23.1826 29.386 23.1826C29.3481 23.1828 29.3103 23.1848 29.2726 23.1884C29.2516 23.1905 29.2313 23.1945 29.2105 23.1974C29.1894 23.2007 29.1679 23.203 29.1468 23.2073C29.1239 23.2119 29.1015 23.2184 29.0791 23.2241C29.0605 23.2289 29.0419 23.233 29.0237 23.2386C29.0016 23.2452 28.9801 23.2536 28.9587 23.2617C28.9401 23.2683 28.9216 23.2745 28.9034 23.2821C28.8833 23.2905 28.8639 23.3004 28.8444 23.31C28.8256 23.3189 28.8066 23.3274 28.7882 23.3373C28.769 23.3477 28.7508 23.3594 28.7325 23.3708C28.7146 23.3816 28.6966 23.3917 28.6792 23.4036C28.6584 23.4177 28.6387 23.4332 28.6187 23.4485C28.6049 23.4593 28.5904 23.469 28.5768 23.4803C28.5433 23.5081 28.5112 23.5376 28.4806 23.5687L22.966 29.1606C22.8441 29.2827 22.7472 29.4281 22.6809 29.5883C22.6146 29.7486 22.5802 29.9205 22.5797 30.0943C22.5792 30.2681 22.6126 30.4403 22.6779 30.6009C22.7433 30.7616 22.8393 30.9075 22.9605 31.0304C23.0817 31.1533 23.2256 31.2506 23.3841 31.3169C23.5425 31.3832 23.7123 31.417 23.8837 31.4164C24.0551 31.4159 24.2246 31.381 24.3827 31.3138C24.5407 31.2465 24.684 31.1483 24.8045 31.0246L28.1005 27.6824V37.6818C28.1005 38.0314 28.2375 38.3667 28.4813 38.6139C28.7251 38.8611 29.0557 39 29.4005 39C29.7452 39 30.0759 38.8611 30.3197 38.6139C30.5635 38.3667 30.7004 38.0314 30.7004 37.6818V27.6824L33.9965 31.0246C34.1169 31.1483 34.2603 31.2465 34.4183 31.3138C34.5763 31.381 34.7459 31.4159 34.9173 31.4164C35.0887 31.417 35.2584 31.3832 35.4169 31.3169C35.5753 31.2506 35.7193 31.1533 35.8404 31.0304C35.9616 30.9075 36.0577 30.7616 36.123 30.6009C36.1884 30.4403 36.2217 30.2681 36.2212 30.0943C36.2207 29.9205 36.1863 29.7486 36.12 29.5883C36.0537 29.4281 35.9568 29.2827 35.8349 29.1606L30.3202 23.5687Z" fill="black"/>
</svg>
