<svg width="50" height="50" viewBox="0 0 50 50" fill="none" xmlns="http://www.w3.org/2000/svg">
<path d="M25 5C21.0444 5 17.1776 6.17298 13.8886 8.37061C10.5996 10.5682 8.03617 13.6918 6.52242 17.3463C5.00867 21.0009 4.6126 25.0222 5.3843 28.9018C6.15601 32.7814 8.06082 36.3451 10.8579 39.1421C13.6549 41.9392 17.2186 43.844 21.0982 44.6157C24.9778 45.3874 28.9991 44.9913 32.6537 43.4776C36.3082 41.9638 39.4318 39.4004 41.6294 36.1114C43.827 32.8224 45 28.9556 45 25C44.994 19.6975 42.885 14.6139 39.1355 10.8645C35.3861 7.11504 30.3025 5.00598 25 5ZM26.6 41.722V35.4C26.6 34.9756 26.4314 34.5687 26.1314 34.2686C25.8313 33.9686 25.4244 33.8 25 33.8C24.5757 33.8 24.1687 33.9686 23.8686 34.2686C23.5686 34.5687 23.4 34.9756 23.4 35.4V41.722C19.5173 41.3451 15.8861 39.6308 13.1277 36.8723C10.3692 34.1139 8.65494 30.4827 8.27801 26.6H14.6C15.0244 26.6 15.4313 26.4314 15.7314 26.1314C16.0314 25.8313 16.2 25.4243 16.2 25C16.2 24.5756 16.0314 24.1687 15.7314 23.8686C15.4313 23.5686 15.0244 23.4 14.6 23.4H8.27801C8.65491 19.5172 10.3692 15.8861 13.1276 13.1276C15.8861 10.3692 19.5172 8.6549 23.4 8.278V14.6C23.4 15.0243 23.5686 15.4313 23.8686 15.7314C24.1687 16.0314 24.5757 16.2 25 16.2C25.4244 16.2 25.8313 16.0314 26.1314 15.7314C26.4314 15.4313 26.6 15.0243 26.6 14.6V8.278C30.4828 8.6549 34.1139 10.3692 36.8724 13.1276C39.6308 15.8861 41.3451 19.5172 41.722 23.4H35.4C34.9757 23.4 34.5687 23.5686 34.2686 23.8686C33.9686 24.1687 33.8 24.5756 33.8 25C33.8 25.4243 33.9686 25.8313 34.2686 26.1314C34.5687 26.4314 34.9757 26.6 35.4 26.6H41.722C41.3451 30.4827 39.6308 34.1139 36.8723 36.8723C34.1139 39.6308 30.4828 41.3451 26.6 41.722Z" fill="black"/>
</svg>
