<svg width="50" height="50" viewBox="0 0 50 50" fill="none" xmlns="http://www.w3.org/2000/svg">
<path d="M43.6207 23.6207H41.4938C41.1625 19.7231 39.4636 16.0682 36.6977 13.3023C33.9318 10.5364 30.2769 8.83753 26.3793 8.50621V6.37931C26.3793 6.01349 26.234 5.66266 25.9753 5.40399C25.7167 5.14532 25.3658 5 25 5C24.6342 5 24.2834 5.14532 24.0247 5.40399C23.766 5.66266 23.6207 6.01349 23.6207 6.37931V8.50621C19.7231 8.83753 16.0682 10.5364 13.3023 13.3023C10.5364 16.0682 8.83753 19.7231 8.50621 23.6207H6.37931C6.01349 23.6207 5.66266 23.766 5.40399 24.0247C5.14532 24.2834 5 24.6342 5 25C5 25.3658 5.14532 25.7167 5.40399 25.9753C5.66266 26.234 6.01349 26.3793 6.37931 26.3793H8.50621C8.83753 30.2769 10.5364 33.9318 13.3023 36.6977C16.0682 39.4636 19.7231 41.1625 23.6207 41.4938V43.6207C23.6207 43.9865 23.766 44.3373 24.0247 44.596C24.2834 44.8547 24.6342 45 25 45C25.3658 45 25.7167 44.8547 25.9753 44.596C26.234 44.3373 26.3793 43.9865 26.3793 43.6207V41.4938C30.2769 41.1625 33.9318 39.4636 36.6977 36.6977C39.4636 33.9318 41.1625 30.2769 41.4938 26.3793H43.6207C43.9865 26.3793 44.3373 26.234 44.596 25.9753C44.8547 25.7167 45 25.3658 45 25C45 24.6342 44.8547 24.2834 44.596 24.0247C44.3373 23.766 43.9865 23.6207 43.6207 23.6207ZM26.3793 38.7241V36.7241C26.3793 36.3583 26.234 36.0075 25.9753 35.7488C25.7167 35.4901 25.3658 35.3448 25 35.3448C24.6342 35.3448 24.2834 35.4901 24.0247 35.7488C23.766 36.0075 23.6207 36.3583 23.6207 36.7241V38.7241C20.4566 38.4015 17.5006 36.9973 15.2517 34.7483C13.0027 32.4994 11.5985 29.5434 11.2759 26.3793H13.2759C13.6417 26.3793 13.9925 26.234 14.2512 25.9753C14.5099 25.7167 14.6552 25.3658 14.6552 25C14.6552 24.6342 14.5099 24.2834 14.2512 24.0247C13.9925 23.766 13.6417 23.6207 13.2759 23.6207H11.2759C11.5985 20.4566 13.0027 17.5006 15.2517 15.2517C17.5006 13.0027 20.4566 11.5985 23.6207 11.2759V13.2759C23.6207 13.6417 23.766 13.9925 24.0247 14.2512C24.2834 14.5099 24.6342 14.6552 25 14.6552C25.3658 14.6552 25.7167 14.5099 25.9753 14.2512C26.234 13.9925 26.3793 13.6417 26.3793 13.2759V11.2759C29.5434 11.5985 32.4994 13.0027 34.7483 15.2517C36.9973 17.5006 38.4015 20.4566 38.7241 23.6207H36.7241C36.3583 23.6207 36.0075 23.766 35.7488 24.0247C35.4901 24.2834 35.3448 24.6342 35.3448 25C35.3448 25.3658 35.4901 25.7167 35.7488 25.9753C36.0075 26.234 36.3583 26.3793 36.7241 26.3793H38.7241C38.4015 29.5434 36.9973 32.4994 34.7483 34.7483C32.4994 36.9973 29.5434 38.4015 26.3793 38.7241ZM25 18.1034C23.636 18.1034 22.3026 18.5079 21.1685 19.2657C20.0343 20.0235 19.1504 21.1006 18.6284 22.3608C18.1064 23.621 17.9699 25.0077 18.236 26.3455C18.5021 27.6833 19.1589 28.9121 20.1234 29.8766C21.0879 30.8411 22.3167 31.4979 23.6546 31.764C24.9923 32.0301 26.379 31.8936 27.6392 31.3716C28.8994 30.8496 29.9765 29.9657 30.7343 28.8315C31.4921 27.6974 31.8966 26.364 31.8966 25C31.8945 23.1716 31.1672 21.4186 29.8743 20.1257C28.5814 18.8328 26.8284 18.1055 25 18.1034ZM25 29.1379C24.1816 29.1379 23.3816 28.8952 22.7011 28.4406C22.0206 27.9859 21.4902 27.3396 21.177 26.5835C20.8639 25.8274 20.7819 24.9954 20.9416 24.1927C21.1012 23.3901 21.4953 22.6527 22.074 22.074C22.6527 21.4953 23.3901 21.1012 24.1927 20.9416C24.9954 20.7819 25.8274 20.8639 26.5835 21.177C27.3396 21.4902 27.9859 22.0206 28.4406 22.7011C28.8952 23.3816 29.1379 24.1816 29.1379 25C29.1367 26.0971 28.7003 27.1489 27.9246 27.9246C27.1489 28.7003 26.0971 29.1367 25 29.1379Z" fill="black"/>
</svg>
