<svg width="50" height="50" viewBox="0 0 50 50" fill="none" xmlns="http://www.w3.org/2000/svg">
<path d="M25 5C21.0444 5 17.1776 6.17298 13.8886 8.37061C10.5996 10.5682 8.03617 13.6918 6.52242 17.3463C5.00867 21.0008 4.6126 25.0222 5.3843 28.9018C6.15601 32.7814 8.06082 36.3451 10.8579 39.1421C13.6549 41.9392 17.2186 43.844 21.0982 44.6157C24.9778 45.3874 28.9991 44.9913 32.6537 43.4776C36.3082 41.9638 39.4318 39.4004 41.6294 36.1114C43.827 32.8224 45 28.9556 45 25C44.9939 19.6975 42.8848 14.614 39.1354 10.8646C35.386 7.11521 30.3025 5.00611 25 5ZM34.5252 21.4981L23.2421 32.2673C22.9553 32.5402 22.5744 32.6925 22.1785 32.6925C21.7825 32.6925 21.4017 32.5402 21.1148 32.2673L15.4748 26.8827C15.1795 26.6006 15.0084 26.2127 14.999 25.8044C14.9897 25.3962 15.1429 25.0009 15.425 24.7056C15.7071 24.4103 16.095 24.2391 16.5032 24.2298C16.9115 24.2204 17.3068 24.3737 17.6021 24.6558L22.1785 29.0265L32.3977 19.2713C32.6935 18.9919 33.0878 18.8409 33.4945 18.8513C33.9013 18.8617 34.2874 19.0327 34.5685 19.3268C34.8495 19.621 35.0028 20.0145 34.9947 20.4213C34.9866 20.8281 34.8178 21.2151 34.5252 21.4979V21.4981Z" fill="black"/>
</svg>
