<svg width="50" height="50" viewBox="0 0 50 50" fill="none" xmlns="http://www.w3.org/2000/svg">
<path d="M38.2886 10.7114C34.6316 7.05446 29.6717 5 24.5 5C19.3283 5 14.3684 7.05446 10.7114 10.7114C7.05446 14.3684 5 19.3283 5 24.5C5 29.6717 7.05446 34.6316 10.7114 38.2886C14.3684 41.9455 19.3283 44 24.5 44C29.6717 44 34.6316 41.9455 38.2886 38.2886C41.9455 34.6316 44 29.6717 44 24.5C44 19.3283 41.9455 14.3684 38.2886 10.7114ZM36.1672 36.1672C33.8597 38.4747 30.9197 40.0462 27.7191 40.6828C24.5184 41.3194 21.2009 40.9926 18.186 39.7438C15.171 38.495 12.5941 36.3801 10.7811 33.6668C8.96811 30.9534 8.00043 27.7633 8.00043 24.5C8.00043 21.2367 8.96811 18.0466 10.7811 15.3332C12.5941 12.6199 15.171 10.505 18.186 9.2562C21.2009 8.00736 24.5184 7.68059 27.7191 8.31722C30.9197 8.95384 33.8597 10.5253 36.1672 12.8328C37.7059 14.3613 38.9271 16.179 39.7604 18.1814C40.5937 20.1837 41.0228 22.3312 41.0228 24.5C41.0228 26.6688 40.5937 28.8163 39.7604 30.8186C38.9271 32.821 37.7059 34.6387 36.1672 36.1672ZM32.3648 26.4965C32.4976 26.6427 32.6001 26.8137 32.6666 26.9997C32.7331 27.1857 32.7623 27.383 32.7523 27.5803C32.7424 27.7776 32.6935 27.9709 32.6087 28.1493C32.5238 28.3276 32.4045 28.4875 32.2577 28.6196C32.1109 28.7518 31.9395 28.8536 31.7532 28.9193C31.5669 28.985 31.3695 29.0133 31.1723 29.0025C30.975 28.9917 30.7819 28.9421 30.6039 28.8564C30.4259 28.7708 30.2666 28.6508 30.1351 28.5035L24.5 22.2423L18.8649 28.5035C18.7334 28.6508 18.5741 28.7708 18.3961 28.8564C18.2181 28.9421 18.025 28.9917 17.8277 29.0025C17.6305 29.0133 17.4331 28.985 17.2468 28.9193C17.0605 28.8536 16.8891 28.7518 16.7423 28.6196C16.5955 28.4875 16.4762 28.3276 16.3913 28.1493C16.3065 27.9709 16.2576 27.7776 16.2477 27.5803C16.2377 27.383 16.2669 27.1857 16.3334 26.9997C16.3999 26.8137 16.5024 26.6427 16.6352 26.4965L23.3851 18.9966C23.5258 18.8403 23.6977 18.7154 23.8898 18.6298C24.0819 18.5443 24.2898 18.5001 24.5 18.5001C24.7102 18.5001 24.9181 18.5443 25.1102 18.6298C25.3023 18.7154 25.4742 18.8403 25.6149 18.9966L32.3648 26.4965Z" fill="black"/>
</svg>
