<svg width="50" height="50" viewBox="0 0 50 50" fill="none" xmlns="http://www.w3.org/2000/svg">
<path d="M30.3332 10C27.6093 10.0023 24.9396 10.7794 22.6228 12.2445C20.306 13.7096 18.4334 15.8048 17.2142 18.296H17.2134C16.1924 20.3764 15.6619 22.6723 15.6644 25C15.6644 25.3617 15.5239 25.7085 15.2738 25.9642C15.0238 26.22 14.6846 26.3636 14.331 26.3636C13.9774 26.3636 13.6382 26.22 13.3882 25.9642C13.1381 25.7085 12.9977 25.3617 12.9977 25C12.9956 22.6932 13.4361 20.4084 14.2943 18.2751C11.607 18.6313 9.15306 20.0204 7.4309 22.1601C5.70875 24.2998 4.84753 27.0297 5.02219 29.7953C5.19685 32.5609 6.39428 35.1548 8.37127 37.0502C10.3483 38.9456 12.9565 40.0002 15.6664 40H30.3332C34.2231 40 37.9536 38.4196 40.7042 35.6066C43.4548 32.7936 45 28.9782 45 25C45 21.0218 43.4548 17.2064 40.7042 14.3934C37.9536 11.5804 34.2231 10 30.3332 10ZM36.6092 23.9188L28.6092 32.1006C28.4853 32.2273 28.3384 32.3277 28.1766 32.3962C28.0148 32.4648 27.8414 32.5 27.6663 32.5C27.4912 32.5 27.3178 32.4648 27.156 32.3962C26.9943 32.3277 26.8473 32.2273 26.7235 32.1006L22.7234 28.0097C22.4734 27.754 22.3329 27.4071 22.3329 27.0455C22.3329 26.6838 22.4734 26.3369 22.7234 26.0812C22.9735 25.8255 23.3126 25.6818 23.6663 25.6818C24.0199 25.6818 24.3591 25.8255 24.6091 26.0812L27.6663 29.208L34.7236 21.9903C34.9736 21.7345 35.3128 21.5909 35.6664 21.5909C36.02 21.5909 36.3592 21.7345 36.6092 21.9903C36.8593 22.246 36.9998 22.5929 36.9998 22.9545C36.9998 23.3162 36.8593 23.6631 36.6092 23.9188Z" fill="black"/>
</svg>
