<svg width="50" height="50" viewBox="0 0 50 50" fill="none" xmlns="http://www.w3.org/2000/svg">
<path d="M25 5C21.0444 5 17.1776 6.17298 13.8886 8.37061C10.5996 10.5682 8.03617 13.6918 6.52242 17.3463C5.00867 21.0008 4.6126 25.0222 5.3843 28.9018C6.15601 32.7814 8.06082 36.3451 10.8579 39.1421C13.6549 41.9392 17.2186 43.844 21.0982 44.6157C24.9778 45.3874 28.9991 44.9913 32.6537 43.4776C36.3082 41.9638 39.4318 39.4004 41.6294 36.1114C43.827 32.8224 45 28.9556 45 25C44.994 19.6975 42.8849 14.6139 39.1355 10.8645C35.3861 7.11507 30.3025 5.00601 25 5ZM25 41.9231C21.6529 41.9231 18.381 40.9305 15.598 39.071C12.8151 37.2115 10.646 34.5685 9.36512 31.4762C8.08426 28.3839 7.74912 24.9812 8.4021 21.6985C9.05508 18.4157 10.6669 15.4003 13.0336 13.0336C15.4003 10.6668 18.4157 9.05508 21.6985 8.40209C24.9812 7.74911 28.3839 8.08425 31.4762 9.36511C34.5685 10.646 37.2115 12.8151 39.071 15.598C40.9306 18.381 41.9231 21.6529 41.9231 25C41.918 29.4867 40.1334 33.7882 36.9608 36.9608C33.7882 40.1334 29.4867 41.918 25 41.9231ZM29.1062 19.2204L22.6844 25L29.1062 30.7796C29.2573 30.9145 29.3803 31.0779 29.4682 31.2605C29.556 31.443 29.6069 31.6411 29.618 31.8434C29.6291 32.0457 29.6001 32.2482 29.5327 32.4392C29.4653 32.6303 29.3608 32.8062 29.2253 32.9567C29.0898 33.1073 28.9258 33.2296 28.7429 33.3167C28.56 33.4037 28.3616 33.4538 28.1593 33.464C27.957 33.4742 27.7546 33.4443 27.5639 33.3761C27.3731 33.3079 27.1977 33.2027 27.0477 33.0665L19.3554 26.1435C19.1951 25.9992 19.067 25.8228 18.9792 25.6259C18.8915 25.4289 18.8462 25.2156 18.8462 25C18.8462 24.7844 18.8915 24.5711 18.9792 24.3741C19.067 24.1771 19.1951 24.0008 19.3554 23.8565L27.0477 16.9335C27.3513 16.6626 27.7498 16.5229 28.1561 16.5452C28.5624 16.5674 28.9433 16.7497 29.2155 17.0521C29.4877 17.3545 29.629 17.7524 29.6085 18.1588C29.588 18.5652 29.4074 18.9469 29.1062 19.2204Z" fill="black"/>
</svg>
