<svg width="50" height="50" viewBox="0 0 50 50" fill="none" xmlns="http://www.w3.org/2000/svg">
<path d="M24.5 5C20.6433 5 16.8731 6.14365 13.6664 8.28634C10.4596 10.429 7.96027 13.4745 6.48436 17.0377C5.00845 20.6008 4.62228 24.5216 5.3747 28.3043C6.12711 32.0869 7.9843 35.5615 10.7114 38.2886C13.4385 41.0157 16.9131 42.8729 20.6957 43.6253C24.4784 44.3777 28.3992 43.9916 31.9623 42.5156C35.5255 41.0397 38.571 38.5404 40.7137 35.3336C42.8563 32.1269 44 28.3567 44 24.5C43.994 19.3301 41.9377 14.3737 38.282 10.718C34.6263 7.06233 29.6699 5.00595 24.5 5ZM32.2535 28.6147C32.1071 28.7465 31.9362 28.8482 31.7506 28.914C31.5649 28.9797 31.3681 29.0083 31.1714 28.9979C30.9747 28.9876 30.7819 28.9386 30.6041 28.8538C30.4264 28.769 30.2671 28.6499 30.1353 28.5035L24.5 22.2425L18.8647 28.5031C18.5966 28.791 18.2261 28.962 17.833 28.9793C17.44 28.9967 17.0559 28.8589 16.7635 28.5956C16.4711 28.3324 16.2938 27.9649 16.2698 27.5722C16.2458 27.1795 16.3771 26.7931 16.6353 26.4963L23.3853 18.9963C23.5296 18.8463 23.7027 18.7269 23.8943 18.6454C24.0858 18.5638 24.2918 18.5218 24.5 18.5218C24.7082 18.5218 24.9142 18.5638 25.1057 18.6454C25.2973 18.7269 25.4704 18.8463 25.6147 18.9963L32.3647 26.4963C32.6307 26.792 32.7683 27.1812 32.7475 27.5784C32.7266 27.9756 32.549 28.3482 32.2535 28.6145V28.6147Z" fill="black"/>
</svg>
