<svg width="50" height="50" viewBox="0 0 50 50" fill="none" xmlns="http://www.w3.org/2000/svg">
<path d="M42.375 5H16.375C15.944 5 15.5307 5.1712 15.226 5.47595C14.9212 5.78069 14.75 6.19402 14.75 6.62499V14.7502H6.625C6.19402 14.7502 5.7807 14.9214 5.47595 15.2261C5.17121 15.5308 5 15.9442 5 16.3751V42.375C5 42.806 5.17121 43.2193 5.47595 43.5241C5.7807 43.8288 6.19402 44 6.625 44H32.625C33.056 44 33.4693 43.8288 33.774 43.5241C34.0788 43.2193 34.25 42.806 34.25 42.375V34.2501H42.375C42.806 34.2501 43.2193 34.0788 43.524 33.7741C43.8288 33.4694 44 33.056 44 32.6251V6.62519C44 6.19422 43.8288 5.7809 43.524 5.47615C43.2193 5.17141 42.806 5.0002 42.375 5.0002V5ZM40.75 30.9999H34.25V16.3751C34.25 15.9442 34.0788 15.5308 33.774 15.2261C33.4693 14.9214 33.056 14.7502 32.625 14.7502H18V8.25019H40.75V30.9999Z" fill="black"/>
</svg>
