<svg width="50" height="50" viewBox="0 0 50 50" fill="none" xmlns="http://www.w3.org/2000/svg">
<path d="M43.3333 5H16.6668C16.2248 5 15.8009 5.17559 15.4883 5.48815C15.1757 5.80071 15.0002 6.22463 15.0002 6.66666V15.0002H6.66666C6.22463 15.0002 5.80071 15.1757 5.48815 15.4883C5.17559 15.8009 5 16.2248 5 16.6668V43.3333C5 43.7754 5.17559 44.1993 5.48815 44.5118C5.80071 44.8244 6.22463 45 6.66666 45H33.3332C33.7752 45 34.1991 44.8244 34.5117 44.5118C34.8242 44.1993 34.9998 43.7754 34.9998 43.3333V35.0001H43.3333C43.7754 35.0001 44.1993 34.8245 44.5118 34.5119C44.8244 34.1993 45 33.7754 45 33.3334V6.66687C45 6.22484 44.8244 5.80092 44.5118 5.48836C44.1993 5.1758 43.7754 5.00021 43.3333 5.00021V5ZM31.6665 41.6667H8.33332V18.3335H31.6665V41.6667ZM41.6667 31.6667H34.9998V16.6668C34.9998 16.2248 34.8242 15.8009 34.5117 15.4883C34.1991 15.1757 33.7752 15.0002 33.3332 15.0002H18.3335V8.33352H41.6667V31.6667Z" fill="black"/>
</svg>
