<svg width="50" height="50" viewBox="0 0 50 50" fill="none" xmlns="http://www.w3.org/2000/svg">
<path d="M34.8348 31.1571C34.9555 31.2796 35.0513 31.4249 35.1166 31.5848C35.1819 31.7447 35.2156 31.9162 35.2156 32.0893C35.2156 32.2624 35.1819 32.4338 35.1166 32.5937C35.0513 32.7537 34.9555 32.899 34.8348 33.0214L29.32 38.6133C29.2894 38.6443 29.2573 38.6737 29.2238 38.7014C29.2102 38.713 29.1959 38.7225 29.1819 38.7332C29.1619 38.7486 29.1423 38.7642 29.1216 38.7782C29.1041 38.7901 29.0859 38.8003 29.068 38.8112C29.0496 38.8225 29.0316 38.8342 29.0126 38.8445C28.9939 38.8545 28.9746 38.8632 28.9555 38.8725C28.936 38.8817 28.9172 38.8914 28.8974 38.8997C28.8787 38.9076 28.8597 38.9138 28.8408 38.9207C28.8197 38.9283 28.7989 38.9366 28.7773 38.9432C28.7583 38.9491 28.7389 38.9534 28.7198 38.9581C28.698 38.9638 28.6764 38.97 28.6541 38.9745C28.6314 38.9791 28.6086 38.9817 28.5859 38.985C28.5667 38.9878 28.5478 38.9916 28.5283 38.9934C28.4431 39.0019 28.3572 39.0019 28.2719 38.9934C28.2524 38.9916 28.2336 38.9878 28.2144 38.985C28.1916 38.9817 28.1689 38.9791 28.1461 38.9745C28.1239 38.97 28.1023 38.9638 28.0805 38.9581C28.0613 38.9532 28.0421 38.9491 28.023 38.9433C28.0013 38.9367 27.9807 38.9285 27.9596 38.9207C27.9406 38.9138 27.9216 38.9076 27.9029 38.8997C27.883 38.8914 27.864 38.8815 27.8449 38.8723C27.8257 38.8632 27.8065 38.8545 27.7877 38.8445C27.7688 38.8341 27.7508 38.8225 27.7324 38.8113C27.7145 38.8003 27.6962 38.7901 27.6788 38.7784C27.658 38.7642 27.6383 38.7486 27.6185 38.7332C27.6045 38.7225 27.5901 38.7128 27.5766 38.7014C27.5431 38.6737 27.511 38.6443 27.4804 38.6133L21.9656 33.0214C21.8437 32.8993 21.7468 32.7539 21.6805 32.5936C21.6142 32.4334 21.5798 32.2614 21.5792 32.0877C21.5787 31.9139 21.6121 31.7417 21.6774 31.5811C21.7427 31.4204 21.8388 31.2744 21.9599 31.1516C22.0811 31.0287 22.2251 30.9313 22.3835 30.865C22.5419 30.7988 22.7117 30.7649 22.8831 30.7654C23.0545 30.766 23.2241 30.8008 23.3821 30.8681C23.5402 30.9353 23.6835 31.0335 23.804 31.1571L27.1001 34.4996V24.5C27.1001 24.1504 27.2371 23.8151 27.4809 23.5679C27.7247 23.3207 28.0553 23.1818 28.4001 23.1818C28.7449 23.1818 29.0756 23.3207 29.3194 23.5679C29.5631 23.8151 29.7001 24.1504 29.7001 24.5V34.4996L32.9963 31.1571C33.117 31.0347 33.2603 30.9376 33.418 30.8714C33.5757 30.8051 33.7448 30.771 33.9155 30.771C34.0862 30.771 34.2553 30.8051 34.413 30.8714C34.5707 30.9376 34.7141 31.0347 34.8348 31.1571ZM29.7001 10C27.0442 10.0023 24.4414 10.7537 22.1826 12.1702C19.9238 13.5867 18.0981 15.6124 16.9098 18.0208C15.4954 17.8104 14.0534 17.8979 12.6739 18.2778C11.2943 18.6578 10.0069 19.322 8.89184 20.2291C7.77681 21.1362 6.85819 22.2667 6.19331 23.5499C5.52844 24.8331 5.1316 26.2415 5.02757 27.6871C4.92355 29.1328 5.11456 30.5847 5.5887 31.9522C6.06283 33.3197 6.8099 34.5733 7.78327 35.6349C8.75663 36.6965 9.93537 37.5433 11.2459 38.1222C12.5564 38.7012 13.9706 39 15.4001 39H19.3001C19.6449 39 19.9756 38.8611 20.2194 38.6139C20.4632 38.3667 20.6001 38.0314 20.6001 37.6818C20.6001 37.3322 20.4632 36.9969 20.2194 36.7497C19.9756 36.5025 19.6449 36.3636 19.3001 36.3636H15.4001C13.3315 36.3636 11.3475 35.5304 9.88473 34.0471C8.42195 32.5639 7.60017 30.5522 7.60017 28.4545C7.60017 26.3569 8.42195 24.3452 9.88473 22.862C11.3475 21.3787 13.3315 20.5455 15.4001 20.5455C15.5792 20.5455 15.7576 20.5529 15.9354 20.5652C15.5794 21.8456 15.3993 23.1697 15.4001 24.5C15.4001 24.8496 15.5371 25.1849 15.7809 25.4321C16.0247 25.6793 16.3554 25.8182 16.7001 25.8182C17.0449 25.8182 17.3756 25.6793 17.6194 25.4321C17.8632 25.1849 18.0001 24.8496 18.0001 24.5C18.0003 22.6203 18.441 20.7676 19.2859 19.0944C20.1307 17.4213 21.3556 15.9757 22.8595 14.8767C24.3634 13.7777 26.1033 13.0568 27.9359 12.7733C29.7684 12.4899 31.6412 12.652 33.3998 13.2464C35.1585 13.8408 36.7526 14.8504 38.051 16.1921C39.3494 17.5337 40.3148 19.169 40.8676 20.9631C41.4205 22.7572 41.545 24.6589 41.2309 26.5114C40.9168 28.364 40.1731 30.1143 39.0611 31.6182C38.9571 31.7565 38.8811 31.9142 38.8376 32.0824C38.794 32.2506 38.7837 32.4259 38.8072 32.5981C38.8307 32.7704 38.8876 32.9362 38.9746 33.086C39.0616 33.2359 39.177 33.3668 39.3141 33.4712C39.4512 33.5757 39.6073 33.6516 39.7735 33.6946C39.9397 33.7376 40.1126 33.7468 40.2823 33.7217C40.452 33.6967 40.6151 33.6378 40.7623 33.5486C40.9094 33.4593 41.0377 33.3414 41.1398 33.2016C42.7332 31.0473 43.7036 28.4856 43.9422 25.8036C44.1807 23.1216 43.6781 20.4251 42.4905 18.0165C41.3029 15.6078 39.4772 13.582 37.2182 12.1661C34.9591 10.7503 32.3559 10.0002 29.7001 10Z" fill="black"/>
</svg>
