<svg width="50" height="50" viewBox="0 0 50 50" fill="none" xmlns="http://www.w3.org/2000/svg">
<path d="M19.8262 37C19.632 37.0003 19.4397 36.9616 19.2603 36.8862C19.0809 36.8108 18.918 36.7002 18.7809 36.5607L8.43307 26.0613C8.29579 25.922 8.18689 25.7567 8.11258 25.5747C8.03827 25.3927 8.00002 25.1976 8 25.0007C7.99997 24.6028 8.15568 24.2212 8.43289 23.9399C8.7101 23.6586 9.08609 23.5005 9.47816 23.5004C9.87023 23.5004 10.2463 23.6584 10.5235 23.9397L19.8262 33.3787L39.4762 13.4394C39.7535 13.1581 40.1295 13 40.5216 13C40.9137 13 41.2897 13.158 41.567 13.4393C41.8442 13.7207 42 14.1022 42 14.5001C42 14.8979 41.8443 15.2795 41.567 15.5609L20.8715 36.5607C20.7343 36.7001 20.5714 36.8107 20.392 36.8861C20.2126 36.9615 20.0203 37.0002 19.8262 37Z" fill="black"/>
</svg>
