<svg width="50" height="50" viewBox="0 0 50 50" fill="none" xmlns="http://www.w3.org/2000/svg">
<path d="M43.2272 36C42.9944 36.0003 42.7638 35.9551 42.5486 35.8672C42.3335 35.7792 42.1381 35.6502 41.9737 35.4874L25.5 19.225L9.0263 35.4874C8.69385 35.8156 8.24294 36 7.77277 36C7.3026 36 6.85169 35.8156 6.51923 35.4874C6.18677 35.1592 6 34.7141 6 34.25C6 33.7858 6.18677 33.3407 6.51923 33.0125L24.2465 15.5126C24.4111 15.3501 24.6065 15.2212 24.8216 15.1332C25.0367 15.0453 25.2672 15 25.5 15C25.7328 15 25.9633 15.0453 26.1784 15.1332C26.3935 15.2212 26.5889 15.3501 26.7535 15.5126L44.4807 33.0125C44.7287 33.2572 44.8975 33.5691 44.9659 33.9085C45.0343 34.248 44.9992 34.5999 44.8651 34.9197C44.7309 35.2394 44.5037 35.5128 44.2121 35.7051C43.9206 35.8973 43.5778 36 43.2272 36Z" fill="black"/>
</svg>
