<svg width="50" height="50" viewBox="0 0 50 50" fill="none" xmlns="http://www.w3.org/2000/svg">
<path d="M25.5 36C25.2672 36.0003 25.0365 35.9552 24.8214 35.8672C24.6063 35.7793 24.4109 35.6502 24.2465 35.4875L6.51923 17.9875C6.18677 17.6593 6 17.2142 6 16.75C6 16.2859 6.18677 15.8408 6.51923 15.5126C6.85169 15.1844 7.3026 15 7.77277 15C8.24294 15 8.69385 15.1844 9.02631 15.5126L25.5 31.7751L41.9737 15.5126C42.3061 15.1844 42.7571 15 43.2272 15C43.6974 15 44.1483 15.1844 44.4808 15.5126C44.8132 15.8408 45 16.2859 45 16.75C45 17.2142 44.8132 17.6593 44.4808 17.9875L26.7535 35.4875C26.5891 35.6502 26.3937 35.7793 26.1786 35.8672C25.9635 35.9552 25.7328 36.0003 25.5 36Z" fill="black"/>
</svg>
