<svg width="50" height="50" viewBox="0 0 50 50" fill="none" xmlns="http://www.w3.org/2000/svg">
<path d="M24.5 5C20.6433 5 16.8731 6.14365 13.6664 8.28634C10.4596 10.429 7.96027 13.4745 6.48436 17.0377C5.00845 20.6008 4.62228 24.5216 5.3747 28.3043C6.12711 32.0869 7.9843 35.5615 10.7114 38.2886C13.4385 41.0157 16.9131 42.8729 20.6957 43.6253C24.4784 44.3777 28.3992 43.9916 31.9623 42.5156C35.5255 41.0397 38.571 38.5404 40.7137 35.3336C42.8563 32.1269 44 28.3567 44 24.5C43.9941 19.3301 41.9378 14.3736 38.2821 10.7179C34.6264 7.06219 29.6699 5.00586 24.5 5ZM24.5 41C21.2366 41 18.0465 40.0323 15.3331 38.2192C12.6197 36.4062 10.5048 33.8293 9.256 30.8143C8.00715 27.7993 7.68039 24.4817 8.31705 21.281C8.95371 18.0803 10.5252 15.1403 12.8327 12.8327C15.1403 10.5252 18.0803 8.9537 21.281 8.31704C24.4817 7.68039 27.7993 8.00714 30.8143 9.25599C33.8293 10.5048 36.4062 12.6197 38.2192 15.3331C40.0323 18.0465 41 21.2366 41 24.5C40.995 28.8745 39.2551 33.0685 36.1618 36.1618C33.0685 39.255 28.8746 40.995 24.5 41ZM32.3649 23.2535L25.6149 30.7535C25.4742 30.9098 25.3023 31.0347 25.1102 31.1202C24.9182 31.2058 24.7103 31.25 24.5 31.25C24.2898 31.25 24.0819 31.2058 23.8898 31.1202C23.6977 31.0347 23.5258 30.9098 23.3851 30.7535L16.6351 23.2535C16.371 22.9575 16.2349 22.5689 16.2566 22.1728C16.2782 21.7767 16.4559 21.4053 16.7508 21.1399C17.0457 20.8745 17.4336 20.7367 17.8299 20.7567C18.2261 20.7767 18.5982 20.9528 18.8649 21.2465L24.5 27.5077L30.1351 21.2465C30.2666 21.0991 30.426 20.9792 30.604 20.8935C30.782 20.8079 30.9751 20.7582 31.1723 20.7474C31.3696 20.7367 31.567 20.7649 31.7533 20.8306C31.9395 20.8963 32.111 20.9982 32.2578 21.1303C32.4046 21.2625 32.5239 21.4223 32.6088 21.6007C32.6936 21.779 32.7425 21.9724 32.7524 22.1697C32.7624 22.3669 32.7332 22.5642 32.6667 22.7502C32.6002 22.9362 32.4977 23.1073 32.3649 23.2535Z" fill="black"/>
</svg>
