<svg width="50" height="50" viewBox="0 0 50 50" fill="currentColor" xmlns="http://www.w3.org/2000/svg">
<path d="M14.1667 5C12.3537 5 10.5814 5.53762 9.07394 6.54487C7.56649 7.55211 6.39158 8.98375 5.69777 10.6587C5.00397 12.3337 4.82244 14.1768 5.17614 15.955C5.52984 17.7332 6.40288 19.3665 7.68486 20.6485C8.96684 21.9305 10.6002 22.8035 12.3783 23.1572C14.1565 23.5109 15.9996 23.3294 17.6746 22.6356C19.3496 21.9418 20.7812 20.7668 21.7885 19.2594C22.7957 17.7519 23.3333 15.9797 23.3333 14.1667C23.3306 11.7364 22.3639 9.40639 20.6454 7.6879C18.9269 5.96942 16.597 5.00276 14.1667 5ZM14.1667 20C13.0129 20 11.8851 19.6579 10.9258 19.0169C9.96656 18.3759 9.21888 17.4649 8.77737 16.399C8.33586 15.3331 8.22034 14.1602 8.44542 13.0286C8.6705 11.8971 9.22607 10.8577 10.0419 10.0419C10.8577 9.22607 11.8971 8.6705 13.0286 8.44542C14.1602 8.22034 15.3331 8.33586 16.399 8.77737C17.4649 9.21888 18.3759 9.96656 19.0169 10.9258C19.6579 11.8851 20 13.0129 20 14.1667C19.9983 15.7132 19.3832 17.196 18.2896 18.2896C17.196 19.3832 15.7132 19.9983 14.1667 20ZM35.8333 23.3333C37.6463 23.3333 39.4186 22.7957 40.9261 21.7885C42.4335 20.7812 43.6084 19.3496 44.3022 17.6746C44.996 15.9996 45.1776 14.1565 44.8239 12.3783C44.4702 10.6002 43.5971 8.96684 42.3151 7.68486C41.0332 6.40288 39.3998 5.52984 37.6217 5.17614C35.8435 4.82244 34.0004 5.00397 32.3254 5.69777C30.6504 6.39158 29.2188 7.56649 28.2115 9.07394C27.2043 10.5814 26.6667 12.3537 26.6667 14.1667C26.6694 16.597 27.6361 18.9269 29.3546 20.6454C31.0731 22.3639 33.403 23.3306 35.8333 23.3333ZM35.8333 8.33334C36.9871 8.33334 38.1149 8.67546 39.0742 9.31643C40.0334 9.9574 40.7811 10.8684 41.2226 11.9343C41.6641 13.0003 41.7797 14.1731 41.5546 15.3047C41.3295 16.4363 40.7739 17.4757 39.9581 18.2915C39.1423 19.1073 38.1029 19.6628 36.9714 19.8879C35.8398 20.113 34.6669 19.9975 33.601 19.556C32.5351 19.1145 31.6241 18.3668 30.9831 17.4075C30.3421 16.4482 30 15.3204 30 14.1667C30.0017 12.6201 30.6168 11.1374 31.7104 10.0438C32.804 8.95018 34.2868 8.33505 35.8333 8.33334ZM14.1667 26.6667C12.3537 26.6667 10.5814 27.2043 9.07394 28.2115C7.56649 29.2188 6.39158 30.6504 5.69777 32.3254C5.00397 34.0004 4.82244 35.8435 5.17614 37.6217C5.52984 39.3998 6.40288 41.0332 7.68486 42.3151C8.96684 43.5971 10.6002 44.4702 12.3783 44.8239C14.1565 45.1776 15.9996 44.996 17.6746 44.3022C19.3496 43.6084 20.7812 42.4335 21.7885 40.9261C22.7957 39.4186 23.3333 37.6463 23.3333 35.8333C23.3306 33.403 22.3639 31.0731 20.6454 29.3546C18.9269 27.6361 16.597 26.6694 14.1667 26.6667ZM14.1667 41.6667C13.0129 41.6667 11.8851 41.3245 10.9258 40.6836C9.96656 40.0426 9.21888 39.1315 8.77737 38.0656C8.33586 36.9997 8.22034 35.8269 8.44542 34.6953C8.6705 33.5637 9.22607 32.5243 10.0419 31.7085C10.8577 30.8927 11.8971 30.3372 13.0286 30.1121C14.1602 29.887 15.3331 30.0025 16.399 30.444C17.4649 30.8855 18.3759 31.6332 19.0169 32.5925C19.6579 33.5518 20 34.6796 20 35.8333C19.9983 37.3799 19.3832 38.8626 18.2896 39.9562C17.196 41.0498 15.7132 41.665 14.1667 41.6667ZM35.8333 26.6667C34.0203 26.6667 32.2481 27.2043 30.7406 28.2115C29.2332 29.2188 28.0582 30.6504 27.3644 32.3254C26.6706 34.0004 26.4891 35.8435 26.8428 37.6217C27.1965 39.3998 28.0695 41.0332 29.3515 42.3151C30.6335 43.5971 32.2668 44.4702 34.045 44.8239C35.8232 45.1776 37.6663 44.996 39.3413 44.3022C41.0163 43.6084 42.4479 42.4335 43.4551 40.9261C44.4624 39.4186 45 37.6463 45 35.8333C44.9972 33.403 44.0306 31.0731 42.3121 29.3546C40.5936 27.6361 38.2636 26.6694 35.8333 26.6667ZM35.8333 41.6667C34.6796 41.6667 33.5518 41.3245 32.5925 40.6836C31.6332 40.0426 30.8855 39.1315 30.444 38.0656C30.0025 36.9997 29.887 35.8269 30.1121 34.6953C30.3372 33.5637 30.8927 32.5243 31.7085 31.7085C32.5243 30.8927 33.5637 30.3372 34.6953 30.1121C35.8269 29.887 36.9997 30.0025 38.0656 30.444C39.1315 30.8855 40.0426 31.6332 40.6836 32.5925C41.3245 33.5518 41.6667 34.6796 41.6667 35.8333C41.665 37.3799 41.0498 38.8626 39.9562 39.9562C38.8626 41.0498 37.3799 41.665 35.8333 41.6667Z"/>
</svg>
