<svg width="50" height="50" viewBox="0 0 50 50" fill="none" xmlns="http://www.w3.org/2000/svg">
<path d="M30.3332 10C27.6093 10.0023 24.9396 10.7794 22.6228 12.2445C20.306 13.7096 18.4334 15.8048 17.2142 18.296H17.2134C16.1924 20.3764 15.6619 22.6723 15.6644 25C15.6644 25.3617 15.5239 25.7085 15.2738 25.9642C15.0238 26.22 14.6846 26.3636 14.331 26.3636C13.9774 26.3636 13.6382 26.22 13.3882 25.9642C13.1381 25.7085 12.9977 25.3617 12.9977 25C12.9956 22.6932 13.4361 20.4084 14.2943 18.2751C11.607 18.6313 9.15306 20.0204 7.4309 22.1601C5.70875 24.2998 4.84753 27.0297 5.02219 29.7953C5.19685 32.5609 6.39428 35.1548 8.37127 37.0502C10.3483 38.9456 12.9565 40.0002 15.6664 40H30.3332C34.2231 40 37.9536 38.4196 40.7042 35.6066C43.4548 32.7936 45 28.9782 45 25C45 21.0218 43.4548 17.2064 40.7042 14.3934C37.9536 11.5804 34.2231 10 30.3332 10ZM35.5982 31.088L29.9422 36.8727C29.9108 36.9047 29.8779 36.9352 29.8435 36.9639C29.8295 36.9758 29.8148 36.9857 29.8005 36.9968C29.78 37.0126 29.76 37.0288 29.7387 37.0433C29.7207 37.0556 29.702 37.0661 29.6837 37.0774C29.6648 37.0891 29.6463 37.1012 29.6268 37.1118C29.6077 37.1222 29.5878 37.1313 29.5683 37.1408C29.5483 37.1503 29.529 37.1604 29.5087 37.1689C29.4897 37.1771 29.47 37.1836 29.4507 37.1907C29.429 37.1986 29.4077 37.2071 29.3855 37.2139C29.366 37.2201 29.3462 37.2245 29.3265 37.2294C29.3042 37.2352 29.282 37.2417 29.2592 37.2463C29.236 37.2511 29.2125 37.2538 29.1892 37.2572C29.1695 37.2601 29.1502 37.264 29.1303 37.2659C29.0428 37.2747 28.9546 37.2747 28.867 37.2659C28.8472 37.264 28.8278 37.2601 28.8082 37.2572C28.7848 37.2538 28.7615 37.2511 28.7382 37.2463C28.7153 37.2417 28.6932 37.2352 28.6708 37.2294C28.6512 37.2243 28.6313 37.2201 28.612 37.2141C28.5898 37.2073 28.5683 37.1987 28.5467 37.1907C28.5273 37.1836 28.5078 37.1771 28.4887 37.1689C28.4685 37.1604 28.4488 37.1502 28.4292 37.1406C28.4095 37.1313 28.3898 37.1222 28.3705 37.1118C28.3512 37.1011 28.3327 37.0891 28.3138 37.0776C28.2955 37.0661 28.2767 37.0556 28.2588 37.0435C28.2375 37.0288 28.2173 37.0126 28.197 36.9968C28.1827 36.9857 28.1678 36.9756 28.154 36.9639C28.1196 36.9352 28.0867 36.9047 28.0553 36.8727L22.3991 31.088C22.274 30.9616 22.1747 30.8112 22.1066 30.6455C22.0386 30.4797 22.0033 30.3018 22.0028 30.122C22.0022 29.9423 22.0365 29.7642 22.1035 29.598C22.1705 29.4318 22.269 29.2808 22.3933 29.1536C22.5176 29.0265 22.6652 28.9258 22.8277 28.8572C22.9902 28.7887 23.1643 28.7537 23.3401 28.7542C23.5159 28.7547 23.6898 28.7908 23.8519 28.8604C24.014 28.9299 24.1611 29.0315 24.2846 29.1594L27.6653 32.6171V22.2727C27.6653 21.9111 27.8058 21.5642 28.0558 21.3085C28.3059 21.0528 28.645 20.9091 28.9987 20.9091C29.3523 20.9091 29.6914 21.0528 29.9415 21.3085C30.1915 21.5642 30.332 21.9111 30.332 22.2727V32.6171L33.7127 29.1594C33.9628 28.9037 34.3019 28.76 34.6556 28.76C35.0092 28.76 35.3483 28.9037 35.5984 29.1594C35.8485 29.4152 35.9889 29.762 35.9889 30.1237C35.9889 30.4854 35.8485 30.8322 35.5984 31.088H35.5982Z" fill="black"/>
</svg>
