<svg width="50" height="50" viewBox="0 0 50 50" fill="none" xmlns="http://www.w3.org/2000/svg">
<path d="M36.97 35.495L36.965 35.4898L19.8372 17.8327L19.8289 17.8239L12.6531 10.4262C12.5364 10.3013 12.3942 10.1994 12.235 10.1266C12.0758 10.0538 11.9027 10.0114 11.7259 10.002C11.549 9.99259 11.3719 10.0163 11.2049 10.0718C11.0379 10.1272 10.8844 10.2133 10.7533 10.325C10.6222 10.4367 10.5162 10.5717 10.4415 10.7222C10.3667 10.8728 10.3247 11.0357 10.3179 11.2017C10.3111 11.3676 10.3396 11.5331 10.4018 11.6885C10.4641 11.844 10.5587 11.9863 10.6803 12.1071L17.2206 18.8499L17.2106 18.8697C15.76 18.6708 14.2813 18.7543 12.8668 19.115C11.4522 19.4756 10.1321 20.1057 8.98894 20.9658C7.84578 21.8259 6.90406 22.8977 6.22258 24.1142C5.5411 25.3306 5.13449 26.6657 5.02812 28.036C4.92175 29.4064 5.11791 30.7825 5.60435 32.0786C6.0908 33.3747 6.85709 34.5629 7.85539 35.5691C8.85368 36.5752 10.0626 37.3777 11.4065 37.9265C12.7505 38.4752 14.2008 38.7584 15.6668 38.7584H30.3334C32.1461 38.7618 33.9436 38.4478 35.6332 37.8324L37.3469 39.5991C37.5856 39.8409 37.9167 39.9846 38.268 39.9988C38.6193 40.0131 38.9623 39.8967 39.2225 39.675C39.4826 39.4533 39.6388 39.1443 39.657 38.8152C39.6753 38.4861 39.5541 38.1636 39.3199 37.9179L36.97 35.495ZM30.3334 36.2591H15.6668C13.545 36.2591 11.5102 35.4692 10.0099 34.0631C8.50964 32.657 7.66679 30.7499 7.66679 28.7614C7.66679 26.7729 8.50964 24.8658 10.0099 23.4597C11.5102 22.0536 13.545 21.2637 15.6668 21.2637C15.8508 21.2637 16.0341 21.2707 16.2169 21.2824C15.8523 22.4963 15.6672 23.7514 15.6668 25.0125C15.6668 25.344 15.8072 25.6618 16.0573 25.8962C16.3073 26.1305 16.6465 26.2622 17.0001 26.2622C17.3537 26.2622 17.6928 26.1305 17.9429 25.8962C18.1929 25.6618 18.3334 25.344 18.3334 25.0125C18.3335 23.5933 18.6198 22.1868 19.1773 20.8672L33.6772 35.8158C32.5906 36.111 31.4647 36.2603 30.3334 36.2591V36.2591ZM45 25.0125C45.0023 28.3897 43.6758 31.6491 41.2743 34.167C41.0387 34.4141 40.708 34.5634 40.355 34.5821C40.0019 34.6007 39.6554 34.4871 39.3917 34.2663C39.128 34.0455 38.9687 33.7355 38.9488 33.4046C38.9289 33.0737 39.0501 32.749 39.2857 32.5018C41.2606 30.4276 42.3459 27.7415 42.3322 24.9615C42.3185 22.1816 41.2068 19.5049 39.2116 17.4479C37.2164 15.3908 34.4791 14.0992 31.5277 13.8221C28.5762 13.5451 25.6199 14.3023 23.2291 15.9476C22.9441 16.1403 22.5894 16.2197 22.2423 16.1686C21.8951 16.1175 21.5836 15.94 21.3753 15.6747C21.167 15.4095 21.0789 15.0779 21.13 14.7521C21.1812 14.4262 21.3676 14.1325 21.6486 13.9348C23.8338 12.4303 26.4213 11.523 29.1235 11.3136C31.8258 11.1042 34.5371 11.6009 36.9564 12.7485C39.3756 13.8962 41.408 15.6499 42.828 17.8148C44.2479 19.9798 44.9998 22.4713 45 25.0125V25.0125Z" fill="black"/>
</svg>
