<svg width="50" height="50" viewBox="0 0 50 50" fill="none" xmlns="http://www.w3.org/2000/svg">
<path d="M35.3723 18.8492C35.6774 19.1689 35.8431 19.5968 35.8327 20.0387C35.8224 20.4806 35.637 20.9002 35.3173 21.2054L23.0952 32.8721C22.7852 33.168 22.3731 33.3332 21.9445 33.3332C21.5159 33.3332 21.1038 33.1682 20.7937 32.8723L14.6825 27.039C14.5229 26.8882 14.3947 26.7073 14.3052 26.5068C14.2158 26.3063 14.1668 26.0901 14.1611 25.8706C14.1555 25.6511 14.1932 25.4326 14.2723 25.2278C14.3513 25.0229 14.47 24.8357 14.6216 24.6769C14.7732 24.518 14.9547 24.3907 15.1556 24.3023C15.3566 24.2138 15.573 24.1659 15.7926 24.1613C16.0121 24.1567 16.2303 24.1956 16.4348 24.2756C16.6393 24.3557 16.8259 24.4753 16.984 24.6277L21.9444 29.3627L33.0158 18.7944C33.3356 18.4892 33.7634 18.3235 34.2053 18.3338C34.6472 18.3441 35.0669 18.5295 35.3721 18.8492H35.3723ZM45 8.33333V41.6667C44.999 42.5504 44.6475 43.3977 44.0226 44.0226C43.3977 44.6475 42.5504 44.999 41.6667 45H8.33333C7.44958 44.999 6.60231 44.6475 5.97741 44.0226C5.3525 43.3977 5.00099 42.5504 5 41.6667V8.33333C5.00099 7.44958 5.3525 6.60231 5.97741 5.97741C6.60231 5.3525 7.44958 5.00099 8.33333 5H41.6667C42.5504 5.00099 43.3977 5.3525 44.0226 5.97741C44.6475 6.60231 44.999 7.44958 45 8.33333ZM41.6687 41.6667L41.6667 8.33333H8.33333V41.6667H41.6667H41.6687Z" fill="black"/>
</svg>
