<svg width="50" height="50" viewBox="0 0 50 50" fill="none" xmlns="http://www.w3.org/2000/svg">
<path d="M25 5C21.0444 5 17.1776 6.17298 13.8886 8.37061C10.5996 10.5682 8.03617 13.6918 6.52242 17.3463C5.00867 21.0008 4.6126 25.0222 5.3843 28.9018C6.15601 32.7814 8.06082 36.3451 10.8579 39.1421C13.6549 41.9392 17.2186 43.844 21.0982 44.6157C24.9778 45.3874 28.9991 44.9913 32.6537 43.4776C36.3082 41.9638 39.4318 39.4004 41.6294 36.1114C43.827 32.8224 45 28.9556 45 25C44.994 19.6975 42.8849 14.6139 39.1355 10.8645C35.3861 7.11507 30.3025 5.00601 25 5ZM35.0673 16.9469L29.6644 28.8973C29.5059 29.2477 29.222 29.5261 28.8685 29.6775L17.446 34.5731C17.1634 34.6941 16.851 34.7278 16.5491 34.6696C16.2472 34.6115 15.9696 34.4642 15.7523 34.2468C15.5349 34.0294 15.3876 33.7518 15.3294 33.45C15.2713 33.1481 15.3049 32.8357 15.426 32.5531L20.3212 21.1306C20.4723 20.7782 20.7496 20.495 21.0987 20.3363L33.0287 14.9129C33.3135 14.7834 33.6311 14.7439 33.939 14.7996C34.2468 14.8552 34.5305 15.0035 34.7519 15.2245C34.9734 15.4455 35.1222 15.7288 35.1785 16.0366C35.2349 16.3444 35.196 16.662 35.0671 16.9471L35.0673 16.9469Z" fill="black"/>
</svg>
