<svg width="50" height="50" viewBox="0 0 50 50" fill="none" xmlns="http://www.w3.org/2000/svg">
<path d="M41.6667 5H8.33333C7.44955 5.00088 6.60222 5.35236 5.97729 5.97729C5.35236 6.60222 5.00088 7.44955 5 8.33333V41.6667C5.00088 42.5504 5.35236 43.3978 5.97729 44.0227C6.60222 44.6476 7.44955 44.9991 8.33333 45H41.6667C42.5504 44.9991 43.3978 44.6476 44.0227 44.0227C44.6476 43.3978 44.9991 42.5504 45 41.6667V8.33333C44.9991 7.44955 44.6476 6.60222 44.0227 5.97729C43.3978 5.35236 42.5504 5.00088 41.6667 5ZM35.3175 21.2044L23.0942 32.871C22.7845 33.1677 22.3722 33.3333 21.9434 33.3333C21.5146 33.3333 21.1024 33.1677 20.7927 32.871L14.6827 27.0377C14.5219 26.8872 14.3925 26.7064 14.302 26.5056C14.2116 26.3048 14.1618 26.0881 14.1557 25.8679C14.1495 25.6478 14.187 25.4286 14.2661 25.2231C14.3452 25.0175 14.4643 24.8297 14.6164 24.6705C14.7685 24.5113 14.9507 24.3838 15.1525 24.2954C15.3542 24.2071 15.5714 24.1596 15.7916 24.1557C16.0118 24.1518 16.2306 24.1917 16.4353 24.2729C16.64 24.3541 16.8265 24.4752 16.9842 24.629L21.9435 29.3621L33.016 18.7954C33.174 18.6432 33.3605 18.5236 33.5647 18.4437C33.769 18.3637 33.9871 18.3249 34.2064 18.3294C34.4257 18.3339 34.642 18.3817 34.8428 18.47C35.0436 18.5584 35.225 18.6855 35.3765 18.8441C35.5281 19.0027 35.6468 19.1897 35.7259 19.3944C35.8049 19.599 35.8428 19.8172 35.8374 20.0365C35.8319 20.2558 35.7831 20.4719 35.6939 20.6723C35.6047 20.8727 35.4768 21.0535 35.3175 21.2044Z" fill="black"/>
</svg>
