<svg width="50" height="50" viewBox="0 0 50 50" fill="none" xmlns="http://www.w3.org/2000/svg">
<path d="M25 5C21.0444 5 17.1776 6.17298 13.8886 8.37061C10.5996 10.5682 8.03617 13.6918 6.52242 17.3463C5.00867 21.0008 4.6126 25.0222 5.3843 28.9018C6.15601 32.7814 8.06082 36.3451 10.8579 39.1421C13.6549 41.9392 17.2186 43.844 21.0982 44.6157C24.9778 45.3874 28.9991 44.9913 32.6537 43.4776C36.3082 41.9638 39.4318 39.4004 41.6294 36.1114C43.827 32.8224 45 28.9556 45 25C44.994 19.6975 42.8849 14.6139 39.1355 10.8645C35.3861 7.11507 30.3025 5.00601 25 5ZM25 41.9231C21.6529 41.9231 18.381 40.9305 15.598 39.071C12.8151 37.2115 10.646 34.5685 9.36512 31.4762C8.08426 28.3839 7.74912 24.9812 8.4021 21.6985C9.05508 18.4157 10.6669 15.4003 13.0336 13.0336C15.4003 10.6668 18.4157 9.05508 21.6985 8.40209C24.9812 7.74911 28.3839 8.08425 31.4762 9.36511C34.5685 10.646 37.2115 12.8151 39.071 15.598C40.9306 18.381 41.9231 21.6529 41.9231 25C41.918 29.4867 40.1334 33.7882 36.9608 36.9608C33.7882 40.1334 29.4867 41.918 25 41.9231ZM33.0287 14.9127L21.0987 20.336C20.7496 20.4946 20.4723 20.7778 20.3212 21.1302L15.426 32.5529C15.3049 32.8355 15.2713 33.1479 15.3294 33.4498C15.3876 33.7517 15.5349 34.0292 15.7523 34.2466C15.9696 34.464 16.2472 34.6113 16.5491 34.6694C16.851 34.7276 17.1634 34.694 17.446 34.5729L28.8685 29.6775C29.222 29.5261 29.5059 29.2477 29.6644 28.8973L35.0671 16.9469C35.196 16.6618 35.2349 16.3442 35.1785 16.0364C35.1222 15.7286 34.9734 15.4453 34.7519 15.2243C34.5305 15.0033 34.2468 14.8551 33.939 14.7994C33.6311 14.7437 33.3135 14.7832 33.0287 14.9127ZM27.1069 27.085L19.7692 30.2298L22.9144 22.8904L30.5785 19.4063L27.1069 27.085Z" fill="black"/>
</svg>
