<svg width="50" height="50" viewBox="0 0 50 50" fill="none" xmlns="http://www.w3.org/2000/svg">
<path d="M25 5C21.0444 5 17.1776 6.17298 13.8886 8.37061C10.5996 10.5682 8.03617 13.6918 6.52242 17.3463C5.00867 21.0008 4.6126 25.0222 5.3843 28.9018C6.15601 32.7814 8.06082 36.3451 10.8579 39.1421C13.6549 41.9392 17.2186 43.844 21.0982 44.6157C24.9778 45.3874 28.9991 44.9913 32.6537 43.4776C36.3082 41.9638 39.4318 39.4004 41.6294 36.1114C43.827 32.8224 45 28.9556 45 25C44.9939 19.6975 42.8848 14.614 39.1354 10.8646C35.386 7.11521 30.3025 5.00611 25 5ZM33.0664 23.7215L26.1433 31.4138C25.9991 31.5741 25.8228 31.7023 25.6258 31.79C25.4288 31.8778 25.2156 31.9231 25 31.9231C24.7844 31.9231 24.5712 31.8778 24.3742 31.79C24.1773 31.7023 24.0009 31.5741 23.8567 31.4138L16.9337 23.7215C16.7951 23.572 16.6876 23.3964 16.6175 23.2049C16.5474 23.0135 16.5161 22.81 16.5253 22.6063C16.5346 22.4026 16.5842 22.2028 16.6713 22.0185C16.7585 21.8342 16.8814 21.669 17.0329 21.5326C17.1844 21.3962 17.3615 21.2912 17.554 21.2239C17.7464 21.1565 17.9503 21.1281 18.1538 21.1402C18.3574 21.1524 18.5564 21.2048 18.7395 21.2946C18.9226 21.3844 19.086 21.5096 19.2202 21.6631L25 28.0846L30.7798 21.6635C30.9139 21.5094 31.0772 21.3835 31.2604 21.2932C31.4436 21.2029 31.6429 21.15 31.8468 21.1376C32.0506 21.1251 32.2549 21.1534 32.4477 21.2207C32.6406 21.2881 32.818 21.3931 32.9698 21.5298C33.1216 21.6664 33.2447 21.8319 33.3318 22.0166C33.419 22.2013 33.4685 22.4015 33.4775 22.6055C33.4865 22.8095 33.4548 23.0133 33.3842 23.205C33.3136 23.3966 33.2055 23.5723 33.0664 23.7217V23.7215Z" fill="black"/>
</svg>
