<svg width="50" height="50" viewBox="0 0 50 50" fill="none" xmlns="http://www.w3.org/2000/svg">
<path d="M24.5 5C20.6433 5 16.8731 6.14365 13.6664 8.28634C10.4596 10.429 7.96027 13.4745 6.48436 17.0377C5.00845 20.6008 4.62228 24.5216 5.3747 28.3043C6.12711 32.0869 7.9843 35.5615 10.7114 38.2886C13.4385 41.0157 16.9131 42.8729 20.6957 43.6253C24.4784 44.3777 28.3992 43.9916 31.9623 42.5156C35.5255 41.0397 38.571 38.5404 40.7137 35.3336C42.8563 32.1269 44 28.3567 44 24.5C43.994 19.3301 41.9377 14.3737 38.282 10.718C34.6263 7.06233 29.6699 5.00595 24.5 5ZM28.5035 30.1353C28.6531 30.2662 28.7752 30.4255 28.8628 30.604C28.9503 30.7825 29.0014 30.9766 29.0133 31.175C29.0251 31.3734 28.9974 31.5722 28.9317 31.7599C28.866 31.9475 28.7637 32.1202 28.6307 32.2679C28.4977 32.4157 28.3367 32.5355 28.157 32.6205C27.9773 32.7054 27.7824 32.7538 27.5839 32.7628C27.3853 32.7718 27.1869 32.7412 27.0002 32.6729C26.8135 32.6045 26.6423 32.4998 26.4965 32.3647L18.9965 25.6147C18.8402 25.4741 18.7153 25.3022 18.6297 25.1101C18.5442 24.9181 18.5 24.7102 18.5 24.5C18.5 24.2898 18.5442 24.0819 18.6297 23.8899C18.7153 23.6978 18.8402 23.5259 18.9965 23.3853L26.4965 16.6353C26.6423 16.5002 26.8135 16.3954 27.0002 16.3271C27.1869 16.2588 27.3853 16.2282 27.5839 16.2372C27.7824 16.2462 27.9773 16.2946 28.157 16.3795C28.3367 16.4645 28.4977 16.5843 28.6307 16.7321C28.7637 16.8798 28.866 17.0525 28.9317 17.2401C28.9974 17.4277 29.0251 17.6266 29.0133 17.825C29.0014 18.0234 28.9503 18.2175 28.8628 18.396C28.7752 18.5745 28.6531 18.7338 28.5035 18.8647L22.2425 24.5L28.5035 30.1353Z" fill="black"/>
</svg>
