<svg width="50" height="50" viewBox="0 0 50 50" fill="none" xmlns="http://www.w3.org/2000/svg">
<path d="M24.5 5C20.6433 5 16.8731 6.14365 13.6664 8.28634C10.4596 10.429 7.96027 13.4745 6.48436 17.0377C5.00845 20.6008 4.62228 24.5216 5.3747 28.3043C6.12711 32.0869 7.9843 35.5615 10.7114 38.2886C13.4385 41.0157 16.9131 42.8729 20.6957 43.6253C24.4784 44.3777 28.3992 43.9916 31.9623 42.5156C35.5255 41.0397 38.571 38.5404 40.7137 35.3336C42.8563 32.1269 44 28.3567 44 24.5C43.9941 19.3301 41.9378 14.3736 38.2821 10.7179C34.6264 7.06219 29.6699 5.00586 24.5 5ZM24.5 41C21.2366 41 18.0465 40.0323 15.3331 38.2192C12.6197 36.4062 10.5048 33.8293 9.256 30.8143C8.00715 27.7993 7.68039 24.4817 8.31705 21.281C8.95371 18.0803 10.5252 15.1403 12.8327 12.8327C15.1403 10.5252 18.0803 8.9537 21.281 8.31704C24.4817 7.68039 27.7993 8.00714 30.8143 9.25599C33.8293 10.5048 36.4062 12.6197 38.2192 15.3331C40.0323 18.0465 41 21.2366 41 24.5C40.995 28.8745 39.2551 33.0685 36.1618 36.1618C33.0685 39.255 28.8746 40.995 24.5 41ZM30.7535 23.3851C30.9098 23.5258 31.0347 23.6977 31.1203 23.8898C31.2058 24.0818 31.25 24.2897 31.25 24.5C31.25 24.7102 31.2058 24.9181 31.1203 25.1102C31.0347 25.3023 30.9098 25.4742 30.7535 25.6149L23.2535 32.3649C22.9575 32.629 22.5689 32.7651 22.1728 32.7434C21.7767 32.7218 21.4053 32.5441 21.1399 32.2492C20.8745 31.9543 20.7367 31.5664 20.7567 31.1701C20.7767 30.7739 20.9528 30.4018 21.2465 30.1351L27.5077 24.5L21.2465 18.8649C21.0991 18.7334 20.9792 18.574 20.8935 18.396C20.8079 18.218 20.7583 18.0249 20.7475 17.8277C20.7367 17.6304 20.7649 17.433 20.8306 17.2467C20.8963 17.0605 20.9982 16.889 21.1303 16.7422C21.2625 16.5954 21.4223 16.4761 21.6007 16.3912C21.779 16.3064 21.9724 16.2575 22.1697 16.2476C22.367 16.2376 22.5642 16.2668 22.7502 16.3333C22.9362 16.3998 23.1073 16.5023 23.2535 16.6351L30.7535 23.3851Z" fill="black"/>
</svg>
