<svg width="50" height="50" viewBox="0 0 50 50" fill="none" xmlns="http://www.w3.org/2000/svg">
<path d="M30.3329 10C27.609 10.0023 24.9393 10.7794 22.6225 12.2445C20.3056 13.7096 18.4329 15.8048 17.2138 18.296C15.7631 18.0787 14.2843 18.1695 12.8695 18.5628C11.4547 18.956 10.1344 19.6433 8.9909 20.5818C7.84745 21.5202 6.90542 22.6897 6.22363 24.0171C5.54184 25.3445 5.13491 26.8014 5.02826 28.2968C4.92161 29.7922 5.11752 31.2941 5.60377 32.7086C6.09001 34.1232 6.85615 35.42 7.85436 36.5182C8.85256 37.6164 10.0614 38.4924 11.4054 39.0914C12.7494 39.6905 14.1998 39.9998 15.6659 40H30.3329C34.2229 40 37.9535 38.4196 40.7041 35.6066C43.4547 32.7936 45 28.9782 45 25C45 21.0218 43.4547 17.2064 40.7041 14.3934C37.9535 11.5804 34.2229 10 30.3329 10ZM30.3329 37.2727H15.6659C13.5441 37.2727 11.5092 36.4107 10.0089 34.8763C8.50856 33.3419 7.66568 31.2609 7.66568 29.0909C7.66568 26.921 8.50856 24.8399 10.0089 23.3055C11.5092 21.7711 13.5441 20.9091 15.6659 20.9091C15.8495 20.9091 16.0325 20.9154 16.2149 20.928C15.8496 22.253 15.6648 23.6233 15.6659 25C15.6659 25.3617 15.8064 25.7085 16.0564 25.9642C16.3065 26.22 16.6456 26.3636 16.9993 26.3636C17.3529 26.3636 17.692 26.22 17.9421 25.9642C18.1922 25.7085 18.3326 25.3617 18.3326 25C18.3326 22.5727 19.0364 20.1999 20.355 18.1816C21.6737 16.1634 23.5479 14.5904 25.7406 13.6615C27.9334 12.7326 30.3463 12.4895 32.6741 12.9631C35.0019 13.4366 37.1402 14.6055 38.8185 16.3219C40.4967 18.0382 41.6396 20.225 42.1027 22.6057C42.5657 24.9864 42.3281 27.454 41.4198 29.6966C40.5115 31.9391 38.9734 33.8559 37 35.2044C35.0265 36.5529 32.7064 37.2727 30.3329 37.2727ZM36.6093 21.9903C36.7331 22.1169 36.8313 22.2672 36.8983 22.4327C36.9653 22.5981 36.9998 22.7755 36.9998 22.9545C36.9998 23.1336 36.9653 23.311 36.8983 23.4764C36.8313 23.6419 36.7331 23.7922 36.6093 23.9188L28.6091 32.1006C28.4853 32.2273 28.3383 32.3277 28.1765 32.3962C28.0147 32.4648 27.8413 32.5 27.6662 32.5C27.4911 32.5 27.3177 32.4648 27.1559 32.3962C26.9942 32.3277 26.8472 32.2273 26.7234 32.1006L22.7232 28.0097C22.5994 27.8831 22.5012 27.7328 22.4342 27.5673C22.3672 27.4019 22.3327 27.2245 22.3327 27.0455C22.3327 26.8664 22.3672 26.689 22.4342 26.5236C22.5012 26.3582 22.5994 26.2078 22.7232 26.0812C22.9733 25.8255 23.3125 25.6818 23.6661 25.6818C23.8412 25.6818 24.0146 25.7171 24.1764 25.7856C24.3382 25.8541 24.4851 25.9546 24.609 26.0812L27.6662 29.208L34.7236 21.9903C34.8474 21.8637 34.9944 21.7632 35.1561 21.6947C35.3179 21.6261 35.4913 21.5909 35.6664 21.5909C35.8415 21.5909 36.0149 21.6261 36.1767 21.6947C36.3385 21.7632 36.4855 21.8637 36.6093 21.9903Z" fill="black"/>
</svg>
