<svg width="50" height="50" viewBox="0 0 50 50" fill="none" xmlns="http://www.w3.org/2000/svg">
<path d="M39.319 37.9104C39.5569 38.1556 39.6811 38.4792 39.6642 38.8102C39.6474 39.1412 39.4909 39.4523 39.2291 39.6752C38.9674 39.898 38.6219 40.0144 38.2686 39.9986C37.9153 39.9828 37.5832 39.8362 37.3453 39.591L35.6314 37.8248C33.9415 38.4401 32.1437 38.7541 30.3306 38.7507H15.661C14.1954 38.7497 12.7458 38.4658 11.4024 37.9168C10.0591 37.3678 8.85097 36.5653 7.85332 35.5596C6.85567 34.5538 6.08993 33.3663 5.60385 32.071C5.11778 30.7757 4.92179 29.4006 5.02811 28.0312C5.13444 26.6619 5.54079 25.3277 6.22184 24.112C6.90289 22.8963 7.84401 21.825 8.98653 20.9651C10.129 20.1052 11.4484 19.475 12.8624 19.1138C14.2764 18.7527 15.7547 18.6683 17.205 18.866L17.2152 18.8476L10.6736 12.1062C10.552 11.9854 10.4574 11.8432 10.3952 11.6878C10.3331 11.5324 10.3045 11.3669 10.3114 11.2011C10.3182 11.0352 10.3603 10.8723 10.4351 10.7219C10.5099 10.5714 10.6159 10.4365 10.747 10.3248C10.8781 10.2132 11.0316 10.1272 11.1986 10.0717C11.3656 10.0163 11.5427 9.9926 11.7196 10.002C11.8965 10.0114 12.0696 10.0538 12.2288 10.1265C12.388 10.1993 12.5302 10.3011 12.6469 10.4259L39.319 37.9104ZM30.3306 11.2661C27.2044 11.2582 24.1586 12.1935 21.6439 13.9333C21.4935 14.037 21.368 14.1691 21.2756 14.3212C21.1831 14.4732 21.1258 14.6417 21.1073 14.8157C21.0888 14.9898 21.1096 15.1656 21.1682 15.3317C21.2268 15.4978 21.322 15.6505 21.4477 15.7799L39.2923 34.1686C39.4173 34.2974 39.5697 34.4003 39.7396 34.4707C39.9096 34.5411 40.0933 34.5774 40.2792 34.5774H40.2848C40.4716 34.5766 40.6561 34.5391 40.8265 34.4673C40.9968 34.3955 41.1491 34.2909 41.2735 34.1604C43.1587 32.1823 44.3927 29.7355 44.8266 27.115C45.2605 24.4946 44.8759 21.8126 43.7191 19.3923C42.5623 16.9721 40.6827 14.9171 38.3071 13.4752C35.9315 12.0333 33.1612 11.2661 30.3306 11.2661V11.2661Z" fill="black"/>
</svg>
