<svg width="50" height="50" viewBox="0 0 50 50" fill="none" xmlns="http://www.w3.org/2000/svg">
<path d="M15 7.72733V42.2727C15 42.6143 15.1026 42.9483 15.2949 43.2323C15.4872 43.5164 15.7605 43.7378 16.0803 43.8685C16.4001 43.9993 16.7519 44.0335 17.0914 43.9668C17.4309 43.9002 17.7427 43.7356 17.9875 43.4941L35.4874 26.2214C35.6499 26.061 35.7788 25.8706 35.8668 25.661C35.9547 25.4515 36 25.2268 36 25C36 24.7732 35.9547 24.5486 35.8668 24.339C35.7788 24.1294 35.6499 23.939 35.4874 23.7786L17.9875 6.50594C17.7427 6.26436 17.4309 6.09985 17.0914 6.03319C16.7519 5.96654 16.4001 6.00075 16.0803 6.13148C15.7605 6.26222 15.4872 6.48362 15.2949 6.76768C15.1026 7.05174 15 7.3857 15 7.72733Z" fill="black"/>
</svg>
