<svg width="50" height="50" viewBox="0 0 50 50" fill="none" xmlns="http://www.w3.org/2000/svg">
<path d="M24.5 5C20.6433 5 16.8731 6.14365 13.6664 8.28634C10.4596 10.429 7.96027 13.4745 6.48436 17.0377C5.00845 20.6008 4.62228 24.5216 5.3747 28.3043C6.12711 32.0869 7.9843 35.5615 10.7114 38.2886C13.4385 41.0157 16.9131 42.8729 20.6957 43.6253C24.4784 44.3777 28.3992 43.9916 31.9623 42.5156C35.5255 41.0397 38.571 38.5404 40.7137 35.3336C42.8563 32.1269 44 28.3567 44 24.5C43.994 19.3301 41.9377 14.3737 38.282 10.718C34.6263 7.06233 29.6699 5.00595 24.5 5ZM30.7535 25.6147L23.2535 32.3647C23.1077 32.4998 22.9365 32.6045 22.7498 32.6729C22.5631 32.7412 22.3647 32.7718 22.1661 32.7628C21.9676 32.7538 21.7728 32.7054 21.593 32.6205C21.4133 32.5355 21.2523 32.4157 21.1193 32.2679C20.9863 32.1202 20.884 31.9475 20.8183 31.7599C20.7526 31.5722 20.7249 31.3734 20.7367 31.175C20.7486 30.9766 20.7997 30.7825 20.8872 30.604C20.9748 30.4255 21.0969 30.2662 21.2465 30.1353L27.5075 24.5L21.2469 18.8647C20.959 18.5966 20.788 18.226 20.7707 17.833C20.7533 17.44 20.8911 17.0559 21.1544 16.7635C21.4176 16.4711 21.7851 16.2938 22.1778 16.2698C22.5705 16.2458 22.9569 16.3771 23.2537 16.6353L30.7537 23.3853C30.91 23.5259 31.0349 23.6978 31.1205 23.8899C31.206 24.0819 31.2502 24.2898 31.2502 24.5C31.2502 24.7102 31.206 24.9181 31.1205 25.1101C31.0349 25.3022 30.91 25.4741 30.7537 25.6147H30.7535Z" fill="black"/>
</svg>
