<svg width="50" height="50" viewBox="0 0 50 50" fill="none" xmlns="http://www.w3.org/2000/svg">
<path d="M25 5C14.9065 5 7 9.61212 7 15.5V33.5C7 39.3879 14.9065 44 25 44C35.0935 44 43 39.3879 43 33.5V15.5C43 9.61212 35.0935 5 25 5ZM40 24.5C40 26.3032 38.5234 28.1429 35.9491 29.5471C33.049 31.1289 29.1606 32 25 32C20.8394 32 16.951 31.1289 14.0509 29.5471C11.4766 28.1427 10 26.3034 10 24.5V21.3792C13.1988 24.1852 18.6689 26 25 26C31.3311 26 36.8013 24.185 40 21.3792V24.5ZM14.0509 10.4529C16.951 8.87113 20.8394 8 25 8C29.1606 8 33.049 8.87113 35.9491 10.4529C38.5234 11.8573 40 13.6966 40 15.5C40 17.3034 38.5234 19.1429 35.9491 20.5471C33.049 22.1289 29.1606 23 25 23C20.8394 23 16.951 22.1289 14.0509 20.5471C11.4766 19.1427 10 17.3034 10 15.5C10 13.6966 11.4766 11.8571 14.0509 10.4529ZM35.9491 38.5471C33.049 40.1289 29.1606 41 25 41C20.8394 41 16.951 40.1289 14.0509 38.5471C11.4766 37.1427 10 35.3034 10 33.5V30.3792C13.1988 33.1852 18.6689 35 25 35C31.3311 35 36.8013 33.185 40 30.3792V33.5C40 35.3032 38.5234 37.1429 35.9491 38.5471Z" fill="black"/>
</svg>
