<svg width="50" height="50" viewBox="0 0 50 50" fill="none" xmlns="http://www.w3.org/2000/svg">
<path d="M14.6875 25.3438C14.6875 25.8073 14.55 26.2604 14.2925 26.6459C14.035 27.0313 13.6689 27.3317 13.2407 27.5091C12.8124 27.6865 12.3412 27.7329 11.8865 27.6425C11.4319 27.552 11.0142 27.3288 10.6865 27.001C10.3587 26.6733 10.1355 26.2556 10.045 25.801C9.9546 25.3463 10.001 24.8751 10.1784 24.4468C10.3558 24.0186 10.6562 23.6525 11.0416 23.395C11.4271 23.1375 11.8802 23 12.3438 23C12.9651 23.0007 13.5609 23.2479 14.0002 23.6873C14.4396 24.1267 14.6868 24.7224 14.6875 25.3438ZM37.3438 23C36.8802 23 36.4271 23.1375 36.0416 23.395C35.6562 23.6525 35.3558 24.0186 35.1784 24.4468C35.001 24.8751 34.9546 25.3463 35.045 25.801C35.1355 26.2556 35.3587 26.6733 35.6865 27.001C36.0142 27.3288 36.4319 27.552 36.8865 27.6425C37.3412 27.7329 37.8124 27.6865 38.2407 27.5091C38.6689 27.3317 39.035 27.0313 39.2925 26.6459C39.55 26.2604 39.6875 25.8073 39.6875 25.3438C39.6868 24.7224 39.4396 24.1267 39.0002 23.6873C38.5609 23.2479 37.9651 23.0007 37.3438 23ZM24.8438 23C24.3802 23 23.9271 23.1375 23.5416 23.395C23.1562 23.6525 22.8558 24.0186 22.6784 24.4468C22.501 24.8751 22.4546 25.3463 22.545 25.801C22.6355 26.2556 22.8587 26.6733 23.1865 27.001C23.5142 27.3288 23.9319 27.552 24.3865 27.6425C24.8412 27.7329 25.3124 27.6865 25.7407 27.5091C26.1689 27.3317 26.535 27.0313 26.7925 26.6459C27.05 26.2604 27.1875 25.8073 27.1875 25.3438C27.1868 24.7224 26.9396 24.1267 26.5002 23.6873C26.0609 23.2479 25.4651 23.0007 24.8438 23Z" fill="black"/>
</svg>
