<svg width="50" height="50" viewBox="0 0 50 50" fill="none" xmlns="http://www.w3.org/2000/svg">
<path d="M42.4821 40.8585H25.4653L32.3648 34.0395L32.368 34.0368L32.3708 34.0335L43.6059 22.9299C44.4986 22.0454 45 20.8471 45 19.5978C45 18.3485 44.4986 17.1501 43.6059 16.2656L34.6155 7.38017C33.7213 6.49646 32.5086 6 31.2441 6C29.9795 6 28.7668 6.49646 27.8727 7.38017L16.6364 18.4853L16.6344 18.4871L16.6326 18.489L5.39647 29.594C4.50232 30.4777 4 31.6762 4 32.926C4 34.1757 4.50232 35.3743 5.39647 36.258L12.7648 43.54C13.0629 43.8345 13.467 43.9999 13.8885 44H42.4821C42.9036 44 43.3078 43.8345 43.6059 43.5399C43.9039 43.2454 44.0714 42.8458 44.0714 42.4293C44.0714 42.0127 43.9039 41.6132 43.6059 41.3186C43.3078 41.024 42.9036 40.8585 42.4821 40.8585ZM30.1203 9.60178C30.2679 9.45587 30.4431 9.34013 30.6359 9.26116C30.8287 9.18219 31.0353 9.14155 31.2441 9.14155C31.4528 9.14155 31.6594 9.18219 31.8523 9.26116C32.0451 9.34013 32.2203 9.45587 32.3678 9.60178L41.3582 18.4873C41.6558 18.7821 41.8229 19.1815 41.8229 19.5979C41.8229 20.0143 41.6558 20.4137 41.3582 20.7085L31.2442 30.7045L20.0063 19.5978L30.1203 9.60178ZM14.5468 40.8585L7.64433 34.0366C7.4967 33.8908 7.37959 33.7177 7.29968 33.5271C7.21978 33.3365 7.17866 33.1323 7.17866 32.926C7.17866 32.7197 7.21978 32.5155 7.29968 32.3249C7.37959 32.1343 7.4967 31.9612 7.64433 31.8154L17.7584 21.8194L28.9963 32.9261L20.9702 40.8585H14.5468Z" fill="black"/>
</svg>
