<svg width="50" height="50" viewBox="0 0 50 50" fill="none" xmlns="http://www.w3.org/2000/svg">
<path d="M26.4545 19.8148H23.5455V10.0575L18.392 15.3049C18.2575 15.4449 18.097 15.5565 17.9199 15.6329C17.7428 15.7094 17.5525 15.7494 17.3601 15.7504C17.1678 15.7515 16.9771 15.7137 16.7991 15.6392C16.6212 15.5647 16.4595 15.455 16.3235 15.3165C16.1875 15.1779 16.0798 15.0132 16.0067 14.832C15.9336 14.6507 15.8965 14.4565 15.8976 14.2606C15.8987 14.0646 15.9379 13.8708 16.0131 13.6905C16.0882 13.5101 16.1977 13.3467 16.3353 13.2097L23.9716 5.43376C24.2444 5.15602 24.6143 5 25 5C25.3857 5 25.7556 5.15602 26.0284 5.43376L33.6647 13.2097C33.8023 13.3467 33.9118 13.5101 33.9869 13.6905C34.0621 13.8708 34.1013 14.0646 34.1024 14.2606C34.1035 14.4565 34.0664 14.6507 33.9933 14.832C33.9202 15.0132 33.8125 15.1779 33.6765 15.3165C33.5405 15.455 33.3788 15.5647 33.2009 15.6392C33.0229 15.7137 32.8322 15.7515 32.6399 15.7504C32.4475 15.7494 32.2572 15.7094 32.0801 15.6329C31.903 15.5565 31.7425 15.4449 31.608 15.3049L26.4545 10.0575V19.8148ZM38.0909 19.8148H26.4545V27.2222C26.4545 27.6152 26.3013 27.992 26.0285 28.2698C25.7557 28.5476 25.3858 28.7037 25 28.7037C24.6142 28.7037 24.2443 28.5476 23.9715 28.2698C23.6987 27.992 23.5455 27.6152 23.5455 27.2222V19.8148H11.9091C11.1378 19.8157 10.3984 20.1282 9.85301 20.6837C9.30764 21.2391 9.00087 21.9923 9 22.7778V42.037C9.00087 42.8226 9.30764 43.5757 9.85301 44.1312C10.3984 44.6867 11.1378 44.9991 11.9091 45H38.0909C38.8622 44.9991 39.6016 44.6867 40.147 44.1312C40.6924 43.5757 40.9991 42.8226 41 42.037V22.7778C40.9991 21.9923 40.6924 21.2391 40.147 20.6837C39.6016 20.1282 38.8622 19.8157 38.0909 19.8148Z" fill="black"/>
</svg>
