<svg width="50" height="50" viewBox="0 0 50 50" fill="none" xmlns="http://www.w3.org/2000/svg">
<path d="M43.9981 11.4644C43.9975 11.4365 43.9961 11.4088 43.994 11.3811C43.9922 11.3586 43.99 11.3362 43.9873 11.314C43.978 11.2399 43.9633 11.1665 43.943 11.0946C43.9367 11.0715 43.9298 11.0486 43.9224 11.0258C43.9143 11.0022 43.9057 10.9788 43.8965 10.9557C43.888 10.9335 43.879 10.9116 43.8695 10.8899C43.8287 10.8001 43.7796 10.7143 43.7229 10.6336C43.6938 10.5927 43.6627 10.5532 43.6297 10.5154C43.6214 10.5059 43.6143 10.4958 43.6057 10.4864C43.5986 10.4785 43.5907 10.4719 43.5832 10.4643C43.565 10.4453 43.5463 10.4269 43.5271 10.4089C43.5096 10.3923 43.4918 10.376 43.4735 10.3602C43.4554 10.3448 43.4369 10.33 43.418 10.3156C43.3978 10.2996 43.3772 10.2841 43.3561 10.2693C43.3377 10.2565 43.3186 10.2447 43.2999 10.2327C43.2778 10.2185 43.2554 10.2048 43.2326 10.1918C43.2125 10.1806 43.1919 10.1704 43.1714 10.1599C43.1489 10.1487 43.1264 10.1374 43.1038 10.1275C43.0812 10.1176 43.058 10.1088 43.0348 10.0999C43.0128 10.0915 42.9911 10.0831 42.9689 10.0757C42.9446 10.0677 42.9194 10.0611 42.8945 10.0542C42.8726 10.0482 42.8506 10.0422 42.8283 10.0373C42.8034 10.0319 42.7783 10.0272 42.7531 10.0231C42.7296 10.0189 42.706 10.0152 42.6823 10.0122C42.6582 10.0094 42.6342 10.0072 42.6101 10.0056C42.584 10.0036 42.5578 10.0023 42.5317 10.0017C42.521 10.0013 42.5107 10 42.5 10H6.5C6.48987 10 6.48031 10.0013 6.47 10.0015C6.44241 10.0021 6.41483 10.0035 6.38731 10.0056C6.36444 10.0075 6.34194 10.0094 6.31944 10.0118C6.29428 10.015 6.26921 10.0189 6.24425 10.0234C6.22025 10.0276 6.19644 10.0315 6.173 10.0369C6.14938 10.0422 6.12613 10.0486 6.10269 10.0549C6.07906 10.0615 6.05544 10.0679 6.03219 10.0756C6.00875 10.0831 5.98569 10.0921 5.96263 10.1009C5.94069 10.1093 5.91875 10.1176 5.89737 10.1269C5.87337 10.1374 5.85013 10.1493 5.82669 10.1611C5.807 10.171 5.78731 10.1806 5.76819 10.1913C5.74475 10.2044 5.72187 10.2188 5.69881 10.2334C5.68062 10.2451 5.66206 10.2565 5.64444 10.2691C5.62288 10.2839 5.60206 10.2998 5.58125 10.3159C5.56277 10.3302 5.54464 10.3449 5.52687 10.36C5.50835 10.376 5.49022 10.3924 5.4725 10.4093C5.45338 10.4271 5.435 10.4453 5.41681 10.4641C5.4095 10.4717 5.40144 10.4785 5.39431 10.4866C5.38569 10.4959 5.37856 10.5059 5.37031 10.5153C5.33738 10.5531 5.30628 10.5925 5.27713 10.6334C5.1344 10.8351 5.0436 11.0688 5.01275 11.314C5.01 11.3362 5.00775 11.3586 5.006 11.3811C5.00387 11.4089 5.0025 11.4366 5.00188 11.4642C5.0015 11.4762 5 11.488 5 11.5V37C5.00089 37.7954 5.31725 38.5579 5.87967 39.1203C6.44208 39.6827 7.20462 39.9991 8 40H41C41.7954 39.9991 42.5579 39.6827 43.1203 39.1203C43.6827 38.5579 43.9991 37.7954 44 37V11.5C44 11.488 43.9985 11.4762 43.9981 11.4644ZM8 14.9097L19.0074 25L8 35.0901V14.9097ZM26.7766 23.878L26.7755 23.8789L24.5 25.9651L10.3563 13H38.6437L26.7766 23.878ZM21.2274 27.0348L23.4864 29.1055C23.763 29.3591 24.1247 29.4997 24.5 29.4997C24.8753 29.4997 25.237 29.3591 25.5136 29.1055L27.7728 27.0348L38.6437 37H10.3563L21.2274 27.0348ZM29.9926 25L41.0004 14.9097L41.0017 35.0916L29.9926 25Z" fill="black"/>
</svg>
