<svg width="50" height="50" viewBox="0 0 50 50" fill="none" xmlns="http://www.w3.org/2000/svg">
<path d="M16.3349 15.0472C16.1999 14.9131 16.0927 14.7538 16.0197 14.5786C15.9466 14.4033 15.909 14.2155 15.909 14.0258C15.9091 13.8361 15.9467 13.6482 16.0199 13.473C16.093 13.2978 16.2002 13.1385 16.3353 13.0044L23.9716 5.42291C24.2444 5.15212 24.6143 5 25 5C25.3857 5 25.7556 5.15212 26.0284 5.42291L33.6647 13.0044C33.8023 13.138 33.9118 13.2973 33.9869 13.4732C34.0621 13.6491 34.1013 13.838 34.1024 14.0291C34.1035 14.2201 34.0664 14.4095 33.9933 14.5862C33.9202 14.7629 33.8125 14.9234 33.6765 15.0585C33.5405 15.1936 33.3788 15.3006 33.2009 15.3732C33.0229 15.4459 32.8322 15.4827 32.6399 15.4817C32.4475 15.4806 32.2572 15.4417 32.0801 15.3671C31.903 15.2925 31.7425 15.1838 31.608 15.0472L26.4545 9.93102V26.6667C26.4545 27.0498 26.3013 27.4172 26.0285 27.6881C25.7557 27.959 25.3858 28.1111 25 28.1111C24.6142 28.1111 24.2443 27.959 23.9715 27.6881C23.6987 27.4172 23.5455 27.0498 23.5455 26.6667V9.93102L18.392 15.0472C18.2569 15.1814 18.0966 15.2878 17.9201 15.3604C17.7436 15.433 17.5545 15.4704 17.3635 15.4704C17.1724 15.4704 16.9833 15.433 16.8068 15.3604C16.6303 15.2878 16.47 15.1814 16.3349 15.0472ZM38.0909 19.4445H33.7273C33.3415 19.4445 32.9715 19.5967 32.6988 19.8675C32.426 20.1384 32.2727 20.5058 32.2727 20.8889C32.2727 21.272 32.426 21.6394 32.6988 21.9103C32.9715 22.1812 33.3415 22.3334 33.7273 22.3334H38.0909V41.1111H11.9091V22.3334H16.2727C16.6585 22.3334 17.0285 22.1812 17.3012 21.9103C17.574 21.6394 17.7273 21.272 17.7273 20.8889C17.7273 20.5058 17.574 20.1384 17.3012 19.8675C17.0285 19.5967 16.6585 19.4445 16.2727 19.4445H11.9091C11.1378 19.4453 10.3984 19.75 9.85301 20.2916C9.30764 20.8331 9.00087 21.5674 9 22.3334V41.1111C9.00087 41.877 9.30764 42.6113 9.85301 43.1529C10.3984 43.6945 11.1378 43.9991 11.9091 44H38.0909C38.8622 43.9991 39.6016 43.6945 40.147 43.1529C40.6924 42.6113 40.9991 41.877 41 41.1111V22.3334C40.9991 21.5674 40.6924 20.8331 40.147 20.2916C39.6016 19.75 38.8622 19.4453 38.0909 19.4445Z" fill="black"/>
</svg>
