<svg width="50" height="50" viewBox="0 0 50 50" fill="none" xmlns="http://www.w3.org/2000/svg">
<path d="M41 14.1818H25.1214L20 8.90545C19.7221 8.61753 19.3915 8.38926 19.0274 8.23384C18.6633 8.07842 18.2729 7.99895 17.8788 8.00001H8C7.20462 8.00093 6.44208 8.32688 5.87967 8.90633C5.31725 9.48579 5.00089 10.2714 5 11.0909V39.0279C5.00084 39.8159 5.30504 40.5713 5.84584 41.1285C6.38664 41.6857 7.11988 41.9991 7.88469 42H41.1667C41.9179 41.9991 42.638 41.6913 43.1692 41.144C43.7004 40.5968 43.9992 39.8548 44 39.0808V17.2727C43.9991 16.4533 43.6827 15.6676 43.1203 15.0881C42.5579 14.5087 41.7954 14.1827 41 14.1818ZM17.8788 11.0909L20.8786 14.1818H8V11.0909H17.8788ZM41 38.9091H8V17.2727H41V38.9091Z" fill="black"/>
</svg>
