<svg width="50" height="50" viewBox="0 0 50 50" fill="none" xmlns="http://www.w3.org/2000/svg">
<path d="M42 17.2945C41.9997 17.0884 41.9578 16.8844 41.8768 16.6947C41.7959 16.505 41.6775 16.3334 41.5286 16.1902L30.7298 5.43313C30.6943 5.39712 30.6569 5.36307 30.6177 5.33116L30.5887 5.31C30.5578 5.28434 30.5269 5.26125 30.496 5.24073L30.469 5.22534C30.4361 5.20418 30.4014 5.18301 30.3647 5.16377L30.3473 5.15415L30.2294 5.09836H30.2159C30.1734 5.08104 30.1309 5.06565 30.0865 5.05218H30.073C30.0293 5.03835 29.9848 5.02742 29.9397 5.01947C29.9274 5.01855 29.9152 5.01855 29.903 5.01947C29.8659 5.01168 29.8285 5.0059 29.7909 5.00216C29.7394 4.99928 29.6878 4.99928 29.6364 5.00216H11.0909C10.2748 5.00214 9.49184 5.32356 8.91279 5.8963C8.33373 6.46904 8.00561 7.24661 8 8.05938V41.9216C8 42.7381 8.32565 43.5211 8.90531 44.0984C9.48496 44.6757 10.2711 45 11.0909 45H38.9091C39.7288 45 40.515 44.6757 41.0947 44.0984C41.6744 43.5211 42 42.7381 42 41.9216V17.3253V17.2945ZM31.1818 10.2354L36.7242 15.7553H31.1818V10.2354ZM38.9091 41.9216H11.0909V8.05938H28.0909V17.2945C28.0909 17.7028 28.2537 18.0943 28.5436 18.3829C28.8334 18.6716 29.2265 18.8337 29.6364 18.8337H38.9091V41.9216ZM30.1135 32.5248C31.023 31.0828 31.3671 29.3577 31.0804 27.679C30.7936 26.0002 29.8959 24.4855 28.5588 23.4242C27.2217 22.3629 25.5389 21.8293 23.8318 21.9254C22.1247 22.0215 20.513 22.7406 19.3046 23.9452C18.0961 25.1499 17.3755 26.7557 17.2805 28.4559C17.1855 30.1562 17.7228 31.8317 18.7896 33.1624C19.8564 34.4932 21.3781 35.3859 23.0639 35.67C24.7497 35.9541 26.4816 35.6098 27.9286 34.7028L30.0536 36.8192C30.3436 37.1077 30.7368 37.2698 31.1468 37.2696C31.5567 37.2694 31.9498 37.107 32.2395 36.8182C32.5292 36.5294 32.6919 36.1378 32.6917 35.7295C32.6915 35.3213 32.5285 34.9298 32.2385 34.6412L30.1135 32.5248ZM21.4937 31.5628C20.8609 30.9341 20.4665 30.1063 20.3778 29.2205C20.289 28.3346 20.5114 27.4456 21.0071 26.7047C21.5027 25.9639 22.241 25.4171 23.096 25.1576C23.9511 24.8981 24.87 24.9419 25.6963 25.2815C26.5226 25.6212 27.205 26.2356 27.6274 27.0202C28.0498 27.8048 28.1859 28.711 28.0127 29.5844C27.8394 30.4577 27.3674 31.2442 26.6772 31.8099C25.987 32.3755 25.1211 32.6853 24.2273 32.6865C23.7194 32.6881 23.2162 32.5893 22.747 32.3957C22.2778 32.2022 21.8518 31.9178 21.4937 31.559V31.5628Z" fill="black"/>
</svg>
