<svg width="50" height="50" viewBox="0 0 50 50" fill="none" xmlns="http://www.w3.org/2000/svg">
<path d="M26.5385 23.6667V39.6667C26.5385 40.0203 26.3764 40.3594 26.0879 40.6095C25.7993 40.8595 25.408 41 25 41C24.592 41 24.2007 40.8595 23.9121 40.6095C23.6236 40.3594 23.4615 40.0203 23.4615 39.6667V23.6667C23.4615 23.313 23.6236 22.9739 23.9121 22.7239C24.2007 22.4738 24.592 22.3333 25 22.3333C25.408 22.3333 25.7993 22.4738 26.0879 22.7239C26.3764 22.9739 26.5385 23.313 26.5385 23.6667ZM38.8462 35.6667C38.4381 35.6667 38.0468 35.8071 37.7583 36.0572C37.4698 36.3072 37.3077 36.6464 37.3077 37L37.3079 39.6667C37.3079 40.0203 37.47 40.3594 37.7585 40.6095C38.047 40.8595 38.4383 41 38.8463 41C39.2544 41 39.6457 40.8595 39.9342 40.6095C40.2227 40.3594 40.3848 40.0203 40.3848 39.6667L40.3846 37C40.3846 36.6464 40.2225 36.3072 39.934 36.0572C39.6455 35.8071 39.2542 35.6667 38.8462 35.6667ZM43.4615 30.3333H40.3846L40.3848 10.3333C40.3848 9.97971 40.2227 9.64057 39.9342 9.39052C39.6457 9.14048 39.2544 9 38.8463 9C38.4383 9 38.047 9.14048 37.7585 9.39052C37.47 9.64057 37.3079 9.97971 37.3079 10.3333L37.3077 30.3333H34.2308C33.8227 30.3333 33.4314 30.4738 33.1429 30.7239C32.8544 30.9739 32.6923 31.313 32.6923 31.6667C32.6923 32.0203 32.8544 32.3594 33.1429 32.6095C33.4314 32.8595 33.8227 33 34.2308 33H43.4615C43.8696 33 44.2609 32.8595 44.5494 32.6095C44.8379 32.3594 45 32.0203 45 31.6667C45 31.313 44.8379 30.9739 44.5494 30.7239C44.2609 30.4738 43.8696 30.3333 43.4615 30.3333ZM11.1538 30.3333C10.7458 30.3333 10.3545 30.4738 10.066 30.7239C9.77747 30.9739 9.61538 31.313 9.61538 31.6667V39.6667C9.61538 40.0203 9.77747 40.3594 10.066 40.6095C10.3545 40.8595 10.7458 41 11.1538 41C11.5619 41 11.9532 40.8595 12.2417 40.6095C12.5302 40.3594 12.6923 40.0203 12.6923 39.6667V31.6667C12.6923 31.313 12.5302 30.9739 12.2417 30.7239C11.9532 30.4738 11.5619 30.3333 11.1538 30.3333ZM15.7692 25H12.6923V10.3333C12.6923 9.97971 12.5302 9.64057 12.2417 9.39052C11.9532 9.14048 11.5619 9 11.1538 9C10.7458 9 10.3545 9.14048 10.066 9.39052C9.77747 9.64057 9.61538 9.97971 9.61538 10.3333V25H6.53846C6.13044 25 5.73912 25.1405 5.4506 25.3905C5.16209 25.6406 5 25.9797 5 26.3333C5 26.687 5.16209 27.0261 5.4506 27.2761C5.73912 27.5262 6.13044 27.6667 6.53846 27.6667H15.7692C16.1773 27.6667 16.5686 27.5262 16.8571 27.2761C17.1456 27.0261 17.3077 26.687 17.3077 26.3333C17.3077 25.9797 17.1456 25.6406 16.8571 25.3905C16.5686 25.1405 16.1773 25 15.7692 25ZM29.6154 17H26.5385V10.3333C26.5385 9.97971 26.3764 9.64057 26.0879 9.39052C25.7993 9.14048 25.408 9 25 9C24.592 9 24.2007 9.14048 23.9121 9.39052C23.6236 9.64057 23.4615 9.97971 23.4615 10.3333V17H20.3846C19.9766 17 19.5853 17.1405 19.2968 17.3905C19.0082 17.6406 18.8462 17.9797 18.8462 18.3333C18.8462 18.687 19.0082 19.0261 19.2968 19.2761C19.5853 19.5262 19.9766 19.6667 20.3846 19.6667H29.6154C30.0234 19.6667 30.4147 19.5262 30.7032 19.2761C30.9918 19.0261 31.1538 18.687 31.1538 18.3333C31.1538 17.9797 30.9918 17.6406 30.7032 17.3905C30.4147 17.1405 30.0234 17 29.6154 17Z" fill="black"/>
</svg>
