<svg width="50" height="50" viewBox="0 0 50 50" fill="none" xmlns="http://www.w3.org/2000/svg">
<path d="M37.8571 25C37.8571 25.3789 37.7066 25.7422 37.4387 26.0102C37.1708 26.2781 36.8075 26.4286 36.4286 26.4286H13.5714C13.1925 26.4286 12.8292 26.2781 12.5613 26.0102C12.2934 25.7422 12.1429 25.3789 12.1429 25C12.1429 24.6211 12.2934 24.2578 12.5613 23.9898C12.8292 23.7219 13.1925 23.5714 13.5714 23.5714H36.4286C36.8075 23.5714 37.1708 23.7219 37.4387 23.9898C37.7066 24.2578 37.8571 24.6211 37.8571 25ZM43.5714 15H6.42857C6.04969 15 5.68633 15.1505 5.41842 15.4184C5.15051 15.6863 5 16.0497 5 16.4286C5 16.8075 5.15051 17.1708 5.41842 17.4387C5.68633 17.7066 6.04969 17.8571 6.42857 17.8571H43.5714C43.9503 17.8571 44.3137 17.7066 44.5816 17.4387C44.8495 17.1708 45 16.8075 45 16.4286C45 16.0497 44.8495 15.6863 44.5816 15.4184C44.3137 15.1505 43.9503 15 43.5714 15ZM29.2857 32.1429H20.7143C20.3354 32.1429 19.972 32.2934 19.7041 32.5613C19.4362 32.8292 19.2857 33.1925 19.2857 33.5714C19.2857 33.9503 19.4362 34.3137 19.7041 34.5816C19.972 34.8495 20.3354 35 20.7143 35H29.2857C29.6646 35 30.028 34.8495 30.2959 34.5816C30.5638 34.3137 30.7143 33.9503 30.7143 33.5714C30.7143 33.1925 30.5638 32.8292 30.2959 32.5613C30.028 32.2934 29.6646 32.1429 29.2857 32.1429Z" fill="black"/>
</svg>
