<svg width="50" height="50" viewBox="0 0 50 50" fill="none" xmlns="http://www.w3.org/2000/svg">
<path d="M43.4674 21.1866C43.2053 20.8197 42.861 20.5209 42.4626 20.3147C42.0643 20.1084 41.6233 20.0006 41.1758 20H38.8982V17.1429C38.8974 16.3854 38.5995 15.6591 38.0699 15.1235C37.5403 14.5879 36.8223 14.2866 36.0734 14.2857H23.8324L18.9361 10.5714C18.4464 10.2017 17.852 10.0013 17.241 10H7.82485C7.07591 10.0009 6.35789 10.3021 5.82831 10.8378C5.29873 11.3734 5.00084 12.0996 5 12.8571V38.5714C5 38.5805 5.00124 38.5893 5.00141 38.5984C5.00177 38.6186 5.00318 38.6384 5.00424 38.6586C5.00636 38.6925 5.00936 38.7263 5.01359 38.7596C5.01595 38.7777 5.01871 38.7958 5.02189 38.8137C5.02807 38.8504 5.03566 38.8863 5.04449 38.9218C5.0482 38.9366 5.05155 38.9514 5.05579 38.9661C5.06797 39.0088 5.0821 39.0504 5.09781 39.0912C5.10081 39.0987 5.10311 39.1066 5.10611 39.1141C5.12628 39.164 5.14927 39.2126 5.17496 39.2598C5.17779 39.265 5.18114 39.2698 5.18397 39.2748C5.20657 39.3153 5.23105 39.3543 5.25741 39.392C5.26077 39.3968 5.26324 39.402 5.2666 39.4068C5.27277 39.4155 5.28019 39.4229 5.28672 39.4316C5.341 39.5044 5.40214 39.5718 5.46928 39.6327C5.48058 39.6429 5.49135 39.6537 5.50282 39.6636C5.54204 39.6973 5.58307 39.7287 5.62571 39.7579L5.62924 39.76C5.67115 39.7881 5.71453 39.8139 5.75918 39.8373C5.77048 39.8432 5.78213 39.8484 5.79361 39.8541C5.84237 39.8782 5.89248 39.8994 5.94368 39.9177C5.97922 39.9303 6.01536 39.9415 6.05208 39.9513C6.06691 39.9554 6.08174 39.9595 6.09657 39.9629C6.13435 39.9716 6.17284 39.9782 6.21169 39.9839C6.22581 39.9859 6.2394 39.9888 6.25353 39.9904C6.30628 39.9966 6.35932 39.9998 6.41243 40H37.4858C37.7823 40 38.0712 39.9057 38.3117 39.7304C38.5522 39.555 38.7321 39.3077 38.8258 39.0232L43.8559 23.7607C43.9968 23.3311 44.0351 22.8739 43.9676 22.4264C43.9001 21.979 43.7287 21.5541 43.4674 21.1866ZM17.241 12.8571L22.1373 16.5714C22.627 16.9412 23.2213 17.1416 23.8324 17.1429H36.0734V20H13.0801C12.4871 19.9994 11.909 20.1879 11.4278 20.5386C10.9467 20.8892 10.5871 21.3844 10.4001 21.9536L7.82485 29.7682V12.8571H17.241Z" fill="black"/>
</svg>
