<svg width="50" height="50" viewBox="0 0 50 50" fill="none" xmlns="http://www.w3.org/2000/svg">
<path d="M44.1834 11.268L31.2797 25.5054V36.6516C31.2803 37.1702 31.1529 37.6809 30.9089 38.1381C30.665 38.5953 30.312 38.9849 29.8815 39.2721L23.6019 43.4711C23.129 43.7873 22.5795 43.9688 22.0119 43.9963C21.4442 44.0239 20.8798 43.8963 20.3788 43.6274C19.8777 43.3584 19.4588 42.9581 19.1668 42.4691C18.8747 41.9801 18.7205 41.4208 18.7204 40.8508V25.5052L5.81694 11.2684C5.40764 10.817 5.1379 10.256 5.0405 9.65364C4.94311 9.0513 5.02226 8.43356 5.26833 7.8755C5.5144 7.31744 5.9168 6.8431 6.42661 6.51015C6.93642 6.17719 7.53167 5.99996 8.14002 6H41.8601C42.4684 5.99999 43.0636 6.17722 43.5734 6.51014C44.0831 6.84306 44.4855 7.31734 44.7316 7.87533C44.9777 8.43332 45.0569 9.05099 44.9596 9.65328C44.8622 10.2556 44.5926 10.8165 44.1834 11.268Z" fill="black"/>
</svg>
