<svg width="50" height="50" viewBox="0 0 50 50" fill="none" xmlns="http://www.w3.org/2000/svg">
<path d="M21.8607 44C21.0279 43.9995 20.2294 43.6586 19.6405 43.0524C19.0517 42.4461 18.7208 41.6241 18.7204 40.7668V25.0179L5.81694 10.4069C5.40764 9.94357 5.1379 9.36784 5.0405 8.74967C4.94311 8.1315 5.02226 7.49752 5.26833 6.92479C5.5144 6.35207 5.9168 5.86526 6.42661 5.52356C6.93642 5.18185 7.53167 4.99996 8.14002 5H41.8601C42.4684 4.99999 43.0636 5.18188 43.5734 5.52355C44.0831 5.86522 44.4855 6.35196 44.7316 6.92462C44.9777 7.49728 45.0569 8.13119 44.9596 8.74931C44.8622 9.36743 44.5926 9.94314 44.1834 10.4065L31.2797 25.0181V36.4572C31.2803 36.9895 31.1529 37.5136 30.9089 37.9828C30.665 38.4521 30.312 38.8519 29.8815 39.1466L23.6019 43.456C23.0865 43.8105 22.4805 43.9998 21.8607 44ZM8.1412 8.23221L21.0437 22.8438C21.5697 23.4384 21.8609 24.2139 21.8603 25.0181V40.7668L28.1399 36.4572V25.0181C28.1392 24.2137 28.4306 23.438 28.9568 22.8434L41.8594 8.23301L8.1412 8.23221Z" fill="black"/>
</svg>
