<svg width="50" height="50" viewBox="0 0 50 50" fill="none" xmlns="http://www.w3.org/2000/svg">
<path d="M41.9231 14.1818H25.6371L20.3846 8.90565C20.0997 8.61766 19.7607 8.38933 19.3873 8.23388C19.0138 8.07842 18.6134 7.99893 18.2092 8.00001H8.07692C7.26112 8.00083 6.47897 8.32674 5.90211 8.90622C5.32525 9.4857 5.00081 10.2714 5 11.0909V39.0283C5.00107 39.8163 5.31327 40.5718 5.86811 41.1289C6.42296 41.686 7.17513 41.9993 7.95961 42H42.0942C42.8646 41.999 43.6031 41.6911 44.1478 41.1439C44.6925 40.5967 44.999 39.8549 45 39.081V17.2729C44.9992 16.4534 44.6748 15.6677 44.0979 15.0882C43.521 14.5087 42.7389 14.1828 41.9231 14.182V14.1818ZM8.07692 11.0909H18.2092L21.2862 14.1818H8.07692V11.0909ZM29.6154 29.6368H26.5385V32.7277C26.5385 33.1375 26.3764 33.5306 26.0879 33.8205C25.7993 34.1103 25.408 34.2731 25 34.2731C24.592 34.2731 24.2007 34.1103 23.9121 33.8205C23.6236 33.5306 23.4615 33.1375 23.4615 32.7277V29.6368H20.3846C19.9766 29.6368 19.5853 29.4739 19.2968 29.1841C19.0082 28.8943 18.8462 28.5012 18.8462 28.0913C18.8462 27.6814 19.0082 27.2883 19.2968 26.9985C19.5853 26.7087 19.9766 26.5458 20.3846 26.5458H23.4615V23.4549C23.4615 23.0451 23.6236 22.652 23.9121 22.3621C24.2007 22.0723 24.592 21.9095 25 21.9095C25.408 21.9095 25.7993 22.0723 26.0879 22.3621C26.3764 22.652 26.5385 23.0451 26.5385 23.4549V26.5458H29.6154C30.0234 26.5458 30.4147 26.7087 30.7032 26.9985C30.9918 27.2883 31.1538 27.6814 31.1538 28.0913C31.1538 28.5012 30.9918 28.8943 30.7032 29.1841C30.4147 29.4739 30.0234 29.6368 29.6154 29.6368Z" fill="black"/>
</svg>
