<svg width="50" height="50" viewBox="0 0 50 50" fill="none" xmlns="http://www.w3.org/2000/svg">
<path d="M42.037 13.3636H29.1976L24.0617 9.58182C23.5482 9.20529 22.9248 9.00126 22.2839 9H13.8889C13.1033 9.00087 12.3502 9.30764 11.7947 9.85301C11.2393 10.3984 10.9268 11.1378 10.9259 11.9091V14.8182H7.96296C7.17741 14.819 6.42428 15.1258 5.86881 15.6712C5.31333 16.2166 5.00088 16.956 5 17.7273V38.0909C5.00088 38.8622 5.31333 39.6016 5.86881 40.147C6.42428 40.6924 7.17741 40.9991 7.96296 41H36.2757C37.0177 40.9992 37.7289 40.7095 38.2535 40.1944C38.7781 39.6793 39.0732 38.981 39.0741 38.2525V35.1818H42.2017C42.9436 35.181 43.6549 34.8913 44.1795 34.3762C44.7041 33.8611 44.9992 33.1628 45 32.4344V16.2727C44.9991 15.5015 44.6867 14.762 44.1312 14.2166C43.5757 13.6713 42.8226 13.3645 42.037 13.3636ZM36.1111 38.0909H7.96296V17.7273H16.3581L21.4939 21.5091C22.0074 21.8856 22.6308 22.0896 23.2717 22.0909L36.1109 22.0891L36.1111 22.0909V38.0909ZM42.037 32.2727H39.0741V22.0909C39.0732 21.3196 38.7607 20.5802 38.2053 20.0348C37.6498 19.4895 36.8967 19.1827 36.1111 19.1818H23.2715L18.1357 15.4C17.6223 15.0235 16.9988 14.8194 16.358 14.8182H13.8889V11.9091H22.2841L27.4198 15.6909C27.9333 16.0674 28.5567 16.2715 29.1976 16.2727H42.037V32.2727Z" fill="black"/>
</svg>
