<svg width="50" height="50" viewBox="0 0 50 50" fill="none" xmlns="http://www.w3.org/2000/svg">
<path d="M28.3333 34.2632C28.3333 34.7099 28.1577 35.1383 27.8452 35.4541C27.5326 35.77 27.1087 35.9474 26.6667 35.9474H6.66667C6.22464 35.9474 5.80072 35.77 5.48815 35.4541C5.17559 35.1383 5 34.7099 5 34.2632C5 33.8165 5.17559 33.3881 5.48815 33.0723C5.80072 32.7564 6.22464 32.579 6.66667 32.579H26.6667C27.1087 32.579 27.5326 32.7564 27.8452 33.0723C28.1577 33.3881 28.3333 33.8165 28.3333 34.2632ZM43.3333 32.579H35V29.2106C35 28.7639 34.8244 28.3355 34.5118 28.0197C34.1993 27.7038 33.7754 27.5264 33.3333 27.5264C32.8913 27.5264 32.4674 27.7038 32.1548 28.0197C31.8423 28.3355 31.6667 28.7639 31.6667 29.2106V39.3158C31.6667 39.7625 31.8423 40.1909 32.1548 40.5067C32.4674 40.8226 32.8913 41 33.3333 41C33.7754 41 34.1993 40.8226 34.5118 40.5067C34.8244 40.1909 35 39.7625 35 39.3158V35.9474H43.3333C43.7754 35.9474 44.1993 35.77 44.5118 35.4541C44.8244 35.1383 45 34.7099 45 34.2632C45 33.8165 44.8244 33.3881 44.5118 33.0723C44.1993 32.7564 43.7754 32.579 43.3333 32.579ZM6.66667 17.421H13.3333C13.7754 17.421 14.1993 17.2436 14.5118 16.9277C14.8244 16.6119 15 16.1835 15 15.7368C15 15.2901 14.8244 14.8617 14.5118 14.5459C14.1993 14.23 13.7754 14.0526 13.3333 14.0526H6.66667C6.22464 14.0526 5.80072 14.23 5.48815 14.5459C5.17559 14.8617 5 15.2901 5 15.7368C5 16.1835 5.17559 16.6119 5.48815 16.9277C5.80072 17.2436 6.22464 17.421 6.66667 17.421ZM20 22.4736C20.442 22.4736 20.8659 22.2962 21.1785 21.9803C21.4911 21.6645 21.6667 21.2361 21.6667 20.7894V17.421H43.3333C43.7754 17.421 44.1993 17.2436 44.5118 16.9277C44.8244 16.6119 45 16.1835 45 15.7368C45 15.2901 44.8244 14.8617 44.5118 14.5459C44.1993 14.23 43.7754 14.0526 43.3333 14.0526H21.6667V10.6842C21.6667 10.2375 21.4911 9.80914 21.1785 9.49329C20.8659 9.17744 20.442 9 20 9C19.558 9 19.134 9.17744 18.8215 9.49329C18.5089 9.80914 18.3333 10.2375 18.3333 10.6842V20.7894C18.3333 21.2361 18.5089 21.6645 18.8215 21.9803C19.134 22.2962 19.558 22.4736 20 22.4736Z" fill="black"/>
</svg>
