<svg width="50" height="50" viewBox="0 0 50 50" fill="none" xmlns="http://www.w3.org/2000/svg">
<path d="M43.4675 21.1866C43.2053 20.8197 42.861 20.5209 42.4626 20.3147C42.0643 20.1084 41.6233 20.0006 41.1758 20H38.8983V17.1429C38.8974 16.3854 38.5995 15.6591 38.0699 15.1235C37.5404 14.5879 36.8223 14.2866 36.0734 14.2857H23.8324L18.9359 10.5714C18.4463 10.2017 17.852 10.0013 17.241 10H7.82485C7.07591 10.0009 6.35789 10.3021 5.82831 10.8378C5.29873 11.3734 5.00084 12.0996 5 12.8571V38.5714C5 38.5804 5.00124 38.5893 5.00141 38.5984C5.00177 38.6186 5.00318 38.6384 5.00424 38.6586C5.00742 38.7106 5.01332 38.7624 5.02189 38.8137C5.02807 38.8505 5.03566 38.8864 5.04467 38.922C5.0482 38.9366 5.05173 38.9514 5.05579 38.9659C5.06791 39.0088 5.08204 39.0507 5.09816 39.0916C5.10081 39.0991 5.10311 39.1066 5.10611 39.1139C5.12626 39.1639 5.14925 39.2127 5.17496 39.26C5.17761 39.2648 5.18079 39.2693 5.18344 39.2741C5.20616 39.3146 5.23087 39.3539 5.25759 39.392C5.26077 39.3968 5.26324 39.402 5.2666 39.4068C5.27278 39.4154 5.28001 39.4229 5.28655 39.4313C5.31892 39.4749 5.3537 39.5166 5.39071 39.5563C5.41596 39.5829 5.44227 39.608 5.46928 39.6327C5.48058 39.6429 5.49135 39.6537 5.50282 39.6636C5.54205 39.6972 5.58307 39.7287 5.62571 39.7579L5.62853 39.7596C5.67066 39.7879 5.71427 39.8138 5.75918 39.8373C5.77048 39.8434 5.78213 39.8484 5.79343 39.8541C5.84221 39.8782 5.89232 39.8994 5.9435 39.9177C5.97917 39.9303 6.01536 39.9415 6.05208 39.9513C6.06691 39.9552 6.08174 39.9593 6.09657 39.9629C6.13436 39.9716 6.17284 39.9782 6.21169 39.9839C6.22581 39.9859 6.2394 39.9888 6.25353 39.9904C6.30628 39.9966 6.35932 39.9998 6.41243 40H37.4858C37.7823 40 38.0712 39.9057 38.3117 39.7304C38.5522 39.5551 38.7321 39.3077 38.8259 39.0232L43.8559 23.7607C43.9968 23.3311 44.0351 22.8739 43.9676 22.4264C43.9001 21.979 43.7287 21.5541 43.4675 21.1866ZM17.241 12.8571L22.1375 16.5714C22.6271 16.9412 23.2214 17.1415 23.8324 17.1429H36.0734V20H13.0801C12.4871 19.9994 11.909 20.1879 11.4278 20.5386C10.9467 20.8892 10.5871 21.3844 10.4001 21.9536L7.82485 29.7682V12.8571H17.241ZM36.4676 37.1429H8.37217L13.0801 22.8571H41.1758L36.4676 37.1429Z" fill="black"/>
</svg>
