<svg width="50" height="50" viewBox="0 0 50 50" fill="none" xmlns="http://www.w3.org/2000/svg">
<path d="M41.9231 14.1818H25.6371L20.3846 8.90545C20.0996 8.61753 19.7605 8.38926 19.3871 8.23384C19.0137 8.07842 18.6133 7.99895 18.209 8.00001H8.07692C7.26115 8.00093 6.47906 8.32688 5.90222 8.90633C5.32539 9.48579 5.00092 10.2714 5 11.0909V39.0279C5.00087 39.8159 5.31286 40.5713 5.86753 41.1285C6.42219 41.6857 7.17424 41.9991 7.95865 42H42.094C42.8645 41.9991 43.6031 41.6913 44.1479 41.144C44.6927 40.5968 44.9991 39.8548 45 39.0808V17.2727C44.9991 16.4533 44.6746 15.6676 44.0978 15.0881C43.5209 14.5087 42.7388 14.1827 41.9231 14.1818ZM18.209 11.0909L21.286 14.1818H8.07692V11.0909H18.209ZM41.9231 38.9091H8.07692V17.2727H41.9231V38.9091ZM20.3846 26.5455H29.6154C30.0234 26.5455 30.4147 26.7083 30.7032 26.9981C30.9918 27.2879 31.1538 27.681 31.1538 28.0909C31.1538 28.5008 30.9918 28.8939 30.7032 29.1837C30.4147 29.4735 30.0234 29.6364 29.6154 29.6364H20.3846C19.9766 29.6364 19.5853 29.4735 19.2968 29.1837C19.0082 28.8939 18.8462 28.5008 18.8462 28.0909C18.8462 27.681 19.0082 27.2879 19.2968 26.9981C19.5853 26.7083 19.9766 26.5455 20.3846 26.5455Z" fill="black"/>
</svg>
