<svg width="50" height="50" viewBox="0 0 50 50" fill="none" xmlns="http://www.w3.org/2000/svg">
<path d="M41.1111 13.3636H28.5927L23.5853 9.58182C23.0846 9.20532 22.4767 9.0013 21.8518 9H13.6667C12.9007 9.00087 12.1664 9.30764 11.6249 9.85301C11.0833 10.3984 10.7786 11.1378 10.7778 11.9091V14.8182H7.88889C7.12297 14.819 6.38867 15.1258 5.84709 15.6712C5.3055 16.2166 5.00086 16.956 5 17.7273V38.0909C5.00086 38.8622 5.3055 39.6016 5.84709 40.147C6.38867 40.6924 7.12297 40.9991 7.88889 41H35.4938C36.2172 40.9992 36.9107 40.7095 37.4222 40.1944C37.9337 39.6793 38.2214 38.981 38.2222 38.2525V35.1818H41.2716C41.995 35.181 42.6885 34.8913 43.2 34.3762C43.7115 33.8611 43.9992 33.1628 44 32.4344V16.2727C43.9991 15.5015 43.6945 14.762 43.1529 14.2166C42.6113 13.6713 41.877 13.3645 41.1111 13.3636ZM41.1111 32.2727H38.2222V22.0909C38.2214 21.3196 37.9167 20.5802 37.3751 20.0348C36.8335 19.4895 36.0992 19.1827 35.3333 19.1818H22.8149L17.8075 15.4C17.3068 15.0235 16.6989 14.8195 16.074 14.8182H13.6667V11.9091H21.8518L26.8591 15.6909C27.3599 16.0674 27.9677 16.2714 28.5927 16.2727H41.1111V32.2727Z" fill="black"/>
</svg>
