<svg width="50" height="50" viewBox="0 0 50 50" fill="none" xmlns="http://www.w3.org/2000/svg">
<path d="M42 17.3077C42.0002 17.1017 41.9586 16.8979 41.8779 16.7082C41.7971 16.5186 41.6788 16.3471 41.53 16.204L30.7291 5.45096C30.6933 5.41532 30.6558 5.38154 30.6166 5.34962C30.6076 5.34212 30.5977 5.33577 30.5884 5.32846C30.5581 5.30444 30.527 5.28154 30.4949 5.25981C30.4864 5.25404 30.4776 5.24942 30.4691 5.24404C30.4352 5.22204 30.4005 5.20138 30.3649 5.18212C30.3588 5.17885 30.3524 5.17635 30.3462 5.17308C30.3077 5.15291 30.2684 5.13437 30.2284 5.1175C30.2239 5.11558 30.2195 5.11442 30.215 5.11269C30.1728 5.09546 30.1298 5.08013 30.0862 5.06673L30.0717 5.06308C30.0283 5.0502 29.9844 5.03923 29.94 5.03019C29.9276 5.02769 29.9149 5.02654 29.9025 5.02442C29.8654 5.01808 29.8283 5.01154 29.7903 5.00769C29.7393 5.00256 29.6878 5 29.6359 5H11.0906C10.2712 5.00092 9.48565 5.32539 8.90624 5.90222C8.32683 6.47906 8.00092 7.26115 8 8.07692V41.9231C8.00092 42.7388 8.32683 43.5209 8.90624 44.0978C9.48565 44.6746 10.2712 44.9991 11.0906 45H38.9078C39.7272 44.9991 40.5128 44.6746 41.0922 44.0978C41.6716 43.5209 41.9975 42.7388 41.9985 41.9231V17.3385C41.9986 17.3281 42 17.3181 42 17.3077ZM31.1813 10.2527L36.7226 15.7692H31.1813V10.2527ZM38.9078 41.9231H11.0906V8.07692H28.0906V17.3077C28.0906 17.7157 28.2534 18.107 28.5432 18.3955C28.833 18.6841 29.2261 18.8462 29.6359 18.8462H38.9078L38.9098 41.9231H38.9078Z" fill="black"/>
</svg>
