<svg width="50" height="50" viewBox="0 0 50 50" fill="none" xmlns="http://www.w3.org/2000/svg">
<path d="M41.5329 16.2067L30.7287 5.45058C30.7132 5.43519 30.6964 5.42173 30.6804 5.40692C30.6595 5.38788 30.6392 5.36827 30.6174 5.35019C30.6029 5.33846 30.5873 5.32808 30.5724 5.31673C30.5473 5.2975 30.5222 5.27788 30.4957 5.26019C30.4837 5.25231 30.471 5.24558 30.459 5.23788C30.4283 5.21865 30.3976 5.19942 30.3655 5.18231C30.3568 5.17769 30.3479 5.17423 30.3393 5.16981C30.3031 5.15095 30.2662 5.13356 30.2286 5.11769C30.2228 5.11519 30.2164 5.11346 30.2106 5.11115C30.1699 5.09462 30.1284 5.07986 30.0864 5.06692C30.0802 5.065 30.074 5.06385 30.0679 5.06212C30.0258 5.04967 29.9833 5.03902 29.9404 5.03019C29.9265 5.0275 29.9122 5.02635 29.8983 5.02385C29.8625 5.01769 29.8268 5.01135 29.7903 5.00788C29.739 5.00267 29.6875 5.00004 29.6359 5H11.0906C10.2712 5.00092 9.48565 5.32539 8.90624 5.90222C8.32683 6.47906 8.00092 7.26115 8 8.07692V41.9231C8.00092 42.7388 8.32683 43.5209 8.90624 44.0978C9.48565 44.6746 10.2712 44.9991 11.0906 45H38.9078C39.7272 44.9991 40.5128 44.6746 41.0922 44.0978C41.6716 43.5209 41.9975 42.7388 41.9985 41.9231V17.3375C41.9986 17.3275 42 17.3177 42 17.3077C42.0001 17.1024 41.9589 16.8991 41.8786 16.71C41.7983 16.5209 41.6807 16.3497 41.5327 16.2067H41.5329ZM29.6359 17.3077V8.71404L38.2677 17.3077H29.6359Z" fill="black"/>
</svg>
