<svg width="50" height="50" viewBox="0 0 50 50" fill="none" xmlns="http://www.w3.org/2000/svg">
<path d="M41 14H25.1212L20 8.87901C19.7222 8.5995 19.3916 8.37788 19.0276 8.227C18.6635 8.07612 18.2731 7.99896 17.879 8.00001H8C7.20459 8.0008 6.44199 8.31713 5.87956 8.87957C5.31712 9.442 5.00079 10.2046 5 11V38.1157C5.00104 38.8806 5.30544 39.6138 5.84641 40.1545C6.38738 40.6952 7.12075 40.9993 7.88562 41H41.1669C41.918 40.999 42.638 40.7002 43.1691 40.1691C43.7002 39.638 43.999 38.918 44 38.1669V17.0002C43.9992 16.2048 43.6829 15.4422 43.1204 14.8798C42.558 14.3173 41.7954 14.001 41 14.0002V14ZM8 11H17.879L20.879 14H8V11Z" fill="black"/>
</svg>
