<svg width="50" height="50" viewBox="0 0 50 50" fill="none" xmlns="http://www.w3.org/2000/svg">
<path d="M24.9999 14.6684C22.9565 14.6684 20.959 15.2743 19.26 16.4095C17.561 17.5448 16.2367 19.1584 15.4548 21.0462C14.6728 22.934 14.4682 25.0114 14.8668 27.0155C15.2655 29.0196 16.2495 30.8605 17.6944 32.3054C19.1393 33.7503 20.9802 34.7343 22.9843 35.133C24.9884 35.5316 27.0658 35.327 28.9536 34.545C30.8415 33.7631 32.4551 32.4388 33.5903 30.7398C34.7256 29.0408 35.3315 27.0433 35.3315 24.9999C35.3284 22.2608 34.2389 19.6347 32.302 17.6979C30.3651 15.761 27.7391 14.6715 24.9999 14.6684ZM24.9999 32.3796C23.5403 32.3796 22.1136 31.9468 20.9 31.1359C19.6864 30.325 18.7405 29.1725 18.182 27.824C17.6234 26.4755 17.4773 24.9917 17.762 23.5602C18.0468 22.1287 18.7496 20.8138 19.7817 19.7817C20.8137 18.7496 22.1287 18.0468 23.5602 17.762C24.9917 17.4773 26.4755 17.6234 27.824 18.182C29.1725 18.7405 30.325 19.6864 31.1359 20.9C31.9468 22.1136 32.3796 23.5404 32.3796 24.9999C32.3774 26.9565 31.5992 28.8322 30.2157 30.2157C28.8322 31.5992 26.9565 32.3774 24.9999 32.3796ZM44.7048 29.1336L41.9599 25.4742C41.964 25.1508 41.9607 24.806 41.9559 24.5308L44.7035 20.8675C44.838 20.6882 44.9299 20.4806 44.9722 20.2605C45.0145 20.0405 45.0062 19.8136 44.9478 19.5973C44.4871 17.8899 43.8081 16.2492 42.9276 14.7156C42.8159 14.5211 42.6614 14.3547 42.4757 14.2289C42.2901 14.1031 42.0782 14.0213 41.8562 13.9896L37.3386 13.3444C37.1174 13.1104 36.8897 12.8826 36.6554 12.6611L36.0104 8.14546C35.9788 7.92358 35.897 7.71183 35.7713 7.52627C35.6456 7.34071 35.4793 7.1862 35.285 7.07449C33.7519 6.193 32.1115 5.51295 30.4044 5.05116C30.188 4.99263 29.9611 4.9842 29.7409 5.02649C29.5207 5.06878 29.313 5.16069 29.1336 5.29524L25.4829 8.03366C25.1609 8.02465 24.8387 8.02465 24.5167 8.03366L20.8673 5.29654C20.688 5.1621 20.4804 5.07024 20.2603 5.02792C20.0403 4.9856 19.8134 4.99393 19.597 5.05227C17.8897 5.51296 16.249 6.19196 14.7154 7.07246C14.5209 7.18413 14.3544 7.33865 14.2286 7.52429C14.1028 7.70992 14.0209 7.92179 13.9892 8.1438L13.3442 12.6615C13.1103 12.8826 12.8825 13.1104 12.6609 13.3448L8.14541 13.9894C7.92354 14.0211 7.71178 14.1029 7.52622 14.2286C7.34066 14.3543 7.18616 14.5206 7.07444 14.7149C6.19291 16.248 5.51286 17.8884 5.05111 19.5956C4.99262 19.812 4.98421 20.0389 5.0265 20.2591C5.06879 20.4792 5.16068 20.6868 5.29519 20.8662L8.04007 24.5256C8.03601 24.849 8.03933 25.1938 8.04413 25.4691L5.29648 29.1325C5.162 29.3118 5.07011 29.5194 5.02778 29.7395C4.98546 29.9596 4.99382 30.1864 5.05221 30.4028C5.51287 32.1101 6.19188 33.7509 7.07241 35.2844C7.1841 35.4789 7.33863 35.6453 7.52427 35.7711C7.7099 35.8969 7.92176 35.9787 8.14375 36.0104L12.6614 36.6556C12.8826 36.8896 13.1103 37.1174 13.3446 37.3389L13.9896 41.8546C14.0212 42.0764 14.103 42.2882 14.2287 42.4737C14.3544 42.6593 14.5207 42.8138 14.715 42.9255C16.2481 43.807 17.8885 44.4871 19.5956 44.9489C19.812 45.0074 20.0389 45.0158 20.2591 44.9735C20.4793 44.9312 20.687 44.8393 20.8664 44.7048L24.5171 41.9664C24.8391 41.9754 25.1613 41.9754 25.4833 41.9664L29.1325 44.7037C29.3118 44.8382 29.5194 44.9301 29.7395 44.9724C29.9596 45.0148 30.1864 45.0064 30.4028 44.9479C32.1101 44.4872 33.7509 43.8082 35.2844 42.9277C35.4789 42.8161 35.6454 42.6615 35.7712 42.4759C35.897 42.2903 35.9789 42.0784 36.0106 41.8564L36.6571 37.328C36.8817 37.1079 37.1032 36.8845 37.3214 36.658L41.8546 36.0104C42.0764 35.9788 42.2882 35.897 42.4738 35.7713C42.6593 35.6457 42.8138 35.4794 42.9256 35.2852C43.8071 33.752 44.4871 32.1116 44.9489 30.4044C45.0074 30.188 45.0158 29.9611 44.9735 29.741C44.9312 29.5208 44.8393 29.3132 44.7048 29.1338V29.1336ZM40.707 33.1925L36.3982 33.8079C36.0669 33.8552 35.7614 34.0138 35.532 34.2575C35.304 34.5 34.6363 35.1959 34.2908 35.5018C34.0286 35.7339 33.8575 36.0517 33.8081 36.3984L33.1927 40.7083C32.2701 41.1896 31.3066 41.5882 30.3137 41.8994L26.8319 39.2879C26.5518 39.0779 26.2063 38.9743 25.8569 38.9955C25.2863 39.0301 24.7141 39.0301 24.1435 38.9955C23.7941 38.9746 23.4487 39.0782 23.1685 39.2879L19.6856 41.9005C18.6929 41.5885 17.7297 41.1891 16.8075 40.707L16.1922 36.3984C16.1427 36.0518 15.9716 35.7342 15.7094 35.5021C15.2816 35.1231 14.8771 34.7186 14.498 34.2907C14.266 34.0287 13.9483 33.8576 13.6018 33.8081L9.29167 33.1927C8.81032 32.2701 8.41167 31.3066 8.1004 30.3137L10.7121 26.8317C10.9129 26.5639 11.0168 26.2358 11.0067 25.9012C10.9966 25.5685 10.9765 24.6044 11.0045 24.1437C11.0257 23.7942 10.9221 23.4486 10.7121 23.1685L8.09948 19.6856C8.41147 18.6929 8.81086 17.7298 9.29296 16.8075L13.6014 16.1923C13.9481 16.1428 14.2659 15.9717 14.498 15.7094C14.877 15.2817 15.2814 14.8772 15.7092 14.4983C15.9714 14.2661 16.1425 13.9483 16.1919 13.6016L16.8073 9.29171C17.73 8.81035 18.6935 8.41171 19.6865 8.10045L23.1683 10.7121C23.4484 10.922 23.7939 11.0256 24.1433 11.0045C24.7139 10.9699 25.2861 10.9699 25.8567 11.0045C26.2061 11.026 26.5518 10.9223 26.8317 10.7121L30.3146 8.09952C31.3073 8.41152 32.2705 8.81091 33.1927 9.293L33.8079 13.6016C33.8575 13.9482 34.0286 14.2659 34.2908 14.4979C34.7186 14.8769 35.1231 15.2814 35.5021 15.7093C35.7342 15.9714 36.0519 16.1424 36.3984 16.1919L40.7087 16.8074C41.1898 17.7301 41.5883 18.6936 41.8994 19.6865L39.2877 23.1685C39.0868 23.4363 38.9829 23.7644 38.9931 24.099C39.0033 24.4313 39.0234 25.3947 38.9953 25.8565C38.974 26.206 39.0778 26.5517 39.2879 26.8317L41.9003 30.3146C41.5883 31.3073 41.1889 32.2704 40.7069 33.1927L40.707 33.1925Z" fill="black"/>
</svg>
