<svg width="50" height="50" viewBox="0 0 50 50" fill="none" xmlns="http://www.w3.org/2000/svg">
<path d="M41.5217 5H8.47826C7.55609 5.00104 6.67198 5.36783 6.0199 6.0199C5.36783 6.67198 5.00104 7.55609 5 8.47826V41.5217C5.00104 42.4439 5.36783 43.328 6.0199 43.9801C6.67198 44.6322 7.55609 44.999 8.47826 45H41.5217C42.4439 44.999 43.328 44.6322 43.9801 43.9801C44.6322 43.328 44.999 42.4439 45 41.5217V8.47826C44.999 7.55609 44.6322 6.67198 43.9801 6.0199C43.328 5.36783 42.4439 5.00104 41.5217 5ZM41.5226 23.2609H26.7391V8.47826H41.5217L41.5226 23.2609ZM23.2609 8.47826V23.2609H8.47826V8.47826H23.2609ZM8.47826 26.7391H23.2609V41.5217H8.47826V26.7391ZM41.5217 41.5217H26.7391V26.7391H41.5228L41.5239 41.5217H41.5217Z" fill="black"/>
</svg>
