<svg width="50" height="50" viewBox="0 0 50 50" fill="none" xmlns="http://www.w3.org/2000/svg">
<path d="M44.7048 29.1336L41.9599 25.4742C41.964 25.1508 41.9606 24.806 41.9558 24.5307L44.7035 20.8674C44.838 20.6882 44.9299 20.4806 44.9722 20.2605C45.0145 20.0404 45.0061 19.8136 44.9478 19.5972C44.487 17.8899 43.8081 16.2491 42.9276 14.7156C42.8159 14.5211 42.6613 14.3547 42.4757 14.2289C42.2901 14.1031 42.0782 14.0212 41.8562 13.9896L37.3386 13.3444C37.1174 13.1103 36.8897 12.8826 36.6554 12.661L36.0104 8.14523C35.9787 7.92337 35.8969 7.71164 35.7711 7.52611C35.6454 7.34058 35.4791 7.18612 35.2848 7.07444C33.7518 6.19294 32.1114 5.51289 30.4044 5.05111C30.188 4.99263 29.961 4.98421 29.7409 5.0265C29.5207 5.06879 29.313 5.16068 29.1336 5.29519L25.4829 8.03361C25.1609 8.02469 24.8387 8.02469 24.5167 8.03361L20.8675 5.29648C20.6882 5.16204 20.4806 5.07017 20.2605 5.02785C20.0404 4.98553 19.8136 4.99386 19.5972 5.05222C17.8899 5.51291 16.2492 6.19191 14.7156 7.07241C14.5211 7.1841 14.3547 7.33863 14.2288 7.52426C14.103 7.7099 14.0211 7.92175 13.9894 8.14375L13.3444 12.6614C13.1105 12.8826 12.8827 13.1103 12.6611 13.3448L8.14526 13.9894C7.92341 14.0211 7.7117 14.1029 7.52617 14.2286C7.34064 14.3543 7.18617 14.5205 7.07447 14.7148C6.19294 16.248 5.51289 17.8884 5.05114 19.5956C4.99263 19.812 4.9842 20.0389 5.0265 20.259C5.06879 20.4792 5.16069 20.6868 5.29522 20.8662L8.0401 24.5256C8.03604 24.849 8.03936 25.1938 8.04416 25.4691L5.29652 29.1325C5.16203 29.3118 5.07014 29.5194 5.02782 29.7394C4.9855 29.9595 4.99385 30.1864 5.05225 30.4028C5.51295 32.1101 6.19195 33.7508 7.07244 35.2844C7.18413 35.4789 7.33866 35.6453 7.5243 35.7711C7.70993 35.8969 7.92179 35.9787 8.14378 36.0104L12.6614 36.6556C12.8826 36.8896 13.1103 37.1174 13.3446 37.3389L13.9896 41.8546C14.0213 42.0764 14.1031 42.2882 14.2288 42.4738C14.3545 42.6593 14.5209 42.8138 14.7152 42.9255C16.2482 43.807 17.8886 44.4871 19.5956 44.9489C19.812 45.0074 20.039 45.0158 20.2591 44.9735C20.4793 44.9312 20.687 44.8393 20.8664 44.7048L24.5171 41.9664C24.8388 41.9756 25.1615 41.9756 25.4833 41.9664L29.1325 44.7035C29.3118 44.838 29.5194 44.9299 29.7395 44.9722C29.9595 45.0145 30.1864 45.0062 30.4028 44.9478C32.1101 44.4871 33.7508 43.8081 35.2844 42.9276C35.4789 42.8159 35.6453 42.6613 35.7712 42.4757C35.897 42.2901 35.9789 42.0782 36.0106 41.8562L36.657 37.3279C36.8817 37.1077 37.1032 36.8843 37.3214 36.6578L41.8546 36.0102C42.0764 35.9786 42.2882 35.8968 42.4737 35.7712C42.6593 35.6455 42.8138 35.4792 42.9255 35.285C43.8071 33.7518 44.4871 32.1114 44.9489 30.4042C45.0074 30.1878 45.0158 29.9609 44.9735 29.7407C44.9312 29.5206 44.8393 29.313 44.7048 29.1336ZM24.9999 33.1176C23.3944 33.1176 21.8249 32.6415 20.49 31.7495C19.155 30.8575 18.1146 29.5897 17.5002 28.1064C16.8858 26.6231 16.725 24.9909 17.0382 23.4162C17.3515 21.8415 18.1246 20.3951 19.2599 19.2598C20.3951 18.1246 21.8416 17.3514 23.4162 17.0382C24.9909 16.725 26.6231 16.8857 28.1064 17.5002C29.5897 18.1146 30.8575 19.155 31.7495 20.49C32.6415 21.8249 33.1176 23.3944 33.1176 24.9999C33.1151 27.1521 32.2591 29.2154 30.7373 30.7372C29.2154 32.2591 27.1521 33.1151 24.9999 33.1176Z" fill="black"/>
</svg>
