<svg width="50" height="50" viewBox="0 0 50 50" fill="none" xmlns="http://www.w3.org/2000/svg">
<path d="M45 12.501C45.0003 11.0892 44.6021 9.70596 43.851 8.51043C43.1 7.3149 42.0268 6.35563 40.7547 5.74296C39.4827 5.13028 38.0635 4.8891 36.6604 5.04714C35.2574 5.20518 33.9274 5.75603 32.8236 6.63633C31.7197 7.51663 30.8868 8.69062 30.4206 10.0233C29.9544 11.3559 29.8739 12.793 30.1883 14.1694C30.5028 15.5458 31.1994 16.8054 32.198 17.8035C33.1966 18.8015 34.4567 19.4974 35.8333 19.8112V20.0003C35.8323 20.884 35.4808 21.7312 34.8559 22.3561C34.231 22.9809 33.3838 23.3324 32.5 23.3334L17.5 23.3338C16.616 23.3338 15.7681 22.9826 15.143 22.3576C14.5179 21.7325 14.1667 20.8847 14.1667 20.0008V19.8112C15.9645 19.4015 17.5484 18.3439 18.6157 16.8404C19.6831 15.337 20.1592 13.493 19.953 11.6608C19.7468 9.82864 18.8728 8.13659 17.498 6.9079C16.1232 5.67922 14.3439 5 12.5 5C10.6561 5 8.8768 5.67922 7.50199 6.9079C6.12718 8.13659 5.25322 9.82864 5.04705 11.6608C4.84088 13.493 5.31694 15.337 6.38431 16.8404C7.45168 18.3439 9.03554 19.4015 10.8333 19.8112V20.0008C10.8333 21.7687 11.5357 23.4643 12.786 24.7144C14.0362 25.9645 15.7319 26.6668 17.5 26.6668L23.3338 26.6666L23.3333 30.1888C21.5355 30.5985 19.9517 31.6561 18.8843 33.1596C17.8169 34.663 17.3409 36.507 17.547 38.3392C17.7532 40.1714 18.6272 41.8634 20.002 43.0921C21.3768 44.3208 23.1561 45 25 45C26.8439 45 28.6232 44.3208 29.998 43.0921C31.3728 41.8634 32.2468 40.1714 32.453 38.3392C32.6592 36.507 32.1831 34.663 31.1157 33.1596C30.0483 31.6561 28.4645 30.5985 26.6667 30.1888L26.6669 26.6666H32.5002C34.2676 26.6645 35.9621 25.9615 37.2118 24.7118C38.4615 23.4621 39.1645 21.7678 39.1665 20.0005V19.8112C40.8222 19.4317 42.3004 18.5023 43.3598 17.1747C44.4192 15.847 44.9974 14.1995 44.9998 12.501H45ZM8.33335 12.501C8.33335 11.677 8.57772 10.8715 9.03556 10.1863C9.4934 9.50117 10.1441 8.96716 10.9055 8.65183C11.6669 8.33649 12.5046 8.25398 13.3129 8.41474C14.1211 8.5755 14.8636 8.9723 15.4463 9.55497C16.029 10.1376 16.4258 10.88 16.5866 11.6882C16.7474 12.4964 16.6649 13.3341 16.3495 14.0954C16.0341 14.8567 15.5001 15.5073 14.8149 15.9651C14.1297 16.4229 13.3241 16.6673 12.5 16.6673C11.3953 16.666 10.3363 16.2267 9.55514 15.4456C8.77401 14.6646 8.33462 13.6056 8.33335 12.501ZM29.1667 37.4992C29.1667 38.3232 28.9223 39.1288 28.4645 39.8139C28.0066 40.499 27.3559 41.0331 26.5945 41.3484C25.8332 41.6637 24.9954 41.7462 24.1871 41.5855C23.3789 41.4247 22.6364 41.0279 22.0537 40.4452C21.471 39.8626 21.0742 39.1202 20.9134 38.312C20.7526 37.5038 20.8351 36.6661 21.1505 35.9049C21.4659 35.1436 21.9999 34.4929 22.6851 34.0351C23.3703 33.5773 24.1759 33.3329 25 33.3329C26.1047 33.3341 27.1638 33.7735 27.9449 34.5545C28.7261 35.3356 29.1655 36.3946 29.1667 37.4992ZM37.5 16.6673C36.6759 16.6673 35.8703 16.4229 35.1851 15.9651C34.4999 15.5073 33.9659 14.8567 33.6505 14.0954C33.3351 13.3341 33.2526 12.4964 33.4134 11.6882C33.5742 10.88 33.971 10.1376 34.5537 9.55497C35.1364 8.9723 35.8789 8.5755 36.6871 8.41474C37.4954 8.25398 38.3332 8.33649 39.0945 8.65183C39.8559 8.96716 40.5066 9.50117 40.9645 10.1863C41.4223 10.8715 41.6667 11.677 41.6667 12.501C41.6654 13.6056 41.226 14.6646 40.4449 15.4456C39.6638 16.2267 38.6047 16.666 37.5 16.6673Z" fill="black"/>
</svg>
