<svg width="50" height="50" viewBox="0 0 50 50" fill="none" xmlns="http://www.w3.org/2000/svg">
<path d="M40.8333 43.9998H40.8329L31.3318 43.9986C30.4923 43.9975 29.6875 43.6638 29.0939 43.0707C28.5004 42.4775 28.1665 41.6734 28.1655 40.8346V31.3424H21.8321V40.8344C21.8312 41.6732 21.4973 42.4773 20.9037 43.0705C20.3101 43.6636 19.5054 43.9973 18.6659 43.9984L9.16706 44C8.75118 44.0001 8.33935 43.9183 7.95511 43.7593C7.57087 43.6003 7.22173 43.3672 6.92764 43.0734C6.63354 42.7796 6.40025 42.4308 6.24109 42.0469C6.08192 41.663 6 41.2515 6 40.836V22.552C6.00035 22.1111 6.0927 21.6752 6.27117 21.2721C6.44964 20.8689 6.71029 20.5074 7.03649 20.2106L22.8684 5.82757C23.45 5.29533 24.21 5.00007 24.9986 5C25.7873 4.99993 26.5473 5.29504 27.129 5.82717L42.9637 20.2108C43.2898 20.5076 43.5504 20.8691 43.7288 21.2722C43.9072 21.6753 43.9996 22.1112 44 22.552V40.836C44 41.6751 43.6664 42.4799 43.0725 43.0733C42.4786 43.6666 41.6732 44 40.8333 44V43.9998ZM21.8321 28.1784H28.1655C29.005 28.1793 29.8099 28.5129 30.4036 29.1061C30.9973 29.6993 31.3312 30.5035 31.3321 31.3424V40.8364L40.8333 40.836V22.552L24.9988 8.16854L9.16667 22.5518V40.8358L18.6655 40.8346V31.3424C18.6664 30.5035 19.0004 29.6993 19.594 29.1061C20.1877 28.5129 20.9926 28.1793 21.8321 28.1784Z" fill="black"/>
</svg>
