<svg width="50" height="50" viewBox="0 0 50 50" fill="none" xmlns="http://www.w3.org/2000/svg">
<path d="M44.9998 17.9375C44.9998 23.5092 41.7196 29.2405 35.2502 34.9719C32.3158 37.5612 29.1243 39.8535 25.7239 41.814C25.5027 41.936 25.2534 42 24.9999 42C24.7464 42 24.4971 41.936 24.2759 41.814C23.4889 41.3801 5 31.0375 5 17.9375C5.00077 15.6424 5.73473 13.4056 7.098 11.5437C8.46128 9.68185 10.3848 8.28912 12.5965 7.56262C14.8081 6.83611 17.1959 6.81264 19.4218 7.4955C21.6478 8.17837 23.5992 9.533 25 11.3677C26.4008 9.533 28.3522 8.17837 30.5782 7.4955C32.8041 6.81264 35.1919 6.83611 37.4035 7.56262C39.6152 8.28912 41.5387 9.68185 42.902 11.5437C44.2653 13.4056 44.9992 15.6424 45 17.9375H44.9998Z" fill="black"/>
</svg>
