<svg width="50" height="50" viewBox="0 0 50 50" fill="none" xmlns="http://www.w3.org/2000/svg">
<path d="M44 22.552V40.8359C43.9996 41.4094 43.8441 41.972 43.5499 42.4643C43.2557 42.9566 42.8338 43.3604 42.3288 43.6327C41.8713 43.8802 41.3579 44.0065 40.8377 43.9997H31.3265C30.9066 43.9997 30.5038 43.8331 30.2069 43.5364C29.91 43.2397 29.7432 42.8373 29.7432 42.4177V32.9244C29.7432 32.5048 29.5763 32.1024 29.2794 31.8057C28.9825 31.5091 28.5798 31.3424 28.1598 31.3424H21.8265C21.4066 31.3424 21.0039 31.5091 20.707 31.8057C20.41 32.1024 20.2432 32.5048 20.2432 32.9244V42.4177C20.2432 42.8373 20.0764 43.2397 19.7795 43.5364C19.4825 43.8331 19.0798 43.9997 18.6599 43.9997H9.16726C8.71833 44.0009 8.27434 43.9062 7.86504 43.7219C7.45574 43.5376 7.09059 43.2681 6.79405 42.9313C6.2735 42.3298 5.99114 41.5587 6.00021 40.7636V22.5518C6.00056 22.111 6.09291 21.6751 6.27138 21.272C6.44985 20.8688 6.7105 20.5073 7.0367 20.2105L22.8686 5.82756C23.4501 5.29533 24.2101 5.00007 24.9987 5C25.7874 4.99993 26.5474 5.29504 27.1291 5.82717L42.9637 20.2107C43.2898 20.5075 43.5504 20.8691 43.7288 21.2722C43.9073 21.6754 43.9996 22.1112 44 22.552Z" fill="black"/>
</svg>
