<svg width="50" height="50" viewBox="0 0 50 50" fill="none" xmlns="http://www.w3.org/2000/svg">
<path d="M25 43C24.7465 43.0001 24.4971 42.9342 24.2759 42.8088C23.4889 42.3625 5 31.7243 5 18.25C5.00077 15.8893 5.73473 13.5887 7.098 11.6736C8.46128 9.75848 10.3848 8.32595 12.5965 7.57869C14.8081 6.83143 17.1959 6.80728 19.4218 7.50966C21.6478 8.21204 23.5992 9.60538 25 11.4925C26.4008 9.60538 28.3522 8.21204 30.5782 7.50966C32.8041 6.80728 35.1919 6.83143 37.4035 7.57869C39.6152 8.32595 41.5387 9.75848 42.902 11.6736C44.2653 13.5887 44.9992 15.8893 45 18.25C45 23.9809 41.7196 29.8759 35.2504 35.7711C32.3159 38.4345 29.1244 40.7922 25.7239 42.8088C25.5027 42.9342 25.2535 43 25 43ZM16.1111 10C13.9508 10.0025 11.8797 10.8725 10.3522 12.4191C8.82466 13.9658 7.96541 16.0627 7.96296 18.25C7.96296 28.6084 21.663 37.6973 24.9994 39.7563C28.3346 37.6951 42.037 28.5931 42.037 18.25C42.0365 16.3432 41.3838 14.4955 40.1899 13.0208C38.996 11.5462 37.3345 10.5358 35.4879 10.1613C33.6414 9.78674 31.7237 10.0713 30.0609 10.9665C28.3981 11.8617 27.0929 13.3124 26.367 15.0719C26.2544 15.3449 26.0645 15.5782 25.8213 15.7422C25.578 15.9063 25.2923 15.9938 25 15.9938C24.7077 15.9938 24.422 15.9063 24.1787 15.7422C23.9355 15.5782 23.7456 15.3449 23.633 15.0719C23.0152 13.568 21.9709 12.2834 20.632 11.3806C19.2931 10.4778 17.7198 9.99732 16.1111 10Z" fill="black"/>
</svg>
