<svg width="50" height="50" viewBox="0 0 50 50" fill="none" xmlns="http://www.w3.org/2000/svg">
<path d="M30.1845 5C27.8462 5.00169 25.5415 5.55648 23.4586 6.61905C21.3756 7.68161 19.5736 9.22183 18.1996 11.1139C16.8256 13.006 15.9186 15.1962 15.5527 17.5058C15.1868 19.8153 15.3724 22.1787 16.0943 24.4028L5.43388 35.0635C5.15609 35.3414 5.00003 35.7182 5 36.1111V43.5185C5 43.9114 5.15608 44.2883 5.4339 44.5661C5.71173 44.8439 6.08854 45 6.48144 45H13.8887C14.2816 45 14.6584 44.8439 14.9362 44.5661C15.214 44.2883 15.3701 43.9114 15.3701 43.5185V40.5556H18.333C18.7259 40.5556 19.1027 40.3995 19.3805 40.1216C19.6583 39.8438 19.8144 39.467 19.8144 39.0741V36.1111H22.7773C23.1702 36.1111 23.547 35.955 23.8249 35.6772L25.5967 33.9054C27.6335 34.5686 29.7899 34.7822 31.9173 34.5316C34.0446 34.2809 36.0923 33.572 37.9193 32.4536C39.7462 31.3352 41.3089 29.8339 42.4997 28.0533C43.6905 26.2727 44.481 24.255 44.8168 22.1393C45.1526 20.0237 45.0257 17.8604 44.4448 15.7986C43.8639 13.7367 42.8428 11.8253 41.452 10.1962C40.0611 8.56703 38.3336 7.25884 36.3884 6.36178C34.4432 5.46472 32.3266 5.00012 30.1845 5ZM30.1845 31.6667C28.6847 31.6693 27.1982 31.3858 25.8046 30.8315C25.532 30.7135 25.2302 30.6802 24.9384 30.7358C24.6466 30.7915 24.3783 30.9335 24.1682 31.1435L22.1638 33.1481H18.333C17.9401 33.1481 17.5633 33.3042 17.2854 33.5821C17.0076 33.8599 16.8515 34.2367 16.8515 34.6296V37.5926H13.8887C13.4958 37.5926 13.1189 37.7487 12.8411 38.0265C12.5633 38.3043 12.4072 38.6812 12.4072 39.0741V42.037H7.96289V36.7246L18.8561 25.8313C19.0661 25.6212 19.2082 25.3529 19.2638 25.0612C19.3195 24.7694 19.2862 24.4676 19.1683 24.195C18.2308 21.8387 18.0737 19.2439 18.7199 16.7917C19.3661 14.3396 20.7817 12.1592 22.7586 10.5711C24.7356 8.9829 27.1698 8.07061 29.7036 7.96819C32.2373 7.86577 34.7372 8.57864 36.8359 10.0021C38.9346 11.4255 40.5215 13.4844 41.3635 15.8765C42.2055 18.2685 42.2583 20.8675 41.514 23.2918C40.7697 25.716 39.2677 27.8377 37.2284 29.3451C35.1892 30.8525 32.7204 31.6662 30.1845 31.6667ZM36.1097 16.1111C36.1097 16.5506 35.9794 16.9803 35.7352 17.3457C35.4911 17.7112 35.144 17.996 34.738 18.1642C34.3319 18.3324 33.8851 18.3764 33.4541 18.2906C33.023 18.2049 32.627 17.9932 32.3163 17.6825C32.0055 17.3717 31.7939 16.9757 31.7081 16.5446C31.6224 16.1136 31.6664 15.6668 31.8346 15.2607C32.0028 14.8546 32.2876 14.5076 32.653 14.2634C33.0184 14.0192 33.4481 13.8889 33.8876 13.8889C34.4767 13.8895 35.0416 14.1239 35.4582 14.5405C35.8748 14.9571 36.1091 15.5219 36.1097 16.1111Z" fill="black"/>
</svg>
