<svg width="50" height="50" viewBox="0 0 50 50" fill="none" xmlns="http://www.w3.org/2000/svg">
<path d="M30.1845 5C27.8462 5.00172 25.5415 5.55653 23.4586 6.61911C21.3757 7.68169 19.5737 9.22191 18.1997 11.114C16.8257 13.006 15.9187 15.1963 15.5529 17.5058C15.187 19.8153 15.3726 22.1787 16.0945 24.4028L5.43388 35.0635C5.15609 35.3414 5.00003 35.7182 5 36.1111V43.5185C5 43.9114 5.15608 44.2883 5.4339 44.5661C5.71173 44.8439 6.08854 45 6.48144 45H13.8887C14.2816 45 14.6584 44.8439 14.9362 44.5661C15.214 44.2883 15.3701 43.9114 15.3701 43.5185V40.5556H18.333C18.7259 40.5556 19.1027 40.3995 19.3805 40.1216C19.6583 39.8438 19.8144 39.467 19.8144 39.0741V36.1111H22.7773C23.1703 36.1111 23.5472 35.9551 23.8251 35.6772L25.5967 33.9054C27.6335 34.5686 29.7899 34.7822 31.9173 34.5316C34.0446 34.2809 36.0923 33.572 37.9193 32.4536C39.7462 31.3352 41.3089 29.8339 42.4997 28.0533C43.6905 26.2727 44.481 24.255 44.8168 22.1393C45.1526 20.0237 45.0257 17.8604 44.4448 15.7986C43.8639 13.7367 42.8428 11.8253 41.452 10.1962C40.0611 8.56703 38.3336 7.25884 36.3884 6.36178C34.4432 5.46472 32.3266 5.00012 30.1845 5ZM33.8878 19.0741C33.3018 19.0741 32.7289 18.9003 32.2417 18.5747C31.7544 18.2491 31.3747 17.7864 31.1504 17.245C30.9262 16.7036 30.8675 16.1078 30.9818 15.5331C31.0961 14.9583 31.3783 14.4304 31.7927 14.016C32.2071 13.6016 32.735 13.3194 33.3097 13.2051C33.8845 13.0908 34.4802 13.1494 35.0216 13.3737C35.563 13.5979 36.0257 13.9777 36.3513 14.465C36.6769 14.9522 36.8506 15.5251 36.8506 16.1111C36.8506 16.8969 36.5385 17.6506 35.9828 18.2062C35.4272 18.7619 34.6736 19.0741 33.8878 19.0741Z" fill="black"/>
</svg>
