<svg width="50" height="50" viewBox="0 0 50 50" fill="none" xmlns="http://www.w3.org/2000/svg">
<path d="M45 24.9268C45 25.3796 44.8245 25.8139 44.512 26.1341C44.1995 26.4542 43.7757 26.6341 43.3338 26.6341H20.0073C19.5654 26.6341 19.1416 26.4542 18.8292 26.1341C18.5167 25.8139 18.3412 25.3796 18.3412 24.9268C18.3412 24.474 18.5167 24.0397 18.8292 23.7195C19.1416 23.3994 19.5654 23.2195 20.0073 23.2195H43.3338C43.7757 23.2195 44.1995 23.3994 44.512 23.7195C44.8245 24.0397 45 24.474 45 24.9268ZM20.0073 12.9756H43.3338C43.7757 12.9756 44.1995 12.7957 44.512 12.4755C44.8245 12.1553 45 11.7211 45 11.2682C45 10.8154 44.8245 10.3812 44.512 10.061C44.1995 9.7408 43.7757 9.56092 43.3338 9.56092H20.0073C19.5654 9.56092 19.1416 9.7408 18.8292 10.061C18.5167 10.3812 18.3412 10.8154 18.3412 11.2682C18.3412 11.7211 18.5167 12.1553 18.8292 12.4755C19.1416 12.7957 19.5654 12.9756 20.0073 12.9756ZM43.3338 36.878H20.0071C19.5652 36.878 19.1414 37.0579 18.829 37.3781C18.5165 37.6983 18.3409 38.1326 18.3409 38.5854C18.3409 39.0382 18.5165 39.4724 18.829 39.7926C19.1414 40.1128 19.5652 40.2927 20.0071 40.2927H43.3338C43.7757 40.2927 44.1995 40.1128 44.512 39.7926C44.8245 39.4724 45 39.0382 45 38.5854C45 38.1326 44.8245 37.6983 44.512 37.3781C44.1995 37.0579 43.7757 36.878 43.3338 36.878ZM7.42302 11.9416L8.344 11.4699V20.6574C8.344 21.1102 8.51955 21.5445 8.83202 21.8647C9.14449 22.1849 9.56829 22.3648 10.0102 22.3648C10.4521 22.3648 10.8759 22.1849 11.1884 21.8647C11.5008 21.5445 11.6764 21.1102 11.6764 20.6574V8.70726C11.6764 8.41624 11.6038 8.13005 11.4655 7.87586C11.3271 7.62168 11.1277 7.40795 10.8861 7.25495C10.6445 7.10196 10.3687 7.01479 10.085 7.00172C9.80129 6.98865 9.51901 7.05012 9.26499 7.18028L5.93261 8.8876C5.73517 8.98681 5.55884 9.12508 5.4138 9.29445C5.26877 9.46381 5.15788 9.66092 5.08754 9.87441C5.0172 10.0879 4.9888 10.3136 5.00397 10.5383C5.01914 10.7631 5.07759 10.9826 5.17595 11.1842C5.2743 11.3857 5.41061 11.5653 5.57703 11.7126C5.74344 11.8599 5.93666 11.972 6.14555 12.0424C6.35444 12.1128 6.57486 12.1401 6.79412 12.1228C7.01337 12.1055 7.22711 12.0439 7.42302 11.9416ZM13.3921 33.9553C13.7496 33.4124 13.9922 32.7989 14.1045 32.1542C14.2167 31.5095 14.1961 30.8478 14.044 30.2118C13.8919 29.5757 13.6116 28.9793 13.2211 28.4608C12.8307 27.9423 12.3387 27.5133 11.7768 27.2012C11.2149 26.8891 10.5955 26.701 9.95846 26.6488C9.32137 26.5966 8.68068 26.6815 8.07754 26.8981C7.47439 27.1148 6.92214 27.4583 6.45626 27.9066C5.99038 28.3549 5.62117 28.8981 5.37235 29.5014C5.28533 29.7082 5.2391 29.9306 5.23632 30.1558C5.23355 30.381 5.27428 30.6045 5.35617 30.8135C5.43806 31.0225 5.5595 31.2128 5.71348 31.3735C5.86747 31.5342 6.05096 31.6621 6.25338 31.7498C6.45581 31.8375 6.67318 31.8834 6.89296 31.8846C7.11274 31.8859 7.3306 31.8426 7.53398 31.7572C7.73737 31.6719 7.92226 31.5461 8.07801 31.3872C8.23375 31.2283 8.35728 31.0394 8.44147 30.8314C8.50888 30.6683 8.60854 30.5214 8.73415 30.3999C8.85976 30.2783 9.0086 30.1847 9.17128 30.1251C9.33395 30.0654 9.50693 30.041 9.67929 30.0533C9.85164 30.0656 10.0196 30.1144 10.1727 30.1965C10.3257 30.2787 10.4605 30.3925 10.5684 30.5307C10.6764 30.6689 10.7552 30.8286 10.7999 30.9996C10.8447 31.1706 10.8543 31.3493 10.8282 31.5243C10.8022 31.6993 10.741 31.8669 10.6486 32.0164L5.34444 39.2687C5.15888 39.5224 5.04592 39.824 5.01821 40.1398C4.9905 40.4555 5.04914 40.773 5.18756 41.0565C5.32598 41.34 5.53871 41.5785 5.80192 41.7451C6.06512 41.9118 6.36842 42 6.67781 42H12.5095C12.9514 42 13.3752 41.8201 13.6877 41.4999C14.0001 41.1798 14.1757 40.7455 14.1757 40.2927C14.1757 39.8399 14.0001 39.4056 13.6877 39.0854C13.3752 38.7652 12.9514 38.5854 12.5095 38.5854H10.0085L13.3449 34.0236C13.3611 34.0014 13.3769 33.9788 13.3921 33.9553Z" fill="black"/>
</svg>
