<svg width="50" height="50" viewBox="0 0 50 50" fill="none" xmlns="http://www.w3.org/2000/svg">
<path d="M45 24.5C45 24.9862 44.8244 25.4525 44.5118 25.7964C44.1993 26.1402 43.7754 26.3333 43.3333 26.3333H6.66667C6.22464 26.3333 5.80072 26.1402 5.48816 25.7964C5.1756 25.4525 5 24.9862 5 24.5C5 24.0138 5.1756 23.5475 5.48816 23.2036C5.80072 22.8598 6.22464 22.6667 6.66667 22.6667H43.3333C43.7754 22.6667 44.1993 22.8598 44.5118 23.2036C44.8244 23.5475 45 24.0138 45 24.5ZM6.66667 11.6667H43.3333C43.7754 11.6667 44.1993 11.4735 44.5118 11.1297C44.8244 10.7859 45 10.3196 45 9.83333C45 9.3471 44.8244 8.88079 44.5118 8.53697C44.1993 8.19315 43.7754 8 43.3333 8H6.66667C6.22464 8 5.80072 8.19315 5.48816 8.53697C5.1756 8.88079 5 9.3471 5 9.83333C5 10.3196 5.1756 10.7859 5.48816 11.1297C5.80072 11.4735 6.22464 11.6667 6.66667 11.6667ZM43.3333 37.3333H6.66667C6.22464 37.3333 5.80072 37.5265 5.48816 37.8703C5.1756 38.2141 5 38.6804 5 39.1667C5 39.6529 5.1756 40.1192 5.48816 40.463C5.80072 40.8068 6.22464 41 6.66667 41H43.3333C43.7754 41 44.1993 40.8068 44.5118 40.463C44.8244 40.1192 45 39.6529 45 39.1667C45 38.6804 44.8244 38.2141 44.5118 37.8703C44.1993 37.5265 43.7754 37.3333 43.3333 37.3333Z" fill="black"/>
</svg>
