<svg width="50" height="50" viewBox="0 0 50 50" fill="none" xmlns="http://www.w3.org/2000/svg">
<path d="M17.0008 23.5707H33.0003C33.354 23.5707 33.6931 23.7212 33.9431 23.9891C34.1932 24.257 34.3336 24.6204 34.3336 24.9993C34.3336 25.3782 34.1932 25.7415 33.9431 26.0094C33.6931 26.2773 33.354 26.4279 33.0003 26.4279H17.0008C16.6472 26.4279 16.3081 26.2773 16.058 26.0094C15.808 25.7415 15.6675 25.3782 15.6675 24.9993C15.6675 24.6204 15.808 24.257 16.058 23.9891C16.3081 23.7212 16.6472 23.5707 17.0008 23.5707ZM20.9995 32.1429H14.3331C12.565 32.1429 10.8694 31.3903 9.61915 30.0508C8.36895 28.7112 7.66659 26.8944 7.66659 25C7.66659 23.1056 8.36895 21.2888 9.61915 19.9492C10.8694 18.6097 12.565 17.8571 14.3331 17.8571H20.9995C21.3531 17.8571 21.6923 17.7066 21.9423 17.4387C22.1924 17.1708 22.3328 16.8075 22.3328 16.4286C22.3328 16.0497 22.1924 15.6863 21.9423 15.4184C21.6923 15.1505 21.3531 15 20.9995 15H14.3331C11.8578 15 9.48388 16.0536 7.73359 17.9289C5.9833 19.8043 5 22.3478 5 25C5 27.6522 5.9833 30.1957 7.73359 32.0711C9.48388 33.9464 11.8578 35 14.3331 35H20.9995C21.3531 35 21.6923 34.8495 21.9423 34.5816C22.1924 34.3137 22.3328 33.9503 22.3328 33.5714C22.3328 33.1925 22.1924 32.8292 21.9423 32.5613C21.6923 32.2934 21.3531 32.1429 20.9995 32.1429ZM35.6669 15H29.0005C28.6469 15 28.3077 15.1505 28.0577 15.4184C27.8076 15.6863 27.6672 16.0497 27.6672 16.4286C27.6672 16.8075 27.8076 17.1708 28.0577 17.4387C28.3077 17.7066 28.6469 17.8571 29.0005 17.8571H35.6669C37.435 17.8571 39.1306 18.6097 40.3808 19.9492C41.6311 21.2888 42.3334 23.1056 42.3334 25C42.3334 26.8944 41.6311 28.7112 40.3808 30.0508C39.1306 31.3903 37.435 32.1429 35.6669 32.1429H29.0005C28.6469 32.1429 28.3077 32.2934 28.0577 32.5613C27.8076 32.8292 27.6672 33.1925 27.6672 33.5714C27.6672 33.9503 27.8076 34.3137 28.0577 34.5816C28.3077 34.8495 28.6469 35 29.0005 35H35.6669C38.1422 35 40.5161 33.9464 42.2664 32.0711C44.0167 30.1957 45 27.6522 45 25C45 22.3478 44.0167 19.8043 42.2664 17.9289C40.5161 16.0536 38.1422 15 35.6669 15Z" fill="black"/>
</svg>
