<svg width="50" height="50" viewBox="0 0 50 50" fill="none" xmlns="http://www.w3.org/2000/svg">
<path d="M16.6667 11.6667C16.6667 11.2246 16.8423 10.8007 17.1548 10.4882C17.4674 10.1756 17.8913 10 18.3333 10H43.3333C43.7754 10 44.1993 10.1756 44.5118 10.4882C44.8244 10.8007 45 11.2246 45 11.6667C45 12.1087 44.8244 12.5326 44.5118 12.8452C44.1993 13.1577 43.7754 13.3333 43.3333 13.3333H18.3333C17.8913 13.3333 17.4674 13.1577 17.1548 12.8452C16.8423 12.5326 16.6667 12.1087 16.6667 11.6667ZM43.3333 23.3333H18.3346C17.8926 23.3333 17.4686 23.5089 17.1561 23.8215C16.8435 24.134 16.6679 24.558 16.6679 25C16.6679 25.442 16.8435 25.866 17.1561 26.1785C17.4686 26.4911 17.8926 26.6667 18.3346 26.6667H43.3333C43.7754 26.6667 44.1993 26.4911 44.5118 26.1785C44.8244 25.866 45 25.442 45 25C45 24.558 44.8244 24.134 44.5118 23.8215C44.1993 23.5089 43.7754 23.3333 43.3333 23.3333ZM43.3333 36.6667H18.3346C17.8926 36.6667 17.4686 36.8423 17.1561 37.1548C16.8435 37.4674 16.6679 37.8913 16.6679 38.3333C16.6679 38.7754 16.8435 39.1993 17.1561 39.5118C17.4686 39.8244 17.8926 40 18.3346 40H43.3333C43.7754 40 44.1993 39.8244 44.5118 39.5118C44.8244 39.1993 45 38.7754 45 38.3333C45 37.8913 44.8244 37.4674 44.5118 37.1548C44.1993 36.8423 43.7754 36.6667 43.3333 36.6667ZM10 10H6.66667C6.22464 10 5.80072 10.1756 5.48816 10.4882C5.1756 10.8007 5 11.2246 5 11.6667C5 12.1087 5.1756 12.5326 5.48816 12.8452C5.80072 13.1577 6.22464 13.3333 6.66667 13.3333H10C10.442 13.3333 10.866 13.1577 11.1785 12.8452C11.4911 12.5326 11.6667 12.1087 11.6667 11.6667C11.6667 11.2246 11.4911 10.8007 11.1785 10.4882C10.866 10.1756 10.442 10 10 10ZM10 23.3333H6.66792C6.22589 23.3333 5.80197 23.5089 5.4894 23.8215C5.17684 24.134 5.00125 24.558 5.00125 25C5.00125 25.442 5.17684 25.866 5.4894 26.1785C5.80197 26.4911 6.22589 26.6667 6.66792 26.6667H10C10.442 26.6667 10.866 26.4911 11.1785 26.1785C11.4911 25.866 11.6667 25.442 11.6667 25C11.6667 24.558 11.4911 24.134 11.1785 23.8215C10.866 23.5089 10.442 23.3333 10 23.3333ZM10 36.6667H6.66792C6.22589 36.6667 5.80197 36.8423 5.4894 37.1548C5.17684 37.4674 5.00125 37.8913 5.00125 38.3333C5.00125 38.7754 5.17684 39.1993 5.4894 39.5118C5.80197 39.8244 6.22589 40 6.66792 40H10C10.442 40 10.866 39.8244 11.1785 39.5118C11.4911 39.1993 11.6667 38.7754 11.6667 38.3333C11.6667 37.8913 11.4911 37.4674 11.1785 37.1548C10.866 36.8423 10.442 36.6667 10 36.6667Z" fill="black"/>
</svg>
