<svg width="50" height="50" viewBox="0 0 50 50" fill="none" xmlns="http://www.w3.org/2000/svg">
<path d="M31.6511 18.351C31.903 18.603 32.0445 18.9446 32.0445 19.3008C32.0445 19.657 31.903 19.9986 31.6511 20.2505L20.253 31.6472C20.1283 31.7719 19.9802 31.8708 19.8172 31.9383C19.6542 32.0058 19.4795 32.0405 19.3031 32.0405C19.1267 32.0405 18.952 32.0058 18.789 31.9383C18.626 31.8708 18.4779 31.7718 18.3532 31.6471C18.2284 31.5223 18.1295 31.3743 18.062 31.2113C17.9945 31.0483 17.9598 30.8737 17.9598 30.6973C17.9598 30.5209 17.9945 30.3462 18.062 30.1833C18.1296 30.0203 18.2285 29.8722 18.3533 29.7475L29.7514 18.351C30.0034 18.0993 30.345 17.9578 30.7013 17.9578C31.0575 17.9578 31.3991 18.0993 31.6511 18.351ZM26.9014 32.5981L22.1523 37.3466C20.8895 38.5907 19.1861 39.2851 17.4134 39.2786C15.6407 39.2721 13.9425 38.565 12.689 37.3117C11.4355 36.0584 10.7284 34.3604 10.7218 32.5879C10.7153 30.8154 11.4098 29.1122 12.654 27.8497L17.4032 23.1011C17.6552 22.8492 17.7967 22.5075 17.7967 22.1513C17.7967 21.795 17.6552 21.4534 17.4032 21.2015C17.1513 20.9496 16.8096 20.808 16.4533 20.808C16.097 20.808 15.7553 20.9496 15.5033 21.2015L10.7541 25.95C8.99071 27.7132 8.00002 30.1046 8 32.5981C7.99998 35.0916 8.99065 37.483 10.7541 39.2462C12.5175 41.0094 14.9092 42 17.403 42C19.8969 42 22.2886 41.0095 24.052 39.2463L28.8013 34.4976C28.9261 34.3728 29.025 34.2248 29.0925 34.0618C29.16 33.8988 29.1948 33.7242 29.1948 33.5478C29.1948 33.3714 29.16 33.1967 29.0925 33.0338C29.025 32.8708 28.926 32.7227 28.8013 32.598C28.6765 32.4733 28.5284 32.3743 28.3654 32.3068C28.2024 32.2394 28.0277 32.2046 27.8513 32.2046C27.6749 32.2046 27.5002 32.2394 27.3372 32.3069C27.1743 32.3744 27.0262 32.4734 26.9014 32.5981ZM39.2504 10.7536C37.487 8.99048 35.0953 8 32.6015 8C30.1077 8 27.716 8.99048 25.9526 10.7536L21.2034 15.5021C21.0786 15.6269 20.9797 15.7749 20.9122 15.9379C20.8447 16.1008 20.8099 16.2755 20.8099 16.4519C20.8099 16.6283 20.8447 16.8029 20.9122 16.9659C20.9797 17.1288 21.0786 17.2769 21.2034 17.4016C21.3281 17.5264 21.4762 17.6253 21.6392 17.6928C21.8022 17.7603 21.9769 17.795 22.1533 17.795C22.3297 17.795 22.5043 17.7603 22.6673 17.6928C22.8303 17.6253 22.9784 17.5264 23.1031 17.4016L27.8523 12.6531C29.1145 11.4063 30.8188 10.7095 32.593 10.7149C34.3672 10.7202 36.0673 11.4273 37.3219 12.6817C38.5765 13.9361 39.2837 15.6359 39.2891 17.4099C39.2945 19.1839 38.5976 20.888 37.3507 22.15L32.6013 26.8988C32.3494 27.1507 32.2079 27.4923 32.2079 27.8486C32.2079 28.2048 32.3495 28.5465 32.6014 28.7983C32.8534 29.0502 33.1951 29.1917 33.5514 29.1917C33.9076 29.1917 34.2493 29.0502 34.5012 28.7983L39.2504 24.0497C41.0112 22.2851 42 19.8943 42 17.4016C42 14.909 41.0112 12.5182 39.2504 10.7536Z" fill="black"/>
</svg>
