<svg width="50" height="50" viewBox="0 0 50 50" fill="none" xmlns="http://www.w3.org/2000/svg">
<path d="M15 11.5263C15 11.0796 15.1756 10.6513 15.4882 10.3354C15.8007 10.0195 16.2246 9.84211 16.6667 9.84211H43.3333C43.7754 9.84211 44.1993 10.0195 44.5118 10.3354C44.8244 10.6513 45 11.0796 45 11.5263C45 11.973 44.8244 12.4014 44.5118 12.7172C44.1993 13.0331 43.7754 13.2105 43.3333 13.2105H16.6667C16.2246 13.2105 15.8007 13.0331 15.4882 12.7172C15.1756 12.4014 15 11.973 15 11.5263ZM43.3333 23.3158H16.6679C16.2259 23.3158 15.802 23.4932 15.4894 23.8091C15.1768 24.1249 15.0013 24.5533 15.0013 25C15.0013 25.4467 15.1768 25.8751 15.4894 26.1909C15.802 26.5068 16.2259 26.6842 16.6679 26.6842H43.3333C43.7754 26.6842 44.1993 26.5068 44.5118 26.1909C44.8244 25.8751 45 25.4467 45 25C45 24.5533 44.8244 24.1249 44.5118 23.8091C44.1993 23.4932 43.7754 23.3158 43.3333 23.3158ZM43.3333 36.7895H16.6679C16.2259 36.7895 15.802 36.9669 15.4894 37.2828C15.1768 37.5986 15.0013 38.027 15.0013 38.4737C15.0013 38.9204 15.1768 39.3488 15.4894 39.6646C15.802 39.9805 16.2259 40.1579 16.6679 40.1579H43.3333C43.7754 40.1579 44.1993 39.9805 44.5118 39.6646C44.8244 39.3488 45 38.9204 45 38.4737C45 38.027 44.8244 37.5986 44.5118 37.2828C44.1993 36.9669 43.7754 36.7895 43.3333 36.7895ZM7.5 9C7.00555 9 6.5222 9.14817 6.11108 9.42576C5.69995 9.70336 5.37952 10.0979 5.1903 10.5595C5.00108 11.0212 4.95157 11.5291 5.04804 12.0192C5.1445 12.5092 5.3826 12.9594 5.73223 13.3127C6.08187 13.666 6.52732 13.9066 7.01228 14.0041C7.49723 14.1016 7.99989 14.0515 8.45671 13.8603C8.91352 13.6691 9.30397 13.3453 9.57867 12.9299C9.85338 12.5144 10 12.026 10 11.5263C10 10.8563 9.73661 10.2137 9.26777 9.73994C8.79893 9.26616 8.16304 9 7.5 9ZM7.5 22.4737C7.00555 22.4737 6.5222 22.6219 6.11108 22.8994C5.69995 23.177 5.37952 23.5716 5.1903 24.0332C5.00108 24.4948 4.95157 25.0028 5.04804 25.4929C5.1445 25.9829 5.3826 26.4331 5.73223 26.7864C6.08187 27.1397 6.52732 27.3803 7.01228 27.4778C7.49723 27.5753 7.99989 27.5252 8.45671 27.334C8.91352 27.1428 9.30397 26.819 9.57867 26.4035C9.85338 25.9881 10 25.4997 10 25C10 24.33 9.73661 23.6874 9.26777 23.2136C8.79893 22.7398 8.16304 22.4737 7.5 22.4737ZM7.5 35.9474C7.00555 35.9474 6.5222 36.0955 6.11108 36.3731C5.69995 36.6507 5.37952 37.0453 5.1903 37.5069C5.00108 37.9685 4.95157 38.4765 5.04804 38.9665C5.1445 39.4566 5.3826 39.9067 5.73223 40.2601C6.08187 40.6134 6.52732 40.854 7.01228 40.9515C7.49723 41.0489 7.99989 40.9989 8.45671 40.8077C8.91352 40.6165 9.30397 40.2927 9.57867 39.8772C9.85338 39.4618 10 38.9733 10 38.4737C10 37.8037 9.73661 37.1611 9.26777 36.6873C8.79893 36.2135 8.16304 35.9474 7.5 35.9474Z" fill="black"/>
</svg>
