<svg width="50" height="50" viewBox="0 0 50 50" fill="none" xmlns="http://www.w3.org/2000/svg">
<path d="M38.0909 42.1429H29.0982C30.6112 40.8183 32.038 39.4018 33.3704 37.9018C38.3616 32.2641 41 26.3209 41 20.7143C41 16.5466 39.3143 12.5496 36.3137 9.60261C33.3131 6.65561 29.2435 5 25 5C20.7565 5 16.6869 6.65561 13.6863 9.60261C10.6857 12.5496 9 16.5466 9 20.7143C9 26.3207 11.6382 32.2641 16.6296 37.9018C17.962 39.4018 19.3888 40.8183 20.9018 42.1429H11.9091C11.5233 42.1429 11.1534 42.2934 10.8806 42.5613C10.6078 42.8292 10.4545 43.1926 10.4545 43.5714C10.4545 43.9503 10.6078 44.3137 10.8806 44.5816C11.1534 44.8495 11.5233 45 11.9091 45H38.0909C38.4767 45 38.8466 44.8495 39.1194 44.5816C39.3922 44.3137 39.5455 43.9503 39.5455 43.5714C39.5455 43.1926 39.3922 42.8292 39.1194 42.5613C38.8466 42.2934 38.4767 42.1429 38.0909 42.1429ZM25 15C26.1507 15 27.2756 15.3351 28.2324 15.963C29.1892 16.5909 29.9349 17.4834 30.3753 18.5275C30.8157 19.5717 30.9309 20.7206 30.7064 21.8291C30.4819 22.9376 29.9278 23.9557 29.1141 24.7549C28.3004 25.5541 27.2637 26.0983 26.1351 26.3188C25.0065 26.5393 23.8366 26.4261 22.7735 25.9936C21.7103 25.5611 20.8017 24.8287 20.1624 23.889C19.523 22.9493 19.1818 21.8445 19.1818 20.7143C19.1818 19.1988 19.7948 17.7453 20.8859 16.6737C21.977 15.602 23.4569 15 25 15Z" fill="black"/>
</svg>
