<svg width="50" height="50" viewBox="0 0 50 50" fill="none" xmlns="http://www.w3.org/2000/svg">
<path d="M25 5C21.0444 5 17.1776 6.17298 13.8886 8.37061C10.5996 10.5682 8.03617 13.6918 6.52242 17.3463C5.00867 21.0008 4.6126 25.0222 5.3843 28.9018C6.15601 32.7814 8.06082 36.3451 10.8579 39.1421C13.6549 41.9392 17.2186 43.844 21.0982 44.6157C24.9778 45.3874 28.9991 44.9913 32.6537 43.4776C36.3082 41.9638 39.4318 39.4004 41.6294 36.1114C43.827 32.8224 45 28.9556 45 25C44.994 19.6975 42.8849 14.6139 39.1355 10.8645C35.3861 7.11507 30.3025 5.00601 25 5ZM25 41.9231C21.6529 41.9231 18.381 40.9305 15.598 39.071C12.8151 37.2115 10.646 34.5685 9.36512 31.4762C8.08426 28.3839 7.74912 24.9812 8.4021 21.6985C9.05508 18.4157 10.6669 15.4003 13.0336 13.0336C15.4003 10.6668 18.4157 9.05508 21.6985 8.40209C24.9812 7.74911 28.3839 8.08425 31.4762 9.36511C34.5685 10.646 37.2115 12.8151 39.071 15.598C40.9306 18.381 41.9231 21.6529 41.9231 25C41.918 29.4867 40.1334 33.7882 36.9608 36.9608C33.7882 40.1334 29.4867 41.918 25 41.9231ZM34.2308 25C34.2308 25.408 34.0687 25.7993 33.7802 26.0879C33.4917 26.3764 33.1003 26.5385 32.6923 26.5385H17.3077C16.8997 26.5385 16.5084 26.3764 16.2198 26.0879C15.9313 25.7993 15.7692 25.408 15.7692 25C15.7692 24.592 15.9313 24.2007 16.2198 23.9121C16.5084 23.6236 16.8997 23.4615 17.3077 23.4615H32.6923C33.1003 23.4615 33.4917 23.6236 33.7802 23.9121C34.0687 24.2007 34.2308 24.592 34.2308 25Z" fill="black"/>
</svg>
