<svg width="50" height="50" viewBox="0 0 50 50" fill="none" xmlns="http://www.w3.org/2000/svg">
<path d="M45 18.9056C45 19.2859 44.8468 19.6507 44.574 19.9196C44.3012 20.1885 43.9312 20.3396 43.5455 20.3396H40.6364V23.2075C40.6364 23.5878 40.4831 23.9525 40.2104 24.2214C39.9376 24.4904 39.5676 24.6414 39.1818 24.6414C38.7961 24.6414 38.4261 24.4904 38.1533 24.2214C37.8805 23.9525 37.7273 23.5878 37.7273 23.2075V20.3396H34.8182C34.4324 20.3396 34.0625 20.1885 33.7897 19.9196C33.5169 19.6507 33.3637 19.2859 33.3637 18.9056C33.3637 18.5253 33.5169 18.1606 33.7897 17.8916C34.0625 17.6227 34.4324 17.4717 34.8182 17.4717H37.7273V14.6037C37.7273 14.2234 37.8805 13.8587 38.1533 13.5898C38.4261 13.3209 38.7961 13.1698 39.1818 13.1698C39.5676 13.1698 39.9376 13.3209 40.2104 13.5898C40.4831 13.8587 40.6364 14.2234 40.6364 14.6037V17.4717H43.5455C43.9312 17.4717 44.3012 17.6227 44.574 17.8916C44.8468 18.1606 45 18.5253 45 18.9056ZM27.5455 11.7358H29.0001V13.1698C29.0001 13.5501 29.1533 13.9148 29.4261 14.1837C29.6989 14.4527 30.0688 14.6037 30.4546 14.6037C30.8404 14.6037 31.2103 14.4527 31.4831 14.1837C31.7559 13.9148 31.9091 13.5501 31.9091 13.1698V11.7358H33.3637C33.7494 11.7358 34.1194 11.5847 34.3922 11.3158C34.665 11.0469 34.8182 10.6822 34.8182 10.3019C34.8182 9.92156 34.665 9.55683 34.3922 9.28791C34.1194 9.01899 33.7494 8.86791 33.3637 8.86791H31.9091V7.43396C31.9091 7.05365 31.7559 6.68892 31.4831 6.42C31.2103 6.15108 30.8404 6 30.4546 6C30.0688 6 29.6989 6.15108 29.4261 6.42C29.1533 6.68892 29.0001 7.05365 29.0001 7.43396V8.86791H27.5455C27.1597 8.86791 26.7898 9.01899 26.517 9.28791C26.2442 9.55683 26.091 9.92156 26.091 10.3019C26.091 10.6822 26.2442 11.0469 26.517 11.3158C26.7898 11.5847 27.1597 11.7358 27.5455 11.7358ZM40.682 30.0396C40.7758 30.3169 40.7814 30.6159 40.698 30.8965C39.8437 33.9114 38.2035 36.6531 35.9406 38.849C33.6777 41.0449 30.8711 42.6184 27.7998 43.4129C24.7286 44.2074 21.4999 44.1953 18.4349 43.3777C15.3699 42.5602 12.5754 40.9656 10.3296 38.7528C8.08377 36.54 6.46482 33.786 5.63381 30.7648C4.80281 27.7436 4.78873 24.5606 5.59296 21.5324C6.3972 18.5042 7.99172 15.7364 10.2179 13.5043C12.444 11.2722 15.2243 9.65375 18.2819 8.80984C18.5335 8.73547 18.8008 8.72962 19.0555 8.79293C19.3102 8.85623 19.5428 8.98633 19.7286 9.1694C19.9143 9.35248 20.0463 9.58172 20.1106 9.83279C20.1749 10.0839 20.1691 10.3474 20.0937 10.5955C19.376 13.1613 19.3607 15.8688 20.0494 18.4424C20.7382 21.0159 22.1064 23.3636 24.0147 25.2463C25.9231 27.1291 28.3034 28.4797 30.9134 29.1606C33.5233 29.8416 36.2697 29.8286 38.8729 29.1229C39.2362 29.0125 39.6288 29.0466 39.9669 29.2179C40.305 29.3892 40.5616 29.6841 40.682 30.0396ZM37.0497 32.393C34.3058 32.7275 31.5207 32.4406 28.9062 31.5543C26.2917 30.6681 23.9167 29.2057 21.9617 27.2784C20.0067 25.3511 18.5233 23.0097 17.6242 20.4322C16.7252 17.8547 16.4342 15.1091 16.7734 12.404C14.5407 13.4219 12.5904 14.9562 11.0883 16.8766C9.58617 18.7969 8.57669 21.0465 8.14569 23.434C7.71469 25.8215 7.87491 28.2763 8.61274 30.5896C9.35056 32.903 10.6442 35.0065 12.3835 36.7212C14.1229 38.4359 16.2566 39.7112 18.6032 40.4385C20.9497 41.1659 23.4398 41.3238 25.8615 40.8988C28.2833 40.4739 30.5652 39.4786 32.5131 37.9978C34.4609 36.5169 36.0173 34.5941 37.0497 32.393Z" fill="black"/>
</svg>
