<svg width="50" height="50" viewBox="0 0 50 50" fill="none" xmlns="http://www.w3.org/2000/svg">
<path d="M30.4013 22.7173C30.4013 23.1249 30.2394 23.5158 29.9512 23.804C29.663 24.0922 29.2721 24.2541 28.8645 24.2541H24.254V28.8644C24.254 29.272 24.0921 29.6629 23.8039 29.9511C23.5157 30.2393 23.1248 30.4012 22.7172 30.4012C22.3096 30.4012 21.9187 30.2393 21.6305 29.9511C21.3423 29.6629 21.1804 29.272 21.1804 28.8644V24.2541H16.5699C16.1623 24.2541 15.7714 24.0922 15.4832 23.804C15.195 23.5158 15.0331 23.1249 15.0331 22.7173C15.0331 22.3097 15.195 21.9188 15.4832 21.6306C15.7714 21.3424 16.1623 21.1805 16.5699 21.1805H21.1804V16.5702C21.1804 16.1626 21.3423 15.7717 21.6305 15.4835C21.9187 15.1953 22.3096 15.0334 22.7172 15.0334C23.1248 15.0334 23.5157 15.1953 23.8039 15.4835C24.0921 15.7717 24.254 16.1626 24.254 16.5702V21.1805H28.8645C29.2721 21.1805 29.663 21.3424 29.9512 21.6306C30.2394 21.9188 30.4013 22.3097 30.4013 22.7173ZM44.5498 44.5499C44.4071 44.6926 44.2377 44.8058 44.0513 44.883C43.8648 44.9603 43.6649 45 43.4631 45C43.2613 45 43.0615 44.9603 42.875 44.883C42.6885 44.8058 42.5191 44.6926 42.3764 44.5499L34.0732 36.2469C30.5808 39.1787 26.0914 40.6493 21.5412 40.3519C16.991 40.0545 12.7312 38.0121 9.65024 34.6506C6.56925 31.2891 4.90487 26.868 5.0042 22.3093C5.10354 17.7506 6.9589 13.4062 10.1834 10.1821C13.4079 6.95802 17.7526 5.1031 22.3114 5.00417C26.8703 4.90524 31.2913 6.56996 34.6527 9.65116C38.014 12.7324 40.0561 16.9922 40.3531 21.5423C40.6501 26.0924 39.1791 30.5815 36.2468 34.0735L44.5498 42.3765C44.6926 42.5192 44.8058 42.6886 44.883 42.8751C44.9602 43.0615 45 43.2614 45 43.4632C45 43.665 44.9602 43.8648 44.883 44.0513C44.8058 44.2377 44.6926 44.4072 44.5498 44.5499ZM22.7172 37.3159C25.6048 37.3159 28.4275 36.4596 30.8284 34.8555C33.2293 33.2513 35.1006 30.9711 36.2057 28.3035C37.3107 25.6358 37.5998 22.7003 37.0365 19.8683C36.4731 17.0363 35.0826 14.435 33.0408 12.3932C30.999 10.3515 28.3976 8.96103 25.5655 8.39771C22.7334 7.83439 19.7979 8.12351 17.1301 9.2285C14.4624 10.3335 12.1822 12.2047 10.5779 14.6056C8.97369 17.0064 8.11743 19.8291 8.11743 22.7165C8.1218 26.5872 9.66139 30.298 12.3984 33.035C15.1355 35.772 18.8465 37.3115 22.7172 37.3159Z" fill="black"/>
</svg>
