<svg width="50" height="50" viewBox="0 0 50 50" fill="none" xmlns="http://www.w3.org/2000/svg">
<path d="M43.9363 29.5026C43.0045 32.8381 41.2155 35.8715 38.7474 38.301C36.2793 40.7305 33.218 42.4714 29.8682 43.3504C26.5184 44.2295 22.9968 44.2161 19.6537 43.3116C16.3107 42.4071 13.2628 40.643 10.8132 38.1948C8.3636 35.7466 6.59776 32.6997 5.69135 29.3572C4.78494 26.0147 4.76955 22.4931 5.64671 19.1428C6.52387 15.7925 8.26301 12.7302 10.6911 10.2607C13.1192 7.79124 16.1516 6.00056 19.4866 5.06686C19.761 4.98458 20.0526 4.97812 20.3304 5.04816C20.6082 5.11819 20.8618 5.26212 21.0645 5.46467C21.2671 5.66722 21.4111 5.92084 21.4812 6.19862C21.5513 6.4764 21.5449 6.76798 21.4627 7.04243C20.6799 9.88104 20.6632 12.8764 21.4144 15.7235C22.1655 18.5707 23.6576 21.168 25.7389 23.251C27.8201 25.334 30.4162 26.8284 33.2627 27.5819C36.1092 28.3355 39.1046 28.3213 41.9439 27.5409C42.2179 27.4561 42.5097 27.4472 42.7884 27.515C43.0671 27.5828 43.3221 27.7249 43.5265 27.9261C43.7309 28.1274 43.8769 28.3802 43.949 28.6578C44.0211 28.9354 44.0167 29.2274 43.9361 29.5026H43.9363Z" fill="black"/>
</svg>
