<svg width="50" height="50" viewBox="0 0 50 50" fill="none" xmlns="http://www.w3.org/2000/svg">
<path d="M45 18.9056C45 19.2859 44.8468 19.6507 44.574 19.9196C44.3012 20.1885 43.9312 20.3396 43.5455 20.3396H40.6364V23.2075C40.6364 23.5878 40.4831 23.9525 40.2103 24.2215C39.9375 24.4904 39.5676 24.6415 39.1818 24.6415C38.796 24.6415 38.4261 24.4904 38.1533 24.2215C37.8805 23.9525 37.7273 23.5878 37.7273 23.2075V20.3396H34.8182C34.4324 20.3396 34.0624 20.1885 33.7896 19.9196C33.5169 19.6507 33.3636 19.2859 33.3636 18.9056C33.3636 18.5253 33.5169 18.1606 33.7896 17.8917C34.0624 17.6227 34.4324 17.4717 34.8182 17.4717H37.7273V14.6038C37.7273 14.2234 37.8805 13.8587 38.1533 13.5898C38.4261 13.3209 38.796 13.1698 39.1818 13.1698C39.5676 13.1698 39.9375 13.3209 40.2103 13.5898C40.4831 13.8587 40.6364 14.2234 40.6364 14.6038V17.4717H43.5455C43.9312 17.4717 44.3012 17.6227 44.574 17.8917C44.8468 18.1606 45 18.5253 45 18.9056ZM27.5454 11.7358H29V13.1698C29 13.5501 29.1532 13.9148 29.426 14.1838C29.6988 14.4527 30.0688 14.6038 30.4545 14.6038C30.8403 14.6038 31.2103 14.4527 31.483 14.1838C31.7558 13.9148 31.9091 13.5501 31.9091 13.1698V11.7358H33.3636C33.7494 11.7358 34.1194 11.5848 34.3921 11.3158C34.6649 11.0469 34.8182 10.6822 34.8182 10.3019C34.8182 9.92157 34.6649 9.55683 34.3921 9.28791C34.1194 9.01899 33.7494 8.86792 33.3636 8.86792H31.9091V7.43396C31.9091 7.05365 31.7558 6.68892 31.483 6.42C31.2103 6.15108 30.8403 6 30.4545 6C30.0688 6 29.6988 6.15108 29.426 6.42C29.1532 6.68892 29 7.05365 29 7.43396V8.86792H27.5454C27.1597 8.86792 26.7897 9.01899 26.5169 9.28791C26.2441 9.55683 26.0909 9.92157 26.0909 10.3019C26.0909 10.6822 26.2441 11.0469 26.5169 11.3158C26.7897 11.5848 27.1597 11.7358 27.5454 11.7358ZM39.2649 29.0598C39.1319 29.0631 39 29.0843 38.8729 29.1229C36.2697 29.8286 33.5233 29.8416 30.9133 29.1607C28.3033 28.4797 25.923 27.1291 24.0146 25.2464C22.1063 23.3636 20.7381 21.0159 20.0493 18.4424C19.3605 15.8688 19.3758 13.1613 20.0936 10.5955C20.169 10.3474 20.1749 10.0838 20.1106 9.83273C20.0464 9.58163 19.9144 9.35236 19.7286 9.16927C19.5428 8.98617 19.3102 8.85608 19.0555 8.7928C18.8007 8.72952 18.5334 8.73541 18.2818 8.80984C15.2241 9.65378 12.4439 11.2723 10.2178 13.5044C7.99164 15.7365 6.39714 18.5043 5.59293 21.5325C4.78872 24.5607 4.80282 27.7437 5.63385 30.7649C6.46487 33.7861 8.08384 36.54 10.3297 38.7529C12.5755 40.9657 15.37 42.5602 18.435 43.3778C21.5 44.1953 24.7287 44.2074 27.7999 43.4129C30.8712 42.6184 33.6779 41.0449 35.9407 38.849C38.2036 36.6531 39.8438 33.9114 40.6982 30.8966C40.7626 30.6798 40.7742 30.4511 40.7319 30.229C40.6897 30.007 40.5949 29.798 40.4552 29.6189C40.3155 29.4399 40.1349 29.2959 39.928 29.1987C39.7212 29.1015 39.494 29.0539 39.2649 29.0597V29.0598Z" fill="black"/>
</svg>
