<svg width="50" height="50" viewBox="0 0 50 50" fill="none" xmlns="http://www.w3.org/2000/svg">
<path d="M25 5C21.0444 5 17.1776 6.17298 13.8886 8.37061C10.5996 10.5682 8.03617 13.6918 6.52242 17.3463C5.00867 21.0008 4.6126 25.0222 5.3843 28.9018C6.15601 32.7814 8.06082 36.3451 10.8579 39.1421C13.6549 41.9392 17.2186 43.844 21.0982 44.6157C24.9778 45.3874 28.9991 44.9913 32.6537 43.4776C36.3082 41.9638 39.4318 39.4004 41.6294 36.1114C43.827 32.8224 45 28.9556 45 25C44.9939 19.6975 42.8848 14.614 39.1354 10.8646C35.386 7.11521 30.3025 5.00611 25 5ZM32.6923 26.5385H17.3077C16.8997 26.5385 16.5084 26.3764 16.2198 26.0879C15.9313 25.7993 15.7692 25.408 15.7692 25C15.7692 24.592 15.9313 24.2007 16.2198 23.9121C16.5084 23.6236 16.8997 23.4615 17.3077 23.4615H32.6923C33.1003 23.4615 33.4917 23.6236 33.7802 23.9121C34.0687 24.2007 34.2308 24.592 34.2308 25C34.2308 25.408 34.0687 25.7993 33.7802 26.0879C33.4917 26.3764 33.1003 26.5385 32.6923 26.5385Z" fill="black"/>
</svg>
