<svg width="50" height="50" viewBox="0 0 50 50" fill="none" xmlns="http://www.w3.org/2000/svg">
<path d="M38.0909 42.1429H29.0982C30.6112 40.8183 32.038 39.4019 33.3704 37.9018C38.3616 32.2641 41 26.3209 41 20.7143C41 16.5466 39.3143 12.5496 36.3137 9.60261C33.3131 6.65561 29.2435 5 25 5C20.7565 5 16.6869 6.65561 13.6863 9.60261C10.6857 12.5496 9 16.5466 9 20.7143C9 26.3207 11.6382 32.2641 16.6296 37.9018C17.962 39.4019 19.3888 40.8183 20.9018 42.1429H11.9091C11.5233 42.1429 11.1534 42.2934 10.8806 42.5613C10.6078 42.8292 10.4545 43.1926 10.4545 43.5714C10.4545 43.9503 10.6078 44.3137 10.8806 44.5816C11.1534 44.8495 11.5233 45 11.9091 45H38.0909C38.4767 45 38.8466 44.8495 39.1194 44.5816C39.3922 44.3137 39.5455 43.9503 39.5455 43.5714C39.5455 43.1926 39.3922 42.8292 39.1194 42.5613C38.8466 42.2934 38.4767 42.1429 38.0909 42.1429ZM11.9091 20.7143C11.9091 17.3044 13.2883 14.0341 15.7433 11.6229C18.1984 9.21173 21.5281 7.85714 25 7.85714C28.4719 7.85714 31.8016 9.21173 34.2567 11.6229C36.7117 14.0341 38.0909 17.3044 38.0909 20.7143C38.0909 30.9345 28.0055 39.467 25 41.7821C21.994 39.4666 11.9091 30.9345 11.9091 20.7143ZM32.2727 20.7143C32.2727 19.3016 31.8462 17.9206 31.0471 16.7459C30.2479 15.5713 29.1121 14.6558 27.7832 14.1151C26.4542 13.5745 24.9919 13.4331 23.5812 13.7087C22.1704 13.9843 20.8745 14.6646 19.8574 15.6635C18.8403 16.6625 18.1476 17.9352 17.867 19.3208C17.5864 20.7064 17.7304 22.1426 18.2809 23.4477C18.8313 24.7529 19.7635 25.8685 20.9595 26.6534C22.1555 27.4382 23.5616 27.8571 25 27.8571C26.9282 27.855 28.7767 27.1017 30.1402 25.7626C31.5036 24.4236 32.2705 22.608 32.2727 20.7143ZM20.6364 20.7143C20.6364 19.8667 20.8923 19.0381 21.3718 18.3333C21.8513 17.6285 22.5328 17.0792 23.3301 16.7548C24.1275 16.4304 25.0048 16.3456 25.8513 16.5109C26.6978 16.6763 27.4753 17.0845 28.0856 17.6838C28.6958 18.2832 29.1114 19.0468 29.2798 19.8782C29.4482 20.7095 29.3617 21.5712 29.0315 22.3544C28.7012 23.1375 28.1419 23.8068 27.4243 24.2777C26.7067 24.7486 25.863 25 25 25C23.8431 24.9987 22.7339 24.5468 21.9159 23.7433C21.0978 22.9399 20.6377 21.8505 20.6364 20.7143Z" fill="black"/>
</svg>
