<svg width="50" height="50" viewBox="0 0 50 50" fill="none" xmlns="http://www.w3.org/2000/svg">
<path d="M25 13.5714C23.5616 13.5714 22.1555 13.9903 20.9595 14.7752C19.7635 15.5601 18.8313 16.6756 18.2809 17.9808C17.7304 19.286 17.5864 20.7222 17.867 22.1078C18.1476 23.4933 18.8403 24.7661 19.8574 25.765C20.8745 26.764 22.1704 27.4443 23.5812 27.7199C24.9919 27.9955 26.4542 27.854 27.7832 27.3134C29.1121 26.7728 30.2479 25.8572 31.0471 24.6826C31.8462 23.508 32.2727 22.127 32.2727 20.7143C32.2705 18.8205 31.5036 17.005 30.1402 15.6659C28.7767 14.3268 26.9282 13.5736 25 13.5714ZM25 25C24.137 25 23.2933 24.7486 22.5757 24.2777C21.8581 23.8068 21.2988 23.1374 20.9685 22.3543C20.6383 21.5712 20.5518 20.7095 20.7202 19.8782C20.8886 19.0468 21.3042 18.2832 21.9144 17.6838C22.5247 17.0844 23.3022 16.6763 24.1487 16.5109C24.9952 16.3455 25.8725 16.4304 26.6699 16.7548C27.4672 17.0792 28.1488 17.6285 28.6282 18.3332C29.1077 19.038 29.3636 19.8666 29.3636 20.7143C29.3623 21.8505 28.9022 22.9399 28.0841 23.7433C27.2661 24.5468 26.1569 24.9987 25 25ZM25 5C20.758 5.00473 16.6911 6.66185 13.6916 9.60782C10.6921 12.5538 9.00481 16.548 9 20.7143C9 26.3207 11.6382 32.2641 16.6296 37.9017C18.8758 40.449 21.4034 42.7431 24.1658 44.7417C24.4103 44.9098 24.7015 45 25 45C25.2985 45 25.5897 44.9098 25.8342 44.7417C28.5966 42.7431 31.1242 40.449 33.3704 37.9017C38.3616 32.2641 41 26.3209 41 20.7143C40.9952 16.548 39.3079 12.5538 36.3084 9.60782C33.3089 6.66185 29.242 5.00473 25 5ZM25 41.7821C21.994 39.4664 11.9091 30.9341 11.9091 20.7143C11.9091 17.3043 13.2883 14.0341 15.7433 11.6229C18.1984 9.21172 21.5281 7.85714 25 7.85714C28.4719 7.85714 31.8016 9.21172 34.2567 11.6229C36.7117 14.0341 38.0909 17.3043 38.0909 20.7143C38.0909 30.9342 28.0055 39.4669 25 41.7821Z" fill="black"/>
</svg>
