<svg width="50" height="50" viewBox="0 0 50 50" fill="none" xmlns="http://www.w3.org/2000/svg">
<path d="M25 5C20.7581 5.00496 16.6914 6.66216 13.6919 9.60808C10.6924 12.554 9.00505 16.5481 9 20.7143C9 34.1601 23.5455 44.3163 24.1647 44.7419C24.4097 44.9099 24.7012 45 25 45C25.2988 45 25.5903 44.9099 25.8353 44.7419C26.4545 44.3163 41 34.1601 41 20.7143C40.9949 16.5481 39.3076 12.554 36.3081 9.60808C33.3086 6.66216 29.2419 5.00496 25 5ZM25.0011 15.0005C26.1518 15.0005 27.2767 15.3357 28.2335 15.9635C29.1903 16.5914 29.936 17.4839 30.3764 18.528C30.8168 19.5722 30.932 20.7211 30.7075 21.8296C30.483 22.938 29.9289 23.9562 29.1152 24.7554C28.3015 25.5545 27.2648 26.0988 26.1362 26.3193C25.0075 26.5397 23.8377 26.4266 22.7746 25.9941C21.7114 25.5616 20.8028 24.8292 20.1635 23.8895C19.5241 22.9498 19.1829 21.845 19.1829 20.7148C19.1829 19.1993 19.7959 17.7458 20.887 16.6742C21.9781 15.6026 23.458 15.0005 25.0011 15.0005Z" fill="black"/>
</svg>
