<svg width="50" height="50" viewBox="0 0 50 50" fill="none" xmlns="http://www.w3.org/2000/svg">
<path d="M44.9298 28.5897C44.8684 28.3903 44.7683 28.205 44.6353 28.0443C44.5022 27.8837 44.3388 27.7508 44.1543 27.6534C43.9698 27.5559 43.768 27.4958 43.5603 27.4765C43.3526 27.4571 43.1431 27.4789 42.9438 27.5406C40.1046 28.321 37.1093 28.3351 34.2628 27.5816C31.4163 26.828 28.8204 25.3337 26.7391 23.2508C24.6579 21.1678 23.1658 18.5706 22.4146 15.7235C21.6634 12.8764 21.6801 9.88115 22.4628 7.04258C22.5451 6.76811 22.5515 6.47648 22.4814 6.19864C22.4113 5.9208 22.2673 5.66713 22.0646 5.46456C21.862 5.26198 21.6083 5.11806 21.3304 5.04807C21.0525 4.97808 20.7609 4.98463 20.4865 5.06703C17.1515 6.00072 14.1191 7.79139 11.691 10.2609C9.26298 12.7304 7.52386 15.7926 6.6467 19.1429C5.76955 22.4932 5.78494 26.0148 6.69135 29.3573C7.59775 32.6998 9.36357 35.7467 11.8131 38.1948C14.2627 40.643 17.3106 42.4071 20.6536 43.3116C23.9966 44.2161 27.5182 44.2295 30.868 43.3504C34.2178 42.4714 37.279 40.7305 39.7471 38.301C42.2152 35.8716 44.0042 32.8382 44.936 29.5027C45.0234 29.2044 45.0212 28.887 44.9298 28.5899V28.5897ZM25.8311 40.8267C22.0345 40.8261 18.3519 39.5288 15.3932 37.1497C12.4345 34.7705 10.3771 31.4522 9.56167 27.7442C8.74624 24.0362 9.22168 20.1609 10.9093 16.76C12.5969 13.359 15.3954 10.6365 18.8415 9.04312C18.4716 12.0358 18.789 15.0735 19.7695 17.9251C20.7501 20.7767 22.3681 23.3672 24.5004 25.4995C26.6327 27.6318 29.2231 29.2497 32.0747 30.2303C34.9263 31.2109 37.964 31.5283 40.9567 31.1584C39.6159 34.0414 37.4807 36.4823 34.8016 38.1948C32.1225 39.9073 29.0107 40.8203 25.8311 40.8267Z" fill="black"/>
</svg>
