<svg width="50" height="50" viewBox="0 0 50 50" fill="none" xmlns="http://www.w3.org/2000/svg">
<path d="M44.5499 42.3764L36.2467 34.0733C39.1789 30.5813 40.6499 26.0923 40.3529 21.5422C40.0559 16.9921 38.0138 12.7323 34.6525 9.65113C31.2912 6.56994 26.8702 4.90524 22.3113 5.00417C17.7525 5.1031 13.4078 6.95802 10.1834 10.1821C6.9589 13.4062 5.10354 17.7506 5.0042 22.3093C4.90487 26.8679 6.56923 31.289 9.65021 34.6505C12.7312 38.0119 16.9909 40.0543 21.5411 40.3517C26.0913 40.6491 30.5807 39.1786 34.073 36.2467L42.3764 44.5499C42.6646 44.8381 43.0555 45 43.4631 45C43.8707 45 44.2616 44.8381 44.5499 44.5499C44.8381 44.2617 45 43.8708 45 43.4632C45 43.0556 44.8381 42.6647 44.5499 42.3764ZM8.11682 22.7162C8.11682 19.8287 8.9731 17.006 10.5774 14.6051C12.1816 12.2042 14.4619 10.3329 17.1297 9.22791C19.7975 8.1229 22.733 7.83378 25.5652 8.39711C28.3973 8.96044 30.9988 10.3509 33.0406 12.3927C35.0825 14.4345 36.473 17.0359 37.0364 19.8679C37.5997 22.7 37.3106 25.6355 36.2055 28.3032C35.1005 30.9709 33.2292 33.2511 30.8282 34.8553C28.4272 36.4595 25.6045 37.3158 22.7169 37.3158C18.846 37.3114 15.135 35.7718 12.3979 33.0348C9.66081 30.2978 8.1212 26.5869 8.11682 22.7162Z" fill="black"/>
</svg>
