<svg width="50" height="50" viewBox="0 0 50 50" fill="none" xmlns="http://www.w3.org/2000/svg">
<path d="M16.6667 18.3333C16.6667 17.8913 16.8423 17.4674 17.1548 17.1548C17.4674 16.8423 17.8913 16.6667 18.3333 16.6667H31.6667C32.1087 16.6667 32.5326 16.8423 32.8452 17.1548C33.1577 17.4674 33.3333 17.8913 33.3333 18.3333C33.3333 18.7754 33.1577 19.1993 32.8452 19.5118C32.5326 19.8244 32.1087 20 31.6667 20H18.3333C17.8913 20 17.4674 19.8244 17.1548 19.5118C16.8423 19.1993 16.6667 18.7754 16.6667 18.3333ZM18.3333 26.6667H31.6667C32.1087 26.6667 32.5326 26.4911 32.8452 26.1785C33.1577 25.8659 33.3333 25.442 33.3333 25C33.3333 24.558 33.1577 24.134 32.8452 23.8215C32.5326 23.5089 32.1087 23.3333 31.6667 23.3333H18.3333C17.8913 23.3333 17.4674 23.5089 17.1548 23.8215C16.8423 24.134 16.6667 24.558 16.6667 25C16.6667 25.442 16.8423 25.8659 17.1548 26.1785C17.4674 26.4911 17.8913 26.6667 18.3333 26.6667ZM25 30H18.3333C17.8913 30 17.4674 30.1756 17.1548 30.4881C16.8423 30.8007 16.6667 31.2246 16.6667 31.6667C16.6667 32.1087 16.8423 32.5326 17.1548 32.8452C17.4674 33.1577 17.8913 33.3333 18.3333 33.3333H25C25.442 33.3333 25.8659 33.1577 26.1785 32.8452C26.4911 32.5326 26.6667 32.1087 26.6667 31.6667C26.6667 31.2246 26.4911 30.8007 26.1785 30.4881C25.8659 30.1756 25.442 30 25 30ZM45 8.33333V30.9764C45.0012 31.4144 44.9155 31.8481 44.7478 32.2527C44.5802 32.6573 44.334 33.0246 44.0235 33.3333L33.3333 44.0235C33.0246 44.334 32.6573 44.5802 32.2527 44.7478C31.8481 44.9155 31.4144 45.0012 30.9764 45H8.33333C7.44958 44.999 6.60231 44.6475 5.97741 44.0226C5.3525 43.3977 5.00099 42.5504 5 41.6667V8.33333C5.00099 7.44958 5.3525 6.60231 5.97741 5.97741C6.60231 5.3525 7.44958 5.00099 8.33333 5H41.6667C42.5504 5.00099 43.3977 5.3525 44.0226 5.97741C44.6475 6.60231 44.999 7.44958 45 8.33333ZM8.33333 41.6667H30V31.665C30 31.223 30.1756 30.799 30.4881 30.4865C30.8007 30.1739 31.2246 29.9983 31.6667 29.9983H41.6667V8.33333H8.33333V41.6667ZM33.3333 33.3317V39.3098L39.3112 33.3317H33.3333Z" fill="black"/>
</svg>
