<svg width="50" height="50" viewBox="0 0 50 50" fill="none" xmlns="http://www.w3.org/2000/svg">
<path d="M45 30.9764V8.33333C44.999 7.44958 44.6475 6.60231 44.0226 5.97741C43.3977 5.3525 42.5504 5.00099 41.6667 5H8.33333C7.44958 5.00099 6.60231 5.3525 5.97741 5.97741C5.3525 6.60231 5.00099 7.44958 5 8.33333V41.6667C5.00099 42.5504 5.3525 43.3977 5.97741 44.0226C6.60231 44.6475 7.44958 44.999 8.33333 45H30.9765C31.4144 45.0012 31.8481 44.9155 32.2527 44.7478C32.6573 44.5802 33.0246 44.334 33.3333 44.0235L44.0235 33.3333C44.3075 33.0487 44.5375 32.7151 44.7025 32.3485C44.7081 32.336 44.715 32.3237 44.7202 32.311C44.9047 31.8903 45 31.4359 45 30.9764ZM8.33333 8.33333H41.6667V29.9983H31.6667C31.2246 29.9983 30.8007 30.1739 30.4882 30.4865C30.1756 30.799 30 31.223 30 31.665V41.6667H8.33333V8.33333ZM39.3115 33.3317L33.3333 39.3098V33.3317H39.3115Z" fill="black"/>
</svg>
