<svg width="50" height="50" viewBox="0 0 50 50" fill="none" xmlns="http://www.w3.org/2000/svg">
<path d="M41.6667 5H8.33333C7.44945 5.00055 6.60192 5.35192 5.97692 5.97692C5.35192 6.60192 5.00055 7.44945 5 8.33333V41.6667C5.00055 42.5505 5.35192 43.3981 5.97692 44.0231C6.60192 44.6481 7.44945 44.9994 8.33333 45H30.9767C31.4145 45.0008 31.8482 44.9149 32.2526 44.7473C32.6571 44.5796 33.0244 44.3336 33.3333 44.0233L44.0235 33.3333C44.3338 33.0244 44.5798 32.657 44.7474 32.2525C44.915 31.848 45.0008 31.4143 45 30.9765V8.33333C44.9994 7.44945 44.6481 6.60192 44.0231 5.97692C43.3981 5.35192 42.5505 5.00055 41.6667 5ZM18.3333 16.6667H31.6667C32.1087 16.6667 32.5326 16.8423 32.8452 17.1548C33.1577 17.4674 33.3333 17.8913 33.3333 18.3333C33.3333 18.7754 33.1577 19.1993 32.8452 19.5118C32.5326 19.8244 32.1087 20 31.6667 20H18.3333C17.8913 20 17.4674 19.8244 17.1548 19.5118C16.8423 19.1993 16.6667 18.7754 16.6667 18.3333C16.6667 17.8913 16.8423 17.4674 17.1548 17.1548C17.4674 16.8423 17.8913 16.6667 18.3333 16.6667ZM25 33.3333H18.3333C17.8913 33.3333 17.4674 33.1577 17.1548 32.8452C16.8423 32.5326 16.6667 32.1087 16.6667 31.6667C16.6667 31.2246 16.8423 30.8007 17.1548 30.4881C17.4674 30.1756 17.8913 30 18.3333 30H25C25.442 30 25.8659 30.1756 26.1785 30.4881C26.4911 30.8007 26.6667 31.2246 26.6667 31.6667C26.6667 32.1087 26.4911 32.5326 26.1785 32.8452C25.8659 33.1577 25.442 33.3333 25 33.3333ZM18.3333 26.6667C17.8913 26.6667 17.4674 26.4911 17.1548 26.1785C16.8423 25.8659 16.6667 25.442 16.6667 25C16.6667 24.558 16.8423 24.134 17.1548 23.8215C17.4674 23.5089 17.8913 23.3333 18.3333 23.3333H31.6667C32.1087 23.3333 32.5326 23.5089 32.8452 23.8215C33.1577 24.134 33.3333 24.558 33.3333 25C33.3333 25.442 33.1577 25.8659 32.8452 26.1785C32.5326 26.4911 32.1087 26.6667 31.6667 26.6667H18.3333ZM31.6667 40.9767V31.6633H40.9798L31.6667 40.9767Z" fill="black"/>
</svg>
