<svg width="50" height="50" viewBox="0 0 50 50" fill="none" xmlns="http://www.w3.org/2000/svg">
<path d="M44.5313 11.8686L38.1314 5.46866C37.9828 5.32008 37.8064 5.20221 37.6123 5.1218C37.4181 5.04139 37.2101 5 37 5C36.7898 5 36.5818 5.04139 36.3876 5.1218C36.1935 5.20221 36.0171 5.32008 35.8686 5.46866L16.6686 24.6686C16.52 24.8172 16.4022 24.9936 16.3218 25.1877C16.2414 25.3818 16.2 25.5899 16.2 25.8V32.2C16.2 32.6244 16.3686 33.0313 16.6686 33.3314C16.9687 33.6314 17.3756 33.8 17.8 33.8H24.2C24.4101 33.8 24.6181 33.7586 24.8123 33.6782C25.0064 33.5978 25.1828 33.48 25.3314 33.3314L44.5313 14.1314C44.6799 13.9829 44.7978 13.8065 44.8782 13.6124C44.9586 13.4182 45 13.2102 45 13C45 12.7899 44.9586 12.5819 44.8782 12.3877C44.7978 12.1936 44.6799 12.0172 44.5313 11.8686ZM23.5374 30.6H19.4V26.4628L32.2 13.6628L36.3372 17.8L23.5374 30.6ZM38.5999 15.5372L34.4628 11.4L37 8.86285L41.1373 13L38.5999 15.5372ZM43.3999 24.2V41.8C43.399 42.6484 43.0615 43.4618 42.4616 44.0617C41.8617 44.6616 41.0483 44.999 40.1999 45H8.2C7.3516 44.999 6.53822 44.6616 5.93831 44.0617C5.3384 43.4618 5.00095 42.6484 5 41.8V9.80005C5.00095 8.95165 5.3384 8.13827 5.93831 7.53837C6.53822 6.93846 7.3516 6.60101 8.2 6.60006H25.8C26.2243 6.60006 26.6313 6.76863 26.9313 7.06868C27.2314 7.36874 27.4 7.77571 27.4 8.20005C27.4 8.6244 27.2314 9.03136 26.9313 9.33142C26.6313 9.63148 26.2243 9.80005 25.8 9.80005H8.2V41.8H40.1999V24.2C40.1999 23.7757 40.3685 23.3687 40.6686 23.0687C40.9686 22.7686 41.3756 22.6 41.7999 22.6C42.2243 22.6 42.6313 22.7686 42.9313 23.0687C43.2314 23.3687 43.3999 23.7757 43.3999 24.2Z" fill="black"/>
</svg>
