<svg width="50" height="50" viewBox="0 0 50 50" fill="none" xmlns="http://www.w3.org/2000/svg">
<path d="M41.6667 5H8.33333C7.44958 5.00099 6.60231 5.3525 5.97741 5.97741C5.3525 6.60231 5.00099 7.44958 5 8.33333V41.6667C5.00099 42.5504 5.3525 43.3977 5.97741 44.0226C6.60231 44.6475 7.44958 44.999 8.33333 45H30.9764C31.4144 45.0012 31.8481 44.9155 32.2527 44.7478C32.6573 44.5802 33.0246 44.334 33.3333 44.0235L44.0235 33.3333C44.334 33.0245 44.5802 32.6572 44.7478 32.2527C44.9154 31.8481 45.0011 31.4144 45 30.9764V8.33333C44.999 7.44958 44.6475 6.60231 44.0226 5.97741C43.3977 5.3525 42.5504 5.00099 41.6667 5ZM31.6667 40.9764V31.665H40.9781L31.6667 40.9764Z" fill="black"/>
</svg>
