<svg width="50" height="50" viewBox="0 0 50 50" fill="none" xmlns="http://www.w3.org/2000/svg">
<path d="M44 19.0479C44.001 18.6628 43.9257 18.2814 43.7785 17.9256C43.6312 17.5698 43.4149 17.2469 43.1421 16.9753L32.0344 5.85693C31.4847 5.30817 30.74 5 29.9636 5C29.1873 5 28.4426 5.30817 27.8929 5.85693V5.85711L17.15 16.61C15.1999 15.9981 10.746 15.2578 6.09221 19.0155C5.77196 19.2737 5.5096 19.5965 5.32216 19.9629C5.13472 20.3293 5.0264 20.731 5.00425 21.1421C4.98211 21.5531 5.04662 21.9642 5.1936 22.3486C5.34058 22.733 5.56674 23.0822 5.85738 23.3734L14.7145 32.2387L8.42862 38.5306C8.15401 38.8054 7.99974 39.1782 7.99974 39.567C7.99974 39.9557 8.15401 40.3285 8.42862 40.6034C8.70323 40.8782 9.07568 41.0327 9.46404 41.0327C9.8524 41.0327 10.2248 40.8782 10.4995 40.6034L16.7854 34.3115L25.6061 43.1406C25.8781 43.413 26.2011 43.6292 26.5566 43.7766C26.9121 43.9241 27.2932 44 27.678 44C27.7464 44 27.8149 43.9976 27.8838 43.9927C28.3013 43.9634 28.7077 43.8447 29.0754 43.6446C29.4432 43.4446 29.7637 43.1678 30.0154 42.833C33.6092 38.052 33.2635 34.1664 32.4296 31.8434L43.1419 21.1207C43.4148 20.8492 43.6311 20.5262 43.7784 20.1704C43.9257 19.8146 44.001 19.4331 44 19.0479ZM29.6605 30.4695C29.4431 30.6871 29.2997 30.9675 29.2505 31.2712C29.2013 31.5748 29.2488 31.8863 29.3863 32.1614C31.1183 35.6286 29.0577 39.2315 27.6771 41.0678L7.93114 21.2971C10.1413 19.5124 12.258 19.0419 13.8761 19.0419C14.9013 19.0263 15.9186 19.2252 16.8626 19.6259C17.1375 19.7635 17.4486 19.8111 17.752 19.7618C18.0554 19.7126 18.3356 19.569 18.5529 19.3515L29.9637 7.9299L41.0713 19.0479L29.6605 30.4695Z" fill="black"/>
</svg>
