<svg width="50" height="50" viewBox="0 0 50 50" fill="none" xmlns="http://www.w3.org/2000/svg">
<path d="M43.0724 14.79L34.2112 5.92926C33.9166 5.63465 33.5669 5.40095 33.1819 5.24151C32.797 5.08206 32.3845 5 31.9678 5C31.5512 5 31.1386 5.08206 30.7537 5.24151C30.3688 5.40095 30.019 5.63465 29.7244 5.92926L24.501 11.1525V11.1527L24.5006 11.1529L5.92941 29.7235C5.63386 30.0173 5.39953 30.3669 5.24 30.752C5.08047 31.137 4.9989 31.5499 5.00001 31.9667V40.8274C5.00096 41.6686 5.33552 42.475 5.93032 43.0697C6.52511 43.6645 7.33155 43.9991 8.17271 44H17.6908C17.8991 44 18.1054 43.959 18.2979 43.8793C18.4903 43.7996 18.6652 43.6827 18.8125 43.5354L43.0724 19.2764C43.6664 18.681 44 17.8743 44 17.0332C44 16.1922 43.6664 15.3854 43.0724 14.79ZM17.0338 40.8274H8.17271V31.9667L25.6225 14.5176L34.4837 23.3783L17.0338 40.8274ZM36.727 21.1351L27.866 12.2744L31.9679 8.17246L40.8291 17.0332L36.727 21.1351Z" fill="black"/>
</svg>
