<svg width="50" height="50" viewBox="0 0 50 50" fill="none" xmlns="http://www.w3.org/2000/svg">
<path d="M42.6412 15.0387C42.6367 15.0302 42.6333 15.0215 42.6284 15.0131C42.6265 15.0096 42.6239 15.0062 42.6218 15.0027C42.374 14.5747 42.0172 14.221 41.5882 13.9781L26.3576 5.35549C25.9426 5.12238 25.4753 5 25 5C24.5247 5 24.0574 5.12238 23.6424 5.35549L8.41144 13.9781C7.98088 14.2222 7.6231 14.5778 7.37523 15.0081C7.37263 15.0128 7.36935 15.017 7.36658 15.0218C7.3626 15.0293 7.35948 15.0372 7.35533 15.0448C7.12275 15.4609 7.00039 15.9302 7 16.4075V33.5903C7.00036 34.0848 7.13125 34.5703 7.37928 34.9972C7.62731 35.424 7.98358 35.7769 8.41162 36.0196L23.6426 44.6422C24.0262 44.8581 24.4555 44.9788 24.8948 44.9944C24.9263 44.9969 24.9576 44.9997 24.9896 45H25.0021C25.0457 45 25.0888 44.9976 25.1314 44.9936C25.5617 44.9743 25.9817 44.854 26.3576 44.6422L41.5884 36.0196C42.0165 35.7769 42.3728 35.424 42.6209 34.9971C42.8689 34.5701 42.9998 34.0845 43 33.59V16.4075C42.9996 15.9278 42.876 15.4564 42.6412 15.0389V15.0387ZM25 7.78479L38.8017 15.5984L33.5021 18.6287L19.5377 10.8771L25 7.78479ZM25.1575 23.3998L11.2194 15.5864L16.6991 12.4842L30.6774 20.2436L25.1575 23.3998ZM26.4057 41.417L26.5418 25.8138L32.1 22.6358V29.2684C32.1 29.638 32.2458 29.9925 32.5055 30.2538C32.7652 30.5151 33.1174 30.662 33.4846 30.662C33.8518 30.662 34.204 30.5151 34.4636 30.2538C34.7233 29.9925 34.8692 29.638 34.8692 29.2684V21.0524L40.2308 17.9868V33.5902L26.4057 41.417Z" fill="black"/>
</svg>
