<svg width="50" height="50" viewBox="0 0 50 50" fill="none" xmlns="http://www.w3.org/2000/svg">
<path d="M43.0724 14.79L34.2114 5.92918C33.6164 5.33424 32.8094 5 31.968 5C31.1266 5 30.3196 5.33424 29.7246 5.92918L24.5012 11.1524L24.5008 11.1526L24.5006 11.153L5.9294 29.7234C5.6211 30.0316 5.37982 30.4001 5.2207 30.8059C5.20531 30.844 5.19142 30.8827 5.17906 30.9219C5.06115 31.2577 5.00062 31.6109 5 31.9668V40.8274C5.00094 41.6686 5.33551 42.475 5.9303 43.0697C6.5251 43.6645 7.33153 43.9991 8.1727 44H17.0338C17.4205 43.9996 17.8039 43.9283 18.1649 43.7898C18.1724 43.787 18.1804 43.7849 18.1879 43.7819C18.5963 43.6228 18.9672 43.3806 19.2771 43.0706L43.0724 19.2764C43.6664 18.681 44 17.8742 44 17.0332C44 16.1921 43.6664 15.3854 43.0724 14.79ZM8.1727 35.1392L13.8611 40.8274H8.1727V35.1392ZM17.6908 40.1703L8.82984 31.3097L25.6225 14.5175L34.4837 23.3783L17.6908 40.1703ZM36.727 21.1349L27.866 12.2743L31.9679 8.17239L40.8291 17.0332L36.727 21.1349Z" fill="black"/>
</svg>
