<svg width="50" height="50" viewBox="0 0 50 50" fill="none" xmlns="http://www.w3.org/2000/svg">
<path d="M43.1421 21.1207L32.4296 31.8433C33.2635 34.1663 33.6093 38.0521 30.0154 42.833C29.7637 43.1678 29.4432 43.4446 29.0754 43.6446C28.7077 43.8447 28.3013 43.9634 27.8837 43.9927C27.815 43.9976 27.7465 44 27.678 44C27.2932 44 26.9121 43.924 26.5566 43.7766C26.2011 43.6291 25.8781 43.4129 25.6061 43.1404L16.7852 34.3114L10.4992 40.6032C10.3633 40.7393 10.2018 40.8473 10.0242 40.9209C9.84652 40.9946 9.65611 41.0325 9.46381 41.0325C9.27151 41.0325 9.0811 40.9946 8.90344 40.9209C8.72578 40.8473 8.56435 40.7393 8.42838 40.6032C8.29241 40.4671 8.18454 40.3055 8.11096 40.1277C8.03737 39.9499 7.99949 39.7593 7.99949 39.5668C7.99949 39.3743 8.03737 39.1838 8.11096 39.0059C8.18454 38.8281 8.29241 38.6665 8.42838 38.5304L14.7144 32.2386L5.85728 23.3734C5.56668 23.0822 5.34054 22.733 5.19358 22.3486C5.04661 21.9642 4.98211 21.5531 5.00425 21.1421C5.0264 20.7311 5.13471 20.3294 5.32213 19.963C5.50955 19.5967 5.7719 19.2739 6.09212 19.0157C10.746 15.2578 15.2003 15.9979 17.15 16.61L27.8929 5.8572V5.85701C28.4426 5.3082 29.1873 5 29.9638 5C30.7402 5 31.4849 5.3082 32.0346 5.85701L43.1423 16.9753C43.4142 17.2475 43.6299 17.5707 43.7771 17.9263C43.9243 18.2819 44 18.6631 44 19.048C44 19.433 43.9242 19.8141 43.777 20.1698C43.6298 20.5254 43.4141 20.8485 43.1421 21.1207Z" fill="black"/>
</svg>
