<svg width="50" height="50" viewBox="0 0 50 50" fill="none" xmlns="http://www.w3.org/2000/svg">
<path d="M45 25C45 25.442 44.8244 25.866 44.5118 26.1785C44.1993 26.4911 43.7754 26.6667 43.3333 26.6667H26.6667V43.3333C26.6667 43.7754 26.4911 44.1993 26.1785 44.5118C25.866 44.8244 25.442 45 25 45C24.558 45 24.134 44.8244 23.8215 44.5118C23.5089 44.1993 23.3333 43.7754 23.3333 43.3333V26.6667H6.66667C6.22464 26.6667 5.80072 26.4911 5.48816 26.1785C5.1756 25.866 5 25.442 5 25C5 24.558 5.1756 24.134 5.48816 23.8215C5.80072 23.5089 6.22464 23.3333 6.66667 23.3333H23.3333V6.66667C23.3333 6.22464 23.5089 5.80072 23.8215 5.48816C24.134 5.1756 24.558 5 25 5C25.442 5 25.866 5.1756 26.1785 5.48816C26.4911 5.80072 26.6667 6.22464 26.6667 6.66667V23.3333H43.3333C43.7754 23.3333 44.1993 23.5089 44.5118 23.8215C44.8244 24.134 45 24.558 45 25Z" fill="black"/>
</svg>
