<svg width="50" height="50" viewBox="0 0 50 50" fill="none" xmlns="http://www.w3.org/2000/svg">
<path d="M44.5236 13.6667C43.617 12.0882 41.1562 10.595 34.608 12.2535C32.2488 10.4529 29.4364 9.35058 26.4877 9.07075C23.539 8.79092 20.5712 9.34471 17.9186 10.6697C15.2661 11.9948 13.0342 14.0383 11.4745 16.5702C9.91485 19.1021 9.08932 22.0217 9.09096 25C9.09094 25.6683 9.13235 26.3359 9.21494 26.999C4.51943 31.868 4.57528 34.7557 5.48124 36.3333C6.09333 37.3995 7.44944 38.4647 10.4225 38.4647C11.8454 38.4405 13.2613 38.2599 14.645 37.926C14.896 37.8691 15.1463 37.809 15.3958 37.7458C17.755 39.5467 20.5674 40.6492 23.5162 40.9292C26.465 41.2092 29.4329 40.6555 32.0856 39.3305C34.7382 38.0055 36.9702 35.9619 38.53 33.43C40.0898 30.8981 40.9153 27.9784 40.9137 25C40.9137 24.3313 40.8722 23.6633 40.7896 22.9999C40.9664 22.8165 41.141 22.631 41.3133 22.4434C45.5041 17.8675 45.3722 15.145 44.5233 13.6667H44.5236ZM25.0023 11.6667C28.014 11.671 30.9348 12.7045 33.2855 14.5977C35.6361 16.4909 37.277 19.1313 37.9389 22.0857C35.2628 24.6512 31.6854 27.2785 27.6542 29.6188C23.6255 31.9578 19.5764 33.7588 16.0303 34.8067C14.0642 32.9907 12.6894 30.6201 12.0859 28.0051C11.4824 25.3902 11.6783 22.6529 12.648 20.1519C13.6178 17.6508 15.3161 15.5025 17.5205 13.9885C19.725 12.4744 22.3328 11.6652 25.0023 11.6667ZM7.77778 35C7.52916 34.5667 7.66872 33.7525 8.16098 32.766C8.65358 31.8328 9.25083 30.9594 9.94106 30.1628C10.6143 32.1386 11.6654 33.9628 13.0353 35.5327C9.94338 36.086 8.17622 35.6943 7.77794 35H7.77778ZM25.0023 38.3333C22.8083 38.3358 20.6484 37.7874 18.7185 36.7378C22.2796 35.457 25.7148 33.8469 28.9802 31.9282C32.2648 30.0442 35.3686 27.8581 38.2519 25.398C38.1457 28.862 36.7038 32.1486 34.231 34.5626C31.7583 36.9767 28.4487 38.329 25.0023 38.3333ZM36.9693 14.4675C38.0035 14.2638 39.0574 14.1797 40.1105 14.2167C41.2067 14.2812 41.9781 14.5667 42.2269 15C42.625 15.6934 42.0802 17.425 40.0634 19.8369C39.3903 17.8613 38.3391 16.0372 36.9693 14.4675Z" fill="black"/>
</svg>
