<svg width="50" height="50" viewBox="0 0 50 50" fill="none" xmlns="http://www.w3.org/2000/svg">
<path d="M25 5C21.0444 5 17.1776 6.17298 13.8886 8.37061C10.5996 10.5682 8.03617 13.6918 6.52242 17.3463C5.00867 21.0008 4.6126 25.0222 5.3843 28.9018C6.15601 32.7814 8.06082 36.3451 10.8579 39.1421C13.6549 41.9392 17.2186 43.844 21.0982 44.6157C24.9778 45.3874 28.9992 44.9913 32.6537 43.4776C36.3082 41.9638 39.4318 39.4004 41.6294 36.1114C43.827 32.8224 45 28.9556 45 25C44.994 19.6975 42.8849 14.6139 39.1355 10.8645C35.3861 7.11507 30.3025 5.00601 25 5ZM25.0002 37.3077C24.5438 37.3077 24.0976 37.1723 23.7181 36.9188C23.3386 36.6652 23.0428 36.3048 22.8682 35.8831C22.6935 35.4614 22.6478 34.9974 22.7368 34.5498C22.8259 34.1021 23.0457 33.6909 23.3684 33.3682C23.6911 33.0455 24.1023 32.8257 24.55 32.7366C24.9976 32.6476 25.4616 32.6933 25.8833 32.868C26.305 33.0426 26.6654 33.3384 26.919 33.7179C27.1725 34.0974 27.3079 34.5436 27.3079 35C27.3079 35.612 27.0648 36.199 26.632 36.6318C26.1992 37.0646 25.6122 37.3077 25.0002 37.3077ZM26.5387 27.9056V28.0779C26.5387 28.4859 26.3766 28.8772 26.0881 29.1657C25.7995 29.4543 25.4082 29.6163 25.0002 29.6163C24.5922 29.6163 24.2009 29.4543 23.9123 29.1657C23.6238 28.8772 23.4617 28.4859 23.4617 28.0779V26.5394C23.4617 26.1314 23.6238 25.7401 23.9123 25.4516C24.2009 25.163 24.5922 25.001 25.0002 25.001C25.7609 25.001 26.5045 24.7754 27.137 24.3528C27.7695 23.9301 28.2625 23.3295 28.5536 22.6267C28.8447 21.9239 28.9209 21.1505 28.7724 20.4045C28.624 19.6584 28.2577 18.9731 27.7198 18.4352C27.1819 17.8973 26.4966 17.531 25.7505 17.3826C25.0045 17.2341 24.2311 17.3103 23.5283 17.6014C22.8255 17.8925 22.2249 18.3855 21.8022 19.018C21.3796 19.6505 21.154 20.3941 21.154 21.1548C21.154 21.5628 20.992 21.9541 20.7034 22.2427C20.4149 22.5312 20.0236 22.6933 19.6156 22.6933C19.2076 22.6933 18.8162 22.5312 18.5277 22.2427C18.2392 21.9541 18.0771 21.5628 18.0771 21.1548C18.0773 19.8516 18.4453 18.5749 19.1388 17.4715C19.8323 16.3681 20.8231 15.4829 21.9974 14.9176C23.1717 14.3524 24.4816 14.13 25.7766 14.2762C27.0716 14.4224 28.2991 14.9311 29.3178 15.7438C30.3365 16.5566 31.1052 17.6404 31.5353 18.8706C31.9654 20.1008 32.0396 21.4274 31.7493 22.6979C31.459 23.9683 30.8159 25.1311 29.8942 26.0523C28.9724 26.9736 27.8093 27.616 26.5387 27.9056Z" fill="black"/>
</svg>
