<svg width="50" height="50" viewBox="0 0 50 50" fill="none" xmlns="http://www.w3.org/2000/svg">
<path d="M25 5C21.0444 5 17.1776 6.17298 13.8886 8.37061C10.5996 10.5682 8.03617 13.6918 6.52242 17.3463C5.00867 21.0008 4.6126 25.0222 5.3843 28.9018C6.15601 32.7814 8.06082 36.3451 10.8579 39.1421C13.6549 41.9392 17.2186 43.844 21.0982 44.6157C24.9778 45.3874 28.9991 44.9913 32.6537 43.4776C36.3082 41.9638 39.4318 39.4004 41.6294 36.1114C43.827 32.8224 45 28.9556 45 25C44.994 19.6975 42.8849 14.6139 39.1355 10.8645C35.3861 7.11507 30.3025 5.00601 25 5ZM25 41.9231C21.6529 41.9231 18.381 40.9305 15.598 39.071C12.8151 37.2115 10.646 34.5685 9.36512 31.4762C8.08426 28.3839 7.74912 24.9812 8.4021 21.6985C9.05508 18.4157 10.6669 15.4003 13.0336 13.0336C15.4003 10.6668 18.4157 9.05508 21.6985 8.40209C24.9812 7.74911 28.3839 8.08425 31.4762 9.36511C34.5685 10.646 37.2115 12.8151 39.071 15.598C40.9306 18.381 41.9231 21.6529 41.9231 25C41.918 29.4867 40.1334 33.7882 36.9608 36.9608C33.7882 40.1334 29.4867 41.918 25 41.9231ZM27.3077 35C27.3077 35.4564 27.1724 35.9026 26.9188 36.2821C26.6652 36.6616 26.3048 36.9574 25.8831 37.132C25.4614 37.3067 24.9974 37.3524 24.5498 37.2633C24.1021 37.1743 23.691 36.9545 23.3682 36.6318C23.0455 36.309 22.8257 35.8979 22.7367 35.4502C22.6476 35.0026 22.6933 34.5386 22.868 34.1169C23.0426 33.6952 23.3384 33.3348 23.7179 33.0812C24.0974 32.8276 24.5436 32.6923 25 32.6923C25.612 32.6923 26.199 32.9354 26.6318 33.3682C27.0646 33.801 27.3077 34.388 27.3077 35ZM31.9231 21.1548C31.921 22.7231 31.3875 24.2444 30.4095 25.4704C29.4316 26.6965 28.067 27.5549 26.5385 27.9056V28.0779C26.5385 28.4859 26.3764 28.8772 26.0879 29.1657C25.7993 29.4543 25.408 29.6163 25 29.6163C24.592 29.6163 24.2007 29.4543 23.9121 29.1657C23.6236 28.8772 23.4615 28.4859 23.4615 28.0779V26.5394C23.4615 26.1314 23.6236 25.7401 23.9121 25.4516C24.2007 25.163 24.592 25.001 25 25.001C25.7607 25.001 26.5043 24.7754 27.1368 24.3528C27.7693 23.9301 28.2623 23.3295 28.5534 22.6267C28.8445 21.9239 28.9207 21.1505 28.7723 20.4045C28.6238 19.6584 28.2575 18.9731 27.7196 18.4352C27.1818 17.8973 26.4964 17.531 25.7504 17.3826C25.0043 17.2341 24.2309 17.3103 23.5281 17.6014C22.8254 17.8925 22.2247 18.3855 21.802 19.018C21.3794 19.6505 21.1539 20.3941 21.1539 21.1548C21.1539 21.5628 20.9918 21.9541 20.7032 22.2427C20.4147 22.5312 20.0234 22.6933 19.6154 22.6933C19.2074 22.6933 18.8161 22.5312 18.5275 22.2427C18.239 21.9541 18.0769 21.5628 18.0769 21.1548C18.0769 19.3187 18.8063 17.5578 20.1047 16.2595C21.403 14.9611 23.1639 14.2317 25 14.2317C26.8361 14.2317 28.597 14.9611 29.8954 16.2595C31.1937 17.5578 31.9231 19.3187 31.9231 21.1548Z" fill="black"/>
</svg>
