<svg width="50" height="50" viewBox="0 0 50 50" fill="none" xmlns="http://www.w3.org/2000/svg">
<path d="M37.5926 25C37.5926 27.4906 36.854 29.9252 35.4704 31.9961C34.0867 34.0669 32.12 35.6809 29.819 36.634C27.518 37.5871 24.986 37.8365 22.5433 37.3506C20.1006 36.8647 17.8568 35.6654 16.0957 33.9043C14.3346 32.1432 13.1353 29.8994 12.6494 27.4567C12.1635 25.014 12.4129 22.482 13.366 20.181C14.3191 17.88 15.9331 15.9133 18.0039 14.5296C20.0748 13.146 22.5094 12.4074 25 12.4074C28.3386 12.4112 31.5394 13.7391 33.9001 16.0999C36.2609 18.4606 37.5888 21.6614 37.5926 25ZM25 9.44444C25.3929 9.44444 25.7697 9.28836 26.0476 9.01053C26.3254 8.7327 26.4815 8.35588 26.4815 7.96296V6.48148C26.4815 6.08857 26.3254 5.71175 26.0476 5.43392C25.7697 5.15608 25.3929 5 25 5C24.6071 5 24.2303 5.15608 23.9524 5.43392C23.6746 5.71175 23.5185 6.08857 23.5185 6.48148V7.96296C23.5185 8.35588 23.6746 8.7327 23.9524 9.01053C24.2303 9.28836 24.6071 9.44444 25 9.44444ZM11.9056 14.0006C12.0424 14.1414 12.2058 14.2537 12.3864 14.3308C12.567 14.4079 12.7611 14.4484 12.9575 14.4498C13.1539 14.4512 13.3486 14.4136 13.5303 14.3391C13.712 14.2646 13.877 14.1547 14.0159 14.0159C14.1547 13.877 14.2646 13.7119 14.3391 13.5302C14.4135 13.3485 14.4512 13.1538 14.4497 12.9575C14.4483 12.7611 14.4078 12.567 14.3307 12.3864C14.2535 12.2058 14.1412 12.0424 14.0004 11.9056L12.9528 10.858C12.8158 10.7179 12.6524 10.6063 12.472 10.5298C12.2916 10.4533 12.0978 10.4134 11.9018 10.4123C11.7059 10.4112 11.5117 10.449 11.3304 10.5234C11.1492 10.5979 10.9845 10.7076 10.846 10.8462C10.7074 10.9847 10.5977 11.1494 10.5233 11.3306C10.4488 11.5119 10.411 11.7061 10.4121 11.902C10.4132 12.098 10.4531 12.2918 10.5297 12.4721C10.6062 12.6525 10.7177 12.816 10.8578 12.953L11.9056 14.0006ZM7.96296 23.5185H6.48148C6.08857 23.5185 5.71175 23.6746 5.43392 23.9524C5.15608 24.2303 5 24.6071 5 25C5 25.3929 5.15608 25.7697 5.43392 26.0476C5.71175 26.3254 6.08857 26.4815 6.48148 26.4815H7.96296C8.35588 26.4815 8.7327 26.3254 9.01053 26.0476C9.28836 25.7697 9.44444 25.3929 9.44444 25C9.44444 24.6071 9.28836 24.2303 9.01053 23.9524C8.7327 23.6746 8.35588 23.5185 7.96296 23.5185ZM11.9056 35.9994L10.858 37.047C10.7179 37.184 10.6063 37.3475 10.5298 37.5279C10.4533 37.7082 10.4134 37.902 10.4123 38.098C10.4112 38.2939 10.449 38.4881 10.5234 38.6694C10.5979 38.8506 10.7076 39.0153 10.8462 39.1538C10.9847 39.2924 11.1494 39.4021 11.3306 39.4766C11.5119 39.551 11.7061 39.5888 11.902 39.5877C12.098 39.5866 12.2918 39.5467 12.4721 39.4702C12.6525 39.3937 12.816 39.2821 12.953 39.142L14.0006 38.0944C14.2733 37.8156 14.425 37.4404 14.4228 37.0504C14.4206 36.6603 14.2647 36.2869 13.9889 36.0111C13.7131 35.7353 13.3397 35.5794 12.9496 35.5772C12.5596 35.575 12.1844 35.7267 11.9056 35.9994ZM25 40.5556C24.6071 40.5556 24.2303 40.7116 23.9524 40.9895C23.6746 41.2673 23.5185 41.6441 23.5185 42.037V43.5185C23.5185 43.9114 23.6746 44.2883 23.9524 44.5661C24.2303 44.8439 24.6071 45 25 45C25.3929 45 25.7697 44.8439 26.0476 44.5661C26.3254 44.2883 26.4815 43.9114 26.4815 43.5185V42.037C26.4815 41.6441 26.3254 41.2673 26.0476 40.9895C25.7697 40.7116 25.3929 40.5556 25 40.5556ZM38.0944 35.9994C37.8156 35.7267 37.4404 35.575 37.0504 35.5772C36.6603 35.5794 36.2869 35.7353 36.0111 36.0111C35.7353 36.2869 35.5794 36.6603 35.5772 37.0504C35.575 37.4404 35.7267 37.8156 35.9994 38.0944L37.047 39.142C37.3259 39.4147 37.7011 39.5665 38.0911 39.5643C38.4811 39.5621 38.8546 39.4062 39.1304 39.1304C39.4062 38.8546 39.5621 38.4811 39.5643 38.0911C39.5665 37.7011 39.4147 37.3259 39.142 37.047L38.0944 35.9994ZM43.5185 23.5185H42.037C41.6441 23.5185 41.2673 23.6746 40.9895 23.9524C40.7116 24.2303 40.5556 24.6071 40.5556 25C40.5556 25.3929 40.7116 25.7697 40.9895 26.0476C41.2673 26.3254 41.6441 26.4815 42.037 26.4815H43.5185C43.9114 26.4815 44.2883 26.3254 44.5661 26.0476C44.8439 25.7697 45 25.3929 45 25C45 24.6071 44.8439 24.2303 44.5661 23.9524C44.2883 23.6746 43.9114 23.5185 43.5185 23.5185ZM37.047 14.4344C37.2416 14.4347 37.4343 14.3965 37.6141 14.322C37.7939 14.2476 37.9572 14.1383 38.0946 14.0006L39.142 12.953C39.2821 12.816 39.3937 12.6525 39.4702 12.4721C39.5467 12.2918 39.5866 12.098 39.5877 11.902C39.5888 11.7061 39.551 11.5119 39.4766 11.3306C39.4021 11.1494 39.2924 10.9847 39.1538 10.8462C39.0153 10.7076 38.8506 10.5979 38.6694 10.5234C38.4881 10.449 38.2939 10.4112 38.098 10.4123C37.902 10.4134 37.7082 10.4533 37.5279 10.5298C37.3475 10.6063 37.184 10.7179 37.047 10.858L35.9994 11.9056C35.7923 12.1128 35.6513 12.3767 35.5941 12.6641C35.537 12.9514 35.5663 13.2493 35.6785 13.5199C35.7906 13.7906 35.9805 14.022 36.2241 14.1847C36.4677 14.3475 36.7541 14.4344 37.047 14.4344Z" fill="black"/>
</svg>
