<svg width="50" height="50" viewBox="0 0 50 50" fill="none" xmlns="http://www.w3.org/2000/svg">
<path d="M33.3333 5H16.6667C13.5735 5.00347 10.6081 6.23375 8.42092 8.42092C6.23375 10.6081 5.00347 13.5735 5 16.6667V33.3333C5.00347 36.4265 6.23375 39.3919 8.42092 41.5791C10.6081 43.7662 13.5735 44.9965 16.6667 45H26.6667C26.8458 45 27.0238 44.9711 27.1937 44.9146C32.659 43.0927 43.0927 32.659 44.9146 27.1937C44.9711 27.0238 45 26.8458 45 26.6667V16.6667C44.9965 13.5735 43.7662 10.6081 41.5791 8.42092C39.3919 6.23375 36.4265 5.00347 33.3333 5ZM26.6667 41.5462V35C26.6692 32.7906 27.548 30.6725 29.1102 29.1102C30.6725 27.548 32.7906 26.6692 35 26.6667H41.5462C39.6167 31.1567 31.1567 39.6167 26.6667 41.5462Z" fill="black"/>
</svg>
