<svg width="50" height="50" viewBox="0 0 50 50" fill="none" xmlns="http://www.w3.org/2000/svg">
<path d="M21.3636 5H6.81818C6.33597 5 5.87351 5.19156 5.53253 5.53253C5.19156 5.87351 5 6.33597 5 6.81818V21.3636C5 21.8458 5.19156 22.3083 5.53253 22.6493C5.87351 22.9903 6.33597 23.1818 6.81818 23.1818H21.3636C21.8458 23.1818 22.3083 22.9903 22.6493 22.6493C22.9903 22.3083 23.1818 21.8458 23.1818 21.3636V6.81818C23.1818 6.33597 22.9903 5.87351 22.6493 5.53253C22.3083 5.19156 21.8458 5 21.3636 5ZM19.5455 19.5455H8.63636V8.63636H19.5455V19.5455ZM43.1818 5H28.6364C28.1542 5 27.6917 5.19156 27.3507 5.53253C27.0097 5.87351 26.8182 6.33597 26.8182 6.81818V21.3636C26.8182 21.8458 27.0097 22.3083 27.3507 22.6493C27.6917 22.9903 28.1542 23.1818 28.6364 23.1818H43.1818C43.664 23.1818 44.1265 22.9903 44.4675 22.6493C44.8084 22.3083 45 21.8458 45 21.3636V6.81818C45 6.33597 44.8084 5.87351 44.4675 5.53253C44.1265 5.19156 43.664 5 43.1818 5ZM41.3636 19.5455H30.4545V8.63636H41.3636V19.5455ZM21.3636 26.8182H6.81818C6.33597 26.8182 5.87351 27.0097 5.53253 27.3507C5.19156 27.6917 5 28.1542 5 28.6364V43.1818C5 43.664 5.19156 44.1265 5.53253 44.4675C5.87351 44.8084 6.33597 45 6.81818 45H21.3636C21.8458 45 22.3083 44.8084 22.6493 44.4675C22.9903 44.1265 23.1818 43.664 23.1818 43.1818V28.6364C23.1818 28.1542 22.9903 27.6917 22.6493 27.3507C22.3083 27.0097 21.8458 26.8182 21.3636 26.8182ZM19.5455 41.3636H8.63636V30.4545H19.5455V41.3636ZM43.1818 26.8182H28.6364C28.1542 26.8182 27.6917 27.0097 27.3507 27.3507C27.0097 27.6917 26.8182 28.1542 26.8182 28.6364V43.1818C26.8182 43.664 27.0097 44.1265 27.3507 44.4675C27.6917 44.8084 28.1542 45 28.6364 45H43.1818C43.664 45 44.1265 44.8084 44.4675 44.4675C44.8084 44.1265 45 43.664 45 43.1818V28.6364C45 28.1542 44.8084 27.6917 44.4675 27.3507C44.1265 27.0097 43.664 26.8182 43.1818 26.8182ZM41.3636 41.3636H30.4545V30.4545H41.3636V41.3636Z" fill="black"/>
</svg>
