<svg width="50" height="50" viewBox="0 0 50 50" fill="none" xmlns="http://www.w3.org/2000/svg">
<path d="M43.517 31.7977L35.3936 39.5464C35.3918 39.5484 35.3895 39.5497 35.3877 39.5517C35.3516 39.5856 35.3139 39.6181 35.2748 39.6489C35.2561 39.6637 35.2362 39.6765 35.2171 39.69C35.1938 39.7067 35.171 39.7239 35.1468 39.7392C35.1241 39.754 35.1005 39.7664 35.0772 39.7797C35.0548 39.7923 35.0333 39.8057 35.0106 39.8173C34.9868 39.8293 34.9624 39.8396 34.9383 39.8506C34.9143 39.8613 34.8909 39.8725 34.8664 39.8824C34.8428 39.8915 34.8189 39.8991 34.7951 39.9072C34.7689 39.9161 34.7431 39.9258 34.7163 39.9336C34.6925 39.9403 34.6682 39.9454 34.6442 39.9512C34.617 39.9578 34.59 39.965 34.5621 39.9704C34.5341 39.9756 34.5059 39.9787 34.4775 39.9826C34.4535 39.9859 34.4297 39.9903 34.4052 39.9925C34.2985 40.0025 34.1911 40.0025 34.0845 39.9925C34.0603 39.9903 34.0368 39.9861 34.0128 39.9828C33.9844 39.9789 33.9559 39.9756 33.9275 39.9704C33.9001 39.9651 33.8735 39.958 33.8467 39.9514C33.8221 39.9456 33.7975 39.9403 33.7733 39.9334C33.7469 39.9258 33.7216 39.9163 33.6958 39.9076C33.6714 39.8993 33.647 39.8917 33.6233 39.8824C33.5995 39.8731 33.5766 39.8617 33.5532 39.8512C33.5284 39.84 33.5032 39.8295 33.4791 39.8171C33.4571 39.8059 33.4362 39.7931 33.4149 39.7811C33.3905 39.7671 33.3662 39.7542 33.3426 39.739C33.3198 39.7245 33.2983 39.7082 33.2764 39.6925C33.2559 39.678 33.2348 39.6644 33.2148 39.6487C33.1803 39.6213 33.1469 39.5925 33.1147 39.5625C33.1086 39.5567 33.1021 39.5521 33.096 39.5464L24.9725 31.7963C24.6677 31.5057 24.4965 31.1114 24.4965 30.7003C24.4965 30.2891 24.6677 29.8948 24.9724 29.6041C25.2771 29.3134 25.6903 29.1501 26.1213 29.1501C26.5522 29.15 26.9655 29.3133 27.2702 29.604L32.6202 34.7083V19.8501C32.6202 19.4391 32.7914 19.0448 33.0961 18.7541C33.4008 18.4634 33.814 18.3001 34.2449 18.3001C34.6758 18.3001 35.0891 18.4634 35.3938 18.7541C35.6985 19.0448 35.8696 19.4391 35.8696 19.8501V34.7086L41.2196 29.6054C41.3702 29.46 41.5494 29.3445 41.7469 29.2655C41.9444 29.1865 42.1564 29.1455 42.3706 29.1449C42.5848 29.1443 42.797 29.1841 42.995 29.262C43.193 29.34 43.3728 29.4545 43.5243 29.599C43.6757 29.7435 43.7957 29.9152 43.8773 30.1041C43.959 30.293 44.0007 30.4955 44 30.6998C43.9993 30.9041 43.9563 31.1063 43.8734 31.2948C43.7905 31.4832 43.6694 31.6541 43.517 31.7977ZM21.2472 21.4002H6.62472C6.19382 21.4002 5.78056 21.5635 5.47587 21.8542C5.17118 22.1448 5 22.5391 5 22.9502C5 23.3613 5.17118 23.7555 5.47587 24.0462C5.78056 24.3369 6.19382 24.5002 6.62472 24.5002H21.247C21.6779 24.5002 22.0911 24.3369 22.3958 24.0462C22.7005 23.7555 22.8717 23.3613 22.8717 22.9502C22.8717 22.5391 22.7005 22.1448 22.3958 21.8542C22.0911 21.5635 21.6779 21.4002 21.247 21.4002H21.2472ZM6.62472 12.1H34.2447C34.6756 12.1 35.0889 11.9367 35.3936 11.6461C35.6983 11.3554 35.8694 10.9611 35.8694 10.55C35.8694 10.1389 35.6983 9.74468 35.3936 9.45399C35.0889 9.16331 34.6756 9 34.2447 9H6.62472C6.19382 9 5.78056 9.16331 5.47587 9.45399C5.17118 9.74468 5 10.1389 5 10.55C5 10.9611 5.17118 11.3554 5.47587 11.6461C5.78056 11.9367 6.19382 12.1 6.62472 12.1ZM17.9977 33.8003H6.62472C6.19382 33.8003 5.78056 33.9636 5.47587 34.2543C5.17118 34.545 5 34.9393 5 35.3503C5 35.7614 5.17118 36.1557 5.47587 36.4464C5.78056 36.7371 6.19382 36.9004 6.62472 36.9004H17.9977C18.4286 36.9004 18.8419 36.7371 19.1466 36.4464C19.4513 36.1557 19.6225 35.7614 19.6225 35.3503C19.6225 34.9393 19.4513 34.545 19.1466 34.2543C18.8419 33.9636 18.4286 33.8003 17.9977 33.8003Z" fill="black"/>
</svg>
