<svg width="50" height="50" viewBox="0 0 50 50" fill="none" xmlns="http://www.w3.org/2000/svg">
<path d="M44.9806 26.9083C44.9929 26.8284 44.9994 26.7476 45 26.6667V16.6667C44.9965 13.5735 43.7662 10.6081 41.5791 8.42092C39.3919 6.23375 36.4265 5.00347 33.3333 5H16.6667C13.5735 5.00347 10.6081 6.23375 8.42092 8.42092C6.23375 10.6081 5.00347 13.5735 5 16.6667V33.3333C5.00347 36.4265 6.23375 39.3919 8.42092 41.5791C10.6081 43.7662 13.5735 44.9965 16.6667 45H26.6667C26.7476 44.9994 26.8284 44.9929 26.9083 44.9806C26.9233 44.9783 26.9383 44.9765 26.9533 44.9737C27.0319 44.9603 27.1094 44.9412 27.1852 44.9167L27.1937 44.9146C32.659 43.0927 43.0927 32.659 44.9146 27.1937L44.9167 27.1854C44.9412 27.1095 44.9602 27.032 44.9735 26.9533C44.9762 26.9383 44.9783 26.9233 44.9806 26.9081V26.9083ZM8.33333 33.3333V16.6667C8.33587 14.4573 9.21466 12.3392 10.7769 10.7769C12.3392 9.21466 14.4573 8.33587 16.6667 8.33333H33.3333C35.5427 8.33587 37.6608 9.21466 39.2231 10.7769C40.7853 12.3392 41.6641 14.4573 41.6667 16.6667V25H36.6667C33.5735 25.0035 30.6081 26.2338 28.4209 28.4209C26.2338 30.6081 25.0035 33.5735 25 36.6667V41.6667H16.6667C14.4573 41.6641 12.3392 40.7853 10.7769 39.2231C9.21466 37.6608 8.33587 35.5427 8.33333 33.3333ZM28.3333 40.6537V36.6667C28.3359 34.4573 29.2147 32.3392 30.7769 30.7769C32.3392 29.2147 34.4573 28.3359 36.6667 28.3333H40.6537C38.1194 32.3967 32.3969 38.1196 28.3333 40.6537Z" fill="black"/>
</svg>
