<svg width="50" height="50" viewBox="0 0 50 50" fill="none" xmlns="http://www.w3.org/2000/svg">
<path d="M43.9282 23.5019L35.8513 30.1256L38.4153 40.3438C38.5659 40.9146 38.5381 41.517 38.3355 42.072C38.1328 42.627 37.7649 43.1088 37.2797 43.4544C36.811 43.7913 36.25 43.981 35.6701 43.9986C35.0902 44.0163 34.5184 43.861 34.0295 43.5532L25.0237 37.9315C24.9988 37.9177 24.9875 37.9232 24.9763 37.9315L16.6065 43.1561C16.0672 43.4943 15.4371 43.6646 14.7982 43.645C14.1594 43.6254 13.5412 43.4167 13.0244 43.0462C12.489 42.6647 12.0829 42.1328 11.8594 41.5202C11.6359 40.9075 11.6053 40.2426 11.7716 39.6126L14.185 30.259L6.07182 23.5019C5.61223 23.1245 5.27861 22.6195 5.1144 22.0527C4.9502 21.4858 4.96302 20.8834 5.15119 20.3239C5.32953 19.7722 5.67249 19.2862 6.13533 18.9295C6.59817 18.5727 7.15939 18.3617 7.74576 18.324L18.2917 17.6491L22.284 7.83223C22.4964 7.29338 22.8689 6.83023 23.3527 6.50333C23.8366 6.17644 24.4092 6.00101 24.9959 6H24.9986C25.5861 6.00008 26.16 6.17506 26.6449 6.50201C27.1298 6.82895 27.5031 7.29261 27.716 7.83223L31.6497 17.5928L42.2541 18.324C42.8405 18.3617 43.4017 18.5727 43.8646 18.9294C44.3275 19.2862 44.6705 19.7721 44.8488 20.3239C45.037 20.8834 45.0498 21.4858 44.8856 22.0527C44.7214 22.6195 44.3878 23.1245 43.9282 23.5019Z" fill="black"/>
</svg>
