<svg width="50" height="50" viewBox="0 0 50 50" fill="none" xmlns="http://www.w3.org/2000/svg">
<path d="M25 12.4074C22.5094 12.4074 20.0748 13.146 18.0039 14.5296C15.9331 15.9133 14.3191 17.88 13.366 20.181C12.4129 22.482 12.1635 25.014 12.6494 27.4567C13.1353 29.8994 14.3346 32.1432 16.0957 33.9043C17.8568 35.6654 20.1006 36.8647 22.5433 37.3506C24.986 37.8365 27.518 37.5871 29.819 36.634C32.12 35.6809 34.0867 34.0669 35.4704 31.9961C36.854 29.9252 37.5926 27.4906 37.5926 25C37.5888 21.6614 36.2609 18.4606 33.9001 16.0999C31.5394 13.7391 28.3386 12.4112 25 12.4074ZM25 34.6296C23.0954 34.6296 21.2336 34.0649 19.6501 33.0067C18.0665 31.9486 16.8322 30.4447 16.1034 28.6851C15.3745 26.9255 15.1838 24.9893 15.5554 23.1214C15.927 21.2534 16.8441 19.5376 18.1908 18.1908C19.5376 16.8441 21.2534 15.927 23.1214 15.5554C24.9893 15.1838 26.9255 15.3745 28.6851 16.1034C30.4447 16.8322 31.9486 18.0665 33.0067 19.6501C34.0649 21.2336 34.6296 23.0954 34.6296 25C34.6267 27.553 33.6113 30.0007 31.806 31.806C30.0007 33.6113 27.553 34.6267 25 34.6296ZM23.5185 7.96296V6.48148C23.5185 6.08857 23.6746 5.71175 23.9524 5.43392C24.2303 5.15608 24.6071 5 25 5C25.3929 5 25.7697 5.15608 26.0476 5.43392C26.3254 5.71175 26.4815 6.08857 26.4815 6.48148V7.96296C26.4815 8.35588 26.3254 8.7327 26.0476 9.01053C25.7697 9.28836 25.3929 9.44444 25 9.44444C24.6071 9.44444 24.2303 9.28836 23.9524 9.01053C23.6746 8.7327 23.5185 8.35588 23.5185 7.96296ZM10.858 12.953C10.7179 12.816 10.6063 12.6525 10.5298 12.4721C10.4533 12.2918 10.4134 12.098 10.4123 11.902C10.4112 11.7061 10.449 11.5119 10.5234 11.3306C10.5979 11.1494 10.7076 10.9847 10.8462 10.8462C10.9847 10.7076 11.1494 10.5979 11.3306 10.5234C11.5119 10.449 11.7061 10.4112 11.902 10.4123C12.098 10.4134 12.2918 10.4533 12.4721 10.5298C12.6525 10.6063 12.816 10.7179 12.953 10.858L14.0006 11.9056C14.2756 12.184 14.4293 12.5599 14.4281 12.9513C14.4269 13.3426 14.2709 13.7176 13.9941 13.9943C13.7174 14.271 13.3424 14.427 12.951 14.4282C12.5597 14.4293 12.1838 14.2756 11.9054 14.0006L10.858 12.953ZM9.44444 25C9.44444 25.3929 9.28836 25.7697 9.01053 26.0476C8.7327 26.3254 8.35588 26.4815 7.96296 26.4815H6.48148C6.08857 26.4815 5.71175 26.3254 5.43392 26.0476C5.15608 25.7697 5 25.3929 5 25C5 24.6071 5.15608 24.2303 5.43392 23.9524C5.71175 23.6746 6.08857 23.5185 6.48148 23.5185H7.96296C8.35588 23.5185 8.7327 23.6746 9.01053 23.9524C9.28836 24.2303 9.44444 24.6071 9.44444 25ZM14.0006 35.9994C14.2783 36.2773 14.4344 36.6541 14.4344 37.0469C14.4344 37.4398 14.2783 37.8166 14.0006 38.0944L12.953 39.142C12.6741 39.4147 12.2989 39.5665 11.9089 39.5643C11.5189 39.5621 11.1454 39.4062 10.8696 39.1304C10.5938 38.8546 10.4379 38.4811 10.4357 38.0911C10.4335 37.7011 10.5853 37.3259 10.858 37.047L11.9056 35.9994C12.1834 35.7217 12.5602 35.5656 12.9531 35.5656C13.3459 35.5656 13.7227 35.7217 14.0006 35.9994ZM26.4815 42.037V43.5185C26.4815 43.9114 26.3254 44.2883 26.0476 44.5661C25.7697 44.8439 25.3929 45 25 45C24.6071 45 24.2303 44.8439 23.9524 44.5661C23.6746 44.2883 23.5185 43.9114 23.5185 43.5185V42.037C23.5185 41.6441 23.6746 41.2673 23.9524 40.9895C24.2303 40.7116 24.6071 40.5556 25 40.5556C25.3929 40.5556 25.7697 40.7116 26.0476 40.9895C26.3254 41.2673 26.4815 41.6441 26.4815 42.037ZM39.142 37.047C39.2821 37.184 39.3937 37.3475 39.4702 37.5279C39.5467 37.7082 39.5866 37.902 39.5877 38.098C39.5888 38.2939 39.551 38.4881 39.4766 38.6694C39.4021 38.8506 39.2924 39.0153 39.1538 39.1538C39.0153 39.2924 38.8506 39.4021 38.6694 39.4766C38.4881 39.551 38.2939 39.5888 38.098 39.5877C37.902 39.5866 37.7082 39.5467 37.5279 39.4702C37.3475 39.3937 37.184 39.2821 37.047 39.142L35.9994 38.0944C35.7267 37.8156 35.575 37.4404 35.5772 37.0504C35.5794 36.6603 35.7353 36.2869 36.0111 36.0111C36.2869 35.7353 36.6603 35.5794 37.0504 35.5772C37.4404 35.575 37.8156 35.7267 38.0944 35.9994L39.142 37.047ZM45 25C45 25.3929 44.8439 25.7697 44.5661 26.0476C44.2883 26.3254 43.9114 26.4815 43.5185 26.4815H42.037C41.6441 26.4815 41.2673 26.3254 40.9895 26.0476C40.7116 25.7697 40.5556 25.3929 40.5556 25C40.5556 24.6071 40.7116 24.2303 40.9895 23.9524C41.2673 23.6746 41.6441 23.5185 42.037 23.5185H43.5185C43.9114 23.5185 44.2883 23.6746 44.5661 23.9524C44.8439 24.2303 45 24.6071 45 25ZM35.9994 14.0006C35.7217 13.7227 35.5656 13.3459 35.5656 12.9531C35.5656 12.5602 35.7217 12.1834 35.9994 11.9056L37.047 10.858C37.184 10.7179 37.3475 10.6063 37.5279 10.5298C37.7082 10.4533 37.902 10.4134 38.098 10.4123C38.2939 10.4112 38.4881 10.449 38.6694 10.5234C38.8506 10.5979 39.0153 10.7076 39.1538 10.8462C39.2924 10.9847 39.4021 11.1494 39.4766 11.3306C39.551 11.5119 39.5888 11.7061 39.5877 11.902C39.5866 12.098 39.5467 12.2918 39.4702 12.4721C39.3937 12.6525 39.2821 12.816 39.142 12.953L38.0946 14.0006C37.9571 14.1381 37.7937 14.2473 37.614 14.3217C37.4342 14.3962 37.2416 14.4345 37.047 14.4345C36.8525 14.4345 36.6598 14.3962 36.4801 14.3217C36.3003 14.2473 36.137 14.1381 35.9994 14.0006Z" fill="black"/>
</svg>
