<svg width="50" height="50" viewBox="0 0 50 50" fill="none" xmlns="http://www.w3.org/2000/svg">
<path d="M43.524 19.0654C43.3732 19.2187 43.1941 19.3403 42.9969 19.4232C42.7998 19.5062 42.5885 19.5489 42.3751 19.5489C42.1617 19.5489 41.9504 19.5063 41.7532 19.4234C41.5561 19.3404 41.3769 19.2189 41.2261 19.0657L35.8751 13.6335V29.4503C35.8751 29.8879 35.7039 30.3076 35.3992 30.617C35.0944 30.9264 34.6811 31.1003 34.2501 31.1003C33.8191 31.1003 33.4058 30.9264 33.1011 30.617C32.7963 30.3076 32.6251 29.8879 32.6251 29.4503V13.6339L27.2742 19.0669C27.1232 19.2201 26.9441 19.3417 26.7469 19.4246C26.5497 19.5075 26.3384 19.5502 26.125 19.5501C25.9116 19.5501 25.7003 19.5074 25.5031 19.4245C25.3059 19.3416 25.1268 19.22 24.9759 19.0668C24.825 18.9136 24.7053 18.7316 24.6236 18.5314C24.542 18.3312 24.4999 18.1167 24.5 17.9C24.5 17.6833 24.542 17.4687 24.6237 17.2685C24.7054 17.0683 24.8251 16.8864 24.976 16.7332L33.101 8.48324C33.1071 8.47726 33.1136 8.47231 33.1197 8.46633C33.152 8.43436 33.1849 8.40342 33.2199 8.37434C33.2396 8.35784 33.2605 8.3434 33.281 8.32773C33.3033 8.31123 33.3247 8.2937 33.3476 8.27823C33.371 8.26235 33.3952 8.24853 33.4191 8.23409C33.4409 8.22089 33.4618 8.20728 33.4841 8.1949C33.5079 8.18212 33.5323 8.17119 33.5564 8.15964C33.5806 8.14809 33.604 8.13592 33.6285 8.12561C33.6515 8.11612 33.6749 8.10828 33.698 8.09982C33.725 8.08992 33.7514 8.07961 33.7793 8.07095C33.8016 8.06435 33.824 8.0594 33.8467 8.05342C33.8755 8.04599 33.904 8.03795 33.9334 8.03197C33.9582 8.02702 33.9834 8.02413 34.0086 8.02042C34.0358 8.01629 34.0628 8.01114 34.0907 8.00825C34.1321 8.00413 34.1735 8.00289 34.215 8.00206C34.2267 8.00165 34.2383 8 34.2501 8C34.2627 8 34.2745 8.00165 34.2871 8.00206C34.3279 8.00256 34.3687 8.00463 34.4094 8.00825C34.4378 8.01114 34.4656 8.0165 34.4937 8.02062C34.518 8.02434 34.5424 8.02702 34.5666 8.03197C34.5968 8.03816 34.6261 8.04641 34.6555 8.05404C34.6773 8.05961 34.6992 8.06435 34.7205 8.07095C34.7492 8.07982 34.7766 8.09054 34.8044 8.10065C34.8268 8.1089 34.8491 8.11632 34.8711 8.1254C34.8967 8.13633 34.9212 8.14891 34.9462 8.16087C34.9694 8.17201 34.9929 8.18253 35.0153 8.1947C35.039 8.20749 35.0616 8.22213 35.0843 8.23595C35.1071 8.24977 35.13 8.26276 35.152 8.27782C35.177 8.29473 35.2003 8.3135 35.2241 8.33144C35.2426 8.34588 35.2619 8.35887 35.28 8.37393C35.3194 8.40693 35.3571 8.44158 35.3933 8.47788C35.3953 8.47994 35.3974 8.48138 35.399 8.48324L43.524 16.7317C43.6749 16.885 43.7946 17.0669 43.8763 17.2671C43.958 17.4672 44 17.6818 44 17.8985C44 18.1152 43.958 18.3297 43.8763 18.5299C43.7946 18.7301 43.6749 18.912 43.524 19.0652V19.0654ZM6.62501 27.8001H21.2499C21.6808 27.8001 22.0942 27.6262 22.3989 27.3168C22.7037 27.0074 22.8749 26.5877 22.8749 26.1501C22.8749 25.7125 22.7037 25.2928 22.3989 24.9834C22.0942 24.6739 21.6808 24.5001 21.2499 24.5001H6.62501C6.19403 24.5001 5.7807 24.6739 5.47595 24.9834C5.17121 25.2928 5 25.7125 5 26.1501C5 26.5877 5.17121 27.0074 5.47595 27.3168C5.7807 27.6262 6.19403 27.8001 6.62501 27.8001ZM6.62501 14.6002H17.9998C18.4308 14.6002 18.8441 14.4263 19.1489 14.1169C19.4536 13.8075 19.6249 13.3878 19.6249 12.9502C19.6249 12.5126 19.4536 12.0929 19.1489 11.7835C18.8441 11.474 18.4308 11.3002 17.9998 11.3002H6.62501C6.19403 11.3002 5.7807 11.474 5.47595 11.7835C5.17121 12.0929 5 12.5126 5 12.9502C5 13.3878 5.17121 13.8075 5.47595 14.1169C5.7807 14.4263 6.19403 14.6002 6.62501 14.6002ZM34.2499 37.7H6.62501C6.19403 37.7 5.7807 37.8739 5.47595 38.1833C5.17121 38.4927 5 38.9124 5 39.35C5 39.7876 5.17121 40.2073 5.47595 40.5167C5.7807 40.8262 6.19403 41 6.62501 41H34.2499C34.6809 41 35.0942 40.8262 35.399 40.5167C35.7037 40.2073 35.8749 39.7876 35.8749 39.35C35.8749 38.9124 35.7037 38.4927 35.399 38.1833C35.0942 37.8739 34.6809 37.7 34.2499 37.7Z" fill="black"/>
</svg>
