<svg width="50" height="50" viewBox="0 0 50 50" fill="none" xmlns="http://www.w3.org/2000/svg">
<path d="M42.9658 37.8598C42.9665 38.9084 42.7313 39.9442 42.277 40.8937C41.8226 41.8431 41.1602 42.6828 40.337 43.3529C39.5138 44.023 38.5499 44.5071 37.514 44.7708C36.478 45.0344 35.3955 45.0712 34.3435 44.8783C33.2914 44.6855 32.2956 44.2679 31.4271 43.6552C30.5585 43.0424 29.8384 42.2497 29.3181 41.3333C28.7978 40.417 28.49 39.3995 28.4167 38.3534C28.3434 37.3073 28.5064 36.2581 28.894 35.2807L20.5006 29.9945C19.4899 31.0113 18.1926 31.7096 16.7747 32.0003C15.3567 32.2909 13.8825 32.1607 12.5405 31.6263C11.1985 31.0918 10.0496 30.1774 9.24082 28.9999C8.43202 27.8225 8 26.4355 8 25.0162C8 23.5969 8.43202 22.2099 9.24082 21.0324C10.0496 19.855 11.1985 18.9406 12.5405 18.4061C13.8825 17.8717 15.3567 17.7414 16.7747 18.0321C18.1926 18.3228 19.4899 19.0211 20.5006 20.0379L28.894 14.7517C28.2368 13.0995 28.2293 11.2671 28.873 9.60977C29.5167 7.95249 30.7657 6.58847 32.3777 5.78224C33.9897 4.97601 35.8499 4.78504 37.5975 5.24635C39.3451 5.70767 40.8556 6.7884 41.836 8.27895C42.8163 9.7695 43.1968 11.5636 42.9035 13.3134C42.6102 15.0632 41.664 16.6439 40.2486 17.749C38.8331 18.854 37.0492 19.4047 35.2428 19.2942C33.4363 19.1837 31.7362 18.4199 30.472 17.1509L22.0788 22.437C22.7381 24.0958 22.7381 25.9366 22.0788 27.5954L30.472 32.8816C31.4822 31.8648 32.779 31.1664 34.1965 30.8757C35.6141 30.585 37.088 30.7153 38.4296 31.2499C39.7711 31.7844 40.9194 32.6989 41.7275 33.8764C42.5356 35.0539 42.9667 36.4409 42.9658 37.8598Z" fill="black"/>
</svg>
