<svg width="50" height="50" viewBox="0 0 50 50" fill="currentColor" xmlns="http://www.w3.org/2000/svg">
<path d="M35.5819 44C35.0316 43.9995 34.4928 43.8445 34.0286 43.5533L25.0232 37.9313C25.0165 37.9264 25.0084 37.9237 25 37.9237C24.9916 37.9237 24.9835 37.9264 24.9768 37.9313L16.6078 43.156C16.0683 43.4954 15.4374 43.6664 14.7976 43.6466C14.1579 43.6267 13.5391 43.4171 13.0223 43.045C12.4873 42.6632 12.0817 42.1311 11.8587 41.5185C11.6357 40.9058 11.6056 40.241 11.7724 39.6112L14.1856 30.2582C14.1921 30.2349 14.1922 30.2103 14.1858 30.187C14.1795 30.1636 14.1669 30.1423 14.1494 30.1254L6.07358 23.5023C5.61332 23.1256 5.2791 22.6208 5.1146 22.0539C4.95009 21.487 4.96296 20.8844 5.15151 20.3248C5.32919 19.7728 5.67173 19.2865 6.13437 18.9293C6.59701 18.5721 7.15823 18.3608 7.7447 18.3228L18.2912 17.6484C18.3052 17.6451 18.318 17.6381 18.3284 17.6282C18.3387 17.6184 18.3462 17.606 18.3501 17.5923L22.2838 7.83224C22.4963 7.29262 22.8694 6.82891 23.3542 6.50194C23.8389 6.17496 24.4126 6 25.0001 6C25.5875 6 26.1613 6.17496 26.646 6.50194C27.1307 6.82891 27.5039 7.29262 27.7164 7.83224L31.65 17.5921C31.6539 17.6058 31.6613 17.6182 31.6716 17.6281C31.6819 17.638 31.6947 17.645 31.7086 17.6484L42.2553 18.3228C42.8417 18.3608 43.4029 18.5721 43.8655 18.9292C44.3282 19.2863 44.6707 19.7726 44.8485 20.3245C45.037 20.8841 45.0499 21.4866 44.8854 22.0535C44.7209 22.6204 44.3867 23.1252 43.9264 23.502L35.851 30.1249C35.8334 30.1418 35.8207 30.1631 35.8144 30.1866C35.808 30.21 35.8081 30.2347 35.8147 30.258L38.4167 40.3433C38.5676 40.9136 38.5402 41.5155 38.3381 42.0702C38.1361 42.625 37.7688 43.1067 37.2842 43.4523C36.7898 43.8074 36.1939 43.9991 35.5821 43.9998L35.5819 44ZM25 35.1121C25.5493 35.1113 26.0876 35.2644 26.552 35.5535L35.5578 41.1755C35.5657 41.1809 35.5745 41.1852 35.5837 41.1883C35.6056 41.1775 35.6244 41.1614 35.6383 41.1415C35.6483 41.1261 35.6544 41.1086 35.656 41.0904C35.6576 41.0722 35.6548 41.0539 35.6478 41.037L33.0458 30.9516C32.9072 30.413 32.9254 29.8469 33.0983 29.3181C33.2711 28.7892 33.5916 28.319 34.0231 27.9613L42.0987 21.3384C42.1204 21.3223 42.1356 21.2992 42.1417 21.2731C42.1478 21.2471 42.1443 21.2197 42.1319 21.1959C42.1117 21.1349 42.0907 21.1335 42.0701 21.1322L31.5236 20.4579C30.9703 20.4189 30.4393 20.2268 29.9919 19.9036C29.5444 19.5804 29.1987 19.1393 28.9945 18.6311L25.0609 8.87134C25.0384 8.81504 25.0239 8.81504 25 8.81504C24.9761 8.81504 24.9616 8.81504 24.9389 8.87134L21.0053 18.6312C20.801 19.1394 20.4553 19.5805 20.0079 19.9036C19.5605 20.2268 19.0295 20.4189 18.4762 20.4579L7.92987 21.1322C7.90933 21.1335 7.88826 21.1349 7.86809 21.1959C7.85568 21.2197 7.85222 21.2471 7.85829 21.2731C7.86437 21.2992 7.8796 21.3223 7.9013 21.3384L15.9771 27.9615C16.4085 28.3192 16.729 28.7894 16.9018 29.3182C17.0746 29.847 17.0928 30.4131 16.9544 30.9516L14.5413 40.3046C14.5143 40.3881 14.515 40.4779 14.5435 40.5609C14.572 40.6439 14.6266 40.7158 14.6995 40.7661C14.7522 40.8097 14.8182 40.8346 14.887 40.8368C14.9557 40.839 15.0232 40.8183 15.0786 40.778L23.448 35.5535C23.9124 35.2644 24.4506 35.1112 25 35.1119V35.1121Z" />
</svg>
