<svg width="50" height="50" viewBox="0 0 50 50" fill="none" xmlns="http://www.w3.org/2000/svg">
<path d="M34.9183 30.7139C33.9734 30.7136 33.0381 30.9046 32.1678 31.2756C31.2974 31.6466 30.5098 32.1901 29.8515 32.8738L21.6901 27.5808C22.331 25.9199 22.331 24.0769 21.6901 22.416L29.8515 17.1232C31.0766 18.3875 32.7235 19.148 34.4728 19.2571C36.2221 19.3662 37.9493 18.8163 39.3196 17.7139C40.6898 16.6114 41.6055 15.0351 41.8892 13.2903C42.1729 11.5455 41.8043 9.75662 40.855 8.27038C39.9056 6.78413 38.4431 5.7064 36.7509 5.24608C35.0586 4.78576 33.2573 4.97564 31.6959 5.77891C30.1346 6.58219 28.9245 7.94165 28.3002 9.59377C27.6759 11.2459 27.6819 13.073 28.317 14.7209L20.1554 20.0139C19.1726 18.9959 17.9111 18.2967 16.5324 18.0057C15.1536 17.7146 13.7201 17.845 12.4151 18.3801C11.1101 18.9153 9.99303 19.8308 9.20656 21.0098C8.42009 22.1887 8 23.5775 8 24.9985C8 26.4196 8.42009 27.8083 9.20656 28.9873C9.99303 30.1662 11.1101 31.0818 12.4151 31.6169C13.7201 32.152 15.1536 32.2824 16.5324 31.9914C17.9111 31.7003 19.1726 31.0011 20.1554 29.9831L28.317 35.2759C27.7706 36.6983 27.6899 38.2598 28.0868 39.7318C28.4837 41.2037 29.3373 42.5089 30.5226 43.4561C31.7079 44.4033 33.1627 44.9428 34.6739 44.9957C36.1852 45.0486 37.6735 44.612 38.921 43.7499C40.1685 42.8877 41.1096 41.6454 41.6066 40.2047C42.1036 38.764 42.1304 37.2006 41.6829 35.7434C41.2355 34.2863 40.3374 33.0119 39.1202 32.1069C37.9029 31.2018 36.4304 30.7137 34.9183 30.7139ZM34.9183 7.85223C35.7587 7.85223 36.5802 8.10363 37.279 8.57465C37.9777 9.04566 38.5224 9.71513 38.844 10.4984C39.1656 11.2817 39.2497 12.1436 39.0858 12.9751C38.9218 13.8066 38.5171 14.5704 37.9229 15.1699C37.3286 15.7693 36.5715 16.1776 35.7472 16.343C34.923 16.5084 34.0686 16.4235 33.2922 16.0991C32.5157 15.7746 31.8521 15.2252 31.3852 14.5203C30.9183 13.8154 30.6691 12.9866 30.6691 12.1388C30.6703 11.0023 31.1184 9.91276 31.915 9.10915C32.7116 8.30554 33.7917 7.85351 34.9183 7.85223ZM15.0888 29.2851C14.2484 29.2851 13.4268 29.0337 12.7281 28.5627C12.0293 28.0916 11.4847 27.4222 11.1631 26.6389C10.8415 25.8556 10.7573 24.9938 10.9213 24.1622C11.0852 23.3307 11.4899 22.5669 12.0842 21.9674C12.6784 21.368 13.4356 20.9597 14.2598 20.7943C15.0841 20.6289 15.9384 20.7138 16.7149 21.0382C17.4913 21.3627 18.1549 21.9121 18.6218 22.617C19.0887 23.3219 19.338 24.1507 19.338 24.9985C19.3367 26.135 18.8886 27.2246 18.092 28.0282C17.2954 28.8318 16.2153 29.2838 15.0888 29.2851ZM34.9183 42.1448C34.0778 42.1448 33.2563 41.8934 32.5575 41.4224C31.8588 40.9514 31.3141 40.2819 30.9925 39.4986C30.6709 38.7153 30.5868 37.8535 30.7507 37.0219C30.9147 36.1904 31.3194 35.4266 31.9136 34.8272C32.5079 34.2277 33.265 33.8194 34.0893 33.654C34.9135 33.4886 35.7679 33.5735 36.5443 33.8979C37.3208 34.2224 37.9844 34.7718 38.4513 35.4767C38.9182 36.1817 39.1674 37.0104 39.1674 37.8582C39.1662 38.9947 38.7181 40.0843 37.9215 40.8879C37.1249 41.6915 36.0448 42.1435 34.9183 42.1448Z" fill="black"/>
</svg>
