<svg width="50" height="50" viewBox="0 0 50 50" fill="none" xmlns="http://www.w3.org/2000/svg">
<path d="M44.174 24.2349L25.7656 5.82658C25.4377 5.49778 25.0335 5.25527 24.589 5.1207C24.1446 4.98613 23.6738 4.96369 23.2186 5.05536L9.00387 7.89824C8.73099 7.95291 8.48039 8.08708 8.2836 8.28387C8.08681 8.48065 7.95264 8.73125 7.89797 9.00413L5.05524 23.2187C4.9637 23.6739 4.9862 24.1447 5.12073 24.5891C5.25526 25.0335 5.49765 25.4377 5.82629 25.7657L24.2346 44.1738C24.4964 44.4357 24.8073 44.6435 25.1495 44.7852C25.4916 44.927 25.8583 45 26.2287 45C26.599 45 26.9658 44.9271 27.3079 44.7853C27.6501 44.6436 27.961 44.4359 28.2229 44.174L44.1739 28.2229C44.4358 27.9611 44.6435 27.6502 44.7853 27.3081C44.927 26.966 45 26.5993 45 26.2289C45 25.8586 44.9271 25.4919 44.7854 25.1498C44.6436 24.8076 44.4359 24.4967 44.174 24.2349ZM16.6798 18.7958C16.2615 18.7958 15.8526 18.6718 15.5048 18.4394C15.157 18.2071 14.886 17.8768 14.7259 17.4903C14.5658 17.1039 14.5239 16.6787 14.6055 16.2684C14.6871 15.8582 14.8886 15.4814 15.1843 15.1856C15.4801 14.8898 15.8569 14.6884 16.2672 14.6068C16.6774 14.5252 17.1026 14.5671 17.4891 14.7271C17.8755 14.8872 18.2058 15.1583 18.4382 15.5061C18.6706 15.8538 18.7946 16.2627 18.7946 16.681C18.7946 17.2419 18.5718 17.7798 18.1752 18.1764C17.7786 18.573 17.2407 18.7958 16.6798 18.7958Z" fill="black"/>
</svg>
