<svg width="50" height="50" viewBox="0 0 50 50" fill="none" xmlns="http://www.w3.org/2000/svg">
<path d="M43.1947 23.754L25.2464 5.80594C24.9268 5.48534 24.5327 5.24888 24.0993 5.11767C23.666 4.98646 23.2069 4.96459 22.7631 5.05401L8.90377 7.82581C8.63772 7.87911 8.39338 8.00993 8.20151 8.2018C8.00964 8.39366 7.87882 8.638 7.82552 8.90405L5.05386 22.7632C4.96461 23.2071 4.98654 23.6661 5.11771 24.0993C5.24888 24.5326 5.48521 24.9267 5.80563 25.2465L23.7537 43.1944C24.009 43.4498 24.3121 43.6524 24.6457 43.7906C24.9793 43.9288 25.3369 44 25.698 44C26.0591 44 26.4166 43.9289 26.7502 43.7907C27.0839 43.6525 27.387 43.45 27.6423 43.1946L43.1945 27.6424C43.4499 27.3871 43.6524 27.084 43.7906 26.7504C43.9288 26.4168 44 26.0593 44 25.6982C44 25.3372 43.9289 24.9796 43.7907 24.646C43.6526 24.3124 43.45 24.0093 43.1947 23.754ZM25.6982 41.2505L7.74974 23.3024L10.3418 10.3423L23.3023 7.75021L41.2506 25.6983L25.6982 41.2505ZM18.4508 16.389C18.4508 16.7968 18.3299 17.1955 18.1033 17.5346C17.8767 17.8737 17.5547 18.1379 17.1779 18.294C16.8011 18.4501 16.3865 18.4909 15.9865 18.4114C15.5865 18.3318 15.2191 18.1354 14.9308 17.847C14.6424 17.5587 14.446 17.1913 14.3664 16.7913C14.2869 16.3913 14.3277 15.9767 14.4838 15.5999C14.6398 15.2231 14.9041 14.9011 15.2432 14.6745C15.5823 14.448 15.981 14.327 16.3888 14.327C16.9355 14.3276 17.4596 14.5451 17.8462 14.9316C18.2328 15.3182 18.4502 15.8423 18.4508 16.389Z" fill="black"/>
</svg>
