<svg width="50" height="50" viewBox="0 0 50 50" fill="none" xmlns="http://www.w3.org/2000/svg">
<path d="M41.5 11H8.5C8.10217 11 7.72064 11.158 7.43934 11.4393C7.15804 11.7206 7 12.1022 7 12.5C7 12.8978 7.15804 13.2794 7.43934 13.5607C7.72064 13.842 8.10217 14 8.5 14H10V41C10.0009 41.7954 10.3173 42.5579 10.8797 43.1203C11.4421 43.6827 12.2046 43.9991 13 44H37C37.7954 43.9991 38.5579 43.6827 39.1203 43.1203C39.6827 42.5579 39.9991 41.7954 40 41V14H41.5C41.8978 14 42.2794 13.842 42.5607 13.5607C42.842 13.2794 43 12.8978 43 12.5C43 12.1022 42.842 11.7206 42.5607 11.4393C42.2794 11.158 41.8978 11 41.5 11ZM37 41H13V14H37V41ZM16.0007 6.5C16.0007 6.10218 16.1588 5.72064 16.4401 5.43934C16.7214 5.15804 17.1029 5 17.5007 5H32.5007C32.8986 5 33.2801 5.15804 33.5614 5.43934C33.8427 5.72064 34.0007 6.10218 34.0007 6.5C34.0007 6.89782 33.8427 7.27936 33.5614 7.56066C33.2801 7.84196 32.8986 8 32.5007 8H17.5007C17.1029 8 16.7214 7.84196 16.4401 7.56066C16.1588 7.27936 16.0007 6.89782 16.0007 6.5Z" fill="black"/>
</svg>
