<svg width="50" height="50" viewBox="0 0 50 50" fill="none" xmlns="http://www.w3.org/2000/svg">
<path d="M33 13H17C13.8174 13 10.7652 14.2643 8.51472 16.5147C6.26428 18.7652 5 21.8174 5 25C5 28.1826 6.26428 31.2348 8.51472 33.4853C10.7652 35.7357 13.8174 37 17 37H33C36.1826 37 39.2348 35.7357 41.4853 33.4853C43.7357 31.2348 45 28.1826 45 25C45 21.8174 43.7357 18.7652 41.4853 16.5147C39.2348 14.2643 36.1826 13 33 13ZM17 31.6667C15.6815 31.6667 14.3925 31.2757 13.2962 30.5431C12.1999 29.8106 11.3454 28.7694 10.8408 27.5512C10.3362 26.333 10.2042 24.9926 10.4614 23.6994C10.7187 22.4062 11.3536 21.2183 12.286 20.286C13.2183 19.3536 14.4062 18.7187 15.6994 18.4614C16.9926 18.2042 18.333 18.3362 19.5512 18.8408C20.7694 19.3454 21.8106 20.1999 22.5431 21.2962C23.2757 22.3925 23.6667 23.6815 23.6667 25C23.6646 26.7675 22.9616 28.462 21.7118 29.7118C20.462 30.9616 18.7675 31.6646 17 31.6667Z" fill="black"/>
</svg>
