<svg width="50" height="50" viewBox="0 0 50 50" fill="none" xmlns="http://www.w3.org/2000/svg">
<path d="M30.5 18.3478V16.1304H28.25C27.4546 16.1313 26.6921 16.4431 26.1297 16.9974C25.5673 17.5516 25.2509 18.3031 25.25 19.087V30.913C25.2509 31.6969 25.5673 32.4484 26.1297 33.0026C26.6921 33.5569 27.4546 33.8687 28.25 33.8696H30.5V31.6522C30.5009 30.8683 30.8173 30.1168 31.3797 29.5626C31.9421 29.0083 32.7046 28.6965 33.5 28.6957H41C41.7954 28.6965 42.5579 29.0083 43.1203 29.5626C43.6827 30.1168 43.9991 30.8683 44 31.6522V39.0435C43.9991 39.8273 43.6827 40.5788 43.1203 41.1331C42.5579 41.6873 41.7954 41.9991 41 42H33.5C32.7046 41.9991 31.9421 41.6873 31.3797 41.1331C30.8173 40.5788 30.5009 39.8273 30.5 39.0435V36.8261H28.25C26.6593 36.8243 25.1342 36.2008 24.0093 35.0923C22.8845 33.9837 22.2518 32.4807 22.25 30.913V26.4783H17V27.9565C16.9991 28.7404 16.6827 29.4919 16.1203 30.0461C15.5579 30.6004 14.7954 30.9122 14 30.913H8C7.20462 30.9122 6.44208 30.6004 5.87967 30.0461C5.31725 29.4919 5.00089 28.7404 5 27.9565V22.0435C5.00089 21.2596 5.31725 20.5081 5.87967 19.9539C6.44208 19.3996 7.20462 19.0878 8 19.087H14C14.7954 19.0878 15.5579 19.3996 16.1203 19.9539C16.6827 20.5081 16.9991 21.2596 17 22.0435V23.5217H22.25V19.087C22.2518 17.5193 22.8845 16.0163 24.0093 14.9077C25.1342 13.7992 26.6593 13.1757 28.25 13.1739H30.5V10.9565C30.5009 10.1727 30.8173 9.42118 31.3797 8.86692C31.9421 8.31265 32.7046 8.00088 33.5 8H41C41.7954 8.00088 42.5579 8.31265 43.1203 8.86692C43.6827 9.42118 43.9991 10.1727 44 10.9565V18.3478C43.9991 19.1317 43.6827 19.8832 43.1203 20.4374C42.5579 20.9917 41.7954 21.3035 41 21.3043H33.5C32.7046 21.3035 31.9421 20.9917 31.3797 20.4374C30.8173 19.8832 30.5009 19.1317 30.5 18.3478Z" fill="black"/>
</svg>
