<svg width="50" height="50" viewBox="0 0 50 50" fill="none" xmlns="http://www.w3.org/2000/svg">
<path d="M33.1481 22H42.037C42.8226 21.9991 43.5757 21.6827 44.1312 21.1203C44.6867 20.5579 44.9991 19.7954 45 19V10C44.9991 9.20462 44.6867 8.44208 44.1312 7.87967C43.5757 7.31725 42.8226 7.00089 42.037 7H33.1481C32.3626 7.00089 31.6095 7.31725 31.054 7.87967C30.4985 8.44208 30.1861 9.20462 30.1852 10V13H28.7037C27.1326 13.0018 25.6263 13.6345 24.5154 14.7593C23.4044 15.8842 22.7795 17.4092 22.7778 19V23.5H18.3333V21.25C18.3325 20.4546 18.02 19.6921 17.4645 19.1297C16.9091 18.5673 16.1559 18.2509 15.3704 18.25H7.96296C7.17741 18.2509 6.42428 18.5673 5.86881 19.1297C5.31333 19.6921 5.00088 20.4546 5 21.25V28.75C5.00088 29.5454 5.31333 30.3079 5.86881 30.8703C6.42428 31.4327 7.17741 31.7491 7.96296 31.75H15.3704C16.1559 31.7491 16.9091 31.4327 17.4645 30.8703C18.02 30.3079 18.3325 29.5454 18.3333 28.75V26.5H22.7778V31C22.7795 32.5907 23.4044 34.1158 24.5154 35.2407C25.6263 36.3655 27.1326 36.9982 28.7037 37H30.1852V40C30.1861 40.7954 30.4985 41.5579 31.054 42.1203C31.6095 42.6827 32.3626 42.9991 33.1481 43H42.037C42.8226 42.9991 43.5757 42.6827 44.1312 42.1203C44.6867 41.5579 44.9991 40.7954 45 40V31C44.9991 30.2046 44.6867 29.4421 44.1312 28.8797C43.5757 28.3173 42.8226 28.0009 42.037 28H33.1481C32.3626 28.0009 31.6095 28.3173 31.054 28.8797C30.4985 29.4421 30.1861 30.2046 30.1852 31V34H28.7037C27.9181 33.9991 27.165 33.6827 26.6095 33.1203C26.0541 32.5579 25.7416 31.7954 25.7407 31V19C25.7416 18.2046 26.0541 17.4421 26.6095 16.8797C27.165 16.3173 27.9181 16.0009 28.7037 16H30.1852V19C30.1861 19.7954 30.4985 20.5579 31.054 21.1203C31.6095 21.6827 32.3626 21.9991 33.1481 22ZM15.3704 28.75H7.96296V21.25H15.3704L15.3713 24.982C15.3713 24.988 15.3704 24.994 15.3704 25C15.3704 25.0062 15.3713 25.012 15.3713 25.0182L15.3722 28.75H15.3704ZM33.1481 31H42.037L42.0389 40H33.1481V31ZM33.1481 10H42.037L42.0389 19H33.1481V10Z" fill="black"/>
</svg>
