<svg width="50" height="50" viewBox="0 0 50 50" fill="none" xmlns="http://www.w3.org/2000/svg">
<path d="M33 13H17C13.8174 13 10.7652 14.2643 8.51472 16.5147C6.26428 18.7652 5 21.8174 5 25C5 28.1826 6.26428 31.2348 8.51472 33.4853C10.7652 35.7357 13.8174 37 17 37H33C36.1826 37 39.2348 35.7357 41.4853 33.4853C43.7357 31.2348 45 28.1826 45 25C45 21.8174 43.7357 18.7652 41.4853 16.5147C39.2348 14.2643 36.1826 13 33 13ZM33 34.3333H17C14.5246 34.3333 12.1507 33.35 10.4003 31.5997C8.65 29.8493 7.66667 27.4754 7.66667 25C7.66667 22.5246 8.65 20.1507 10.4003 18.4003C12.1507 16.65 14.5246 15.6667 17 15.6667H33C35.4754 15.6667 37.8493 16.65 39.5997 18.4003C41.35 20.1507 42.3333 22.5246 42.3333 25C42.3333 27.4754 41.35 29.8493 39.5997 31.5997C37.8493 33.35 35.4754 34.3333 33 34.3333ZM17 18.3333C15.6815 18.3333 14.3925 18.7243 13.2962 19.4569C12.1999 20.1894 11.3454 21.2306 10.8408 22.4488C10.3362 23.667 10.2042 25.0074 10.4614 26.3006C10.7187 27.5938 11.3536 28.7817 12.286 29.714C13.2183 30.6464 14.4062 31.2813 15.6994 31.5386C16.9926 31.7958 18.333 31.6638 19.5512 31.1592C20.7694 30.6546 21.8106 29.8001 22.5431 28.7038C23.2757 27.6075 23.6667 26.3185 23.6667 25C23.6646 23.2325 22.9616 21.538 21.7118 20.2882C20.462 19.0384 18.7675 18.3354 17 18.3333ZM17 29C16.2089 29 15.4355 28.7654 14.7777 28.3259C14.1199 27.8864 13.6072 27.2616 13.3045 26.5307C13.0017 25.7998 12.9225 24.9956 13.0769 24.2196C13.2312 23.4437 13.6122 22.731 14.1716 22.1716C14.731 21.6122 15.4437 21.2312 16.2196 21.0769C16.9956 20.9225 17.7998 21.0017 18.5307 21.3045C19.2616 21.6072 19.8864 22.1199 20.3259 22.7777C20.7654 23.4355 21 24.2089 21 25C20.9988 26.0605 20.577 27.0772 19.8271 27.8271C19.0772 28.577 18.0605 28.9988 17 29Z" fill="black"/>
</svg>
