<svg width="50" height="50" viewBox="0 0 50 50" fill="none" xmlns="http://www.w3.org/2000/svg">
<path d="M33 13H17C13.8174 13 10.7652 14.2643 8.51472 16.5147C6.26428 18.7652 5 21.8174 5 25C5 28.1826 6.26428 31.2348 8.51472 33.4853C10.7652 35.7357 13.8174 37 17 37H33C36.1826 37 39.2348 35.7357 41.4853 33.4853C43.7357 31.2348 45 28.1826 45 25C45 21.8174 43.7357 18.7652 41.4853 16.5147C39.2348 14.2643 36.1826 13 33 13ZM33 31.6667C31.6815 31.6667 30.3925 31.2757 29.2962 30.5431C28.1999 29.8106 27.3454 28.7694 26.8408 27.5512C26.3362 26.333 26.2042 24.9926 26.4614 23.6994C26.7187 22.4062 27.3536 21.2183 28.286 20.286C29.2183 19.3536 30.4062 18.7187 31.6994 18.4614C32.9926 18.2042 34.333 18.3362 35.5512 18.8408C36.7694 19.3454 37.8106 20.1999 38.5431 21.2962C39.2757 22.3925 39.6667 23.6815 39.6667 25C39.6667 26.7681 38.9643 28.4638 37.714 29.714C36.4638 30.9643 34.7681 31.6667 33 31.6667Z" fill="black"/>
</svg>
