<svg width="50" height="50" viewBox="0 0 50 50" fill="none" xmlns="http://www.w3.org/2000/svg">
<path d="M45 8.33333V41.6667C44.999 42.5504 44.6475 43.3977 44.0226 44.0226C43.3977 44.6475 42.5504 44.999 41.6667 45H8.33333C7.44958 44.999 6.60231 44.6475 5.97741 44.0226C5.3525 43.3977 5.00099 42.5504 5 41.6667V8.33333C5.00099 7.44958 5.3525 6.60231 5.97741 5.97741C6.60231 5.3525 7.44958 5.00099 8.33333 5H41.6667C42.5504 5.00099 43.3977 5.3525 44.0226 5.97741C44.6475 6.60231 44.999 7.44958 45 8.33333ZM41.6687 41.6667L41.6667 8.33333H8.33333V41.6667H41.6667H41.6687Z" fill="black"/>
</svg>
