<svg width="50" height="50" viewBox="0 0 50 50" fill="none" xmlns="http://www.w3.org/2000/svg">
<path d="M41.8259 39.0792C39.4093 34.9661 35.5393 31.8811 30.9601 30.4175C33.1538 29.1275 34.8584 27.1616 35.812 24.8215C36.7656 22.4814 36.9155 19.8967 36.2386 17.4643C35.5617 15.0319 34.0955 12.8864 32.0652 11.3573C30.0349 9.82816 27.5527 9 25 9C22.4473 9 19.9651 9.82816 17.9348 11.3573C15.9045 12.8864 14.4383 15.0319 13.7614 17.4643C13.0845 19.8967 13.2344 22.4814 14.188 24.8215C15.1416 27.1616 16.8461 29.1275 19.0399 30.4175C14.4607 31.881 10.5907 34.9659 8.17411 39.0789C8.08893 39.2243 8.03359 39.385 8.01123 39.5516C7.98888 39.7182 7.99996 39.8876 8.04383 40.05C8.0877 40.2124 8.16351 40.3646 8.26693 40.4981C8.37035 40.6315 8.49935 40.7435 8.64657 40.8277C8.79379 40.9119 8.95635 40.9666 9.12495 40.9886C9.29356 41.0107 9.46492 40.9998 9.62925 40.9564C9.79358 40.9131 9.94766 40.8382 10.0827 40.736C10.2177 40.6338 10.3311 40.5063 10.4162 40.3608C11.8947 37.8315 14.0207 35.7312 16.5807 34.2711C19.1407 32.8109 22.0444 32.0422 25.0002 32.0422C27.9559 32.0422 30.8597 32.811 33.4196 34.2712C35.9795 35.7315 38.1055 37.8318 39.5839 40.3611C39.6691 40.5066 39.7824 40.6341 39.9175 40.7362C40.0525 40.8384 40.2066 40.9133 40.3709 40.9567C40.5352 41 40.7065 41.011 40.8751 40.9889C41.0437 40.9668 41.2063 40.9121 41.3535 40.8279C41.5007 40.7438 41.6297 40.6318 41.7331 40.4983C41.8365 40.3649 41.9123 40.2126 41.9562 40.0502C42 39.8878 42.0111 39.7185 41.9888 39.5519C41.9664 39.3853 41.9111 39.2247 41.8259 39.0792ZM15.9343 20.5236C15.9343 18.7517 16.466 17.0196 17.4621 15.5463C18.4583 14.073 19.8741 12.9247 21.5306 12.2467C23.1872 11.5686 25.01 11.3912 26.7685 11.7368C28.5271 12.0825 30.1424 12.9358 31.4103 14.1887C32.6781 15.4416 33.5415 17.038 33.8913 18.7758C34.2411 20.5137 34.0616 22.315 33.3755 23.9521C32.6893 25.5891 31.5273 26.9883 30.0365 27.9727C28.5457 28.9571 26.7929 29.4826 24.9999 29.4826C22.5964 29.4799 20.2921 28.5351 18.5926 26.8556C16.893 25.176 15.937 22.8989 15.9343 20.5236Z" fill="black"/>
</svg>
