<svg width="50" height="50" viewBox="0 0 50 50" fill="none" xmlns="http://www.w3.org/2000/svg">
<path d="M25 5C21.0444 5 17.1776 6.17298 13.8886 8.37061C10.5996 10.5682 8.03617 13.6918 6.52242 17.3463C5.00867 21.0008 4.6126 25.0222 5.3843 28.9018C6.15601 32.7814 8.06082 36.3451 10.8579 39.1421C13.6549 41.9392 17.2186 43.844 21.0982 44.6157C24.9778 45.3874 28.9991 44.9913 32.6537 43.4776C36.3082 41.9638 39.4318 39.4004 41.6294 36.1114C43.827 32.8224 45 28.9556 45 25C44.994 19.6975 42.8849 14.6139 39.1355 10.8645C35.3861 7.11507 30.3025 5.00601 25 5ZM25 41.9231C21.6529 41.9231 18.381 40.9305 15.598 39.071C12.8151 37.2115 10.646 34.5685 9.36512 31.4762C8.08426 28.3839 7.74912 24.9812 8.4021 21.6985C9.05508 18.4157 10.6669 15.4003 13.0336 13.0336C15.4003 10.6668 18.4157 9.05508 21.6985 8.40209C24.9812 7.74911 28.3839 8.08425 31.4762 9.36511C34.5685 10.646 37.2115 12.8151 39.071 15.598C40.9306 18.381 41.9231 21.6529 41.9231 25C41.918 29.4867 40.1334 33.7882 36.9608 36.9608C33.7882 40.1334 29.4867 41.918 25 41.9231ZM32.2419 30.066C32.5305 30.3545 32.6925 30.7459 32.6925 31.1539C32.6925 31.562 32.5304 31.9533 32.2418 32.2418C31.9533 32.5303 31.5619 32.6924 31.1539 32.6924C30.7458 32.6924 30.3545 32.5303 30.066 32.2417L25 27.1758L19.9342 32.2417C19.6457 32.5303 19.2544 32.6924 18.8463 32.6924C18.4383 32.6924 18.0469 32.5303 17.7584 32.2418C17.4698 31.9533 17.3077 31.562 17.3077 31.1539C17.3077 30.7459 17.4698 30.3545 17.7583 30.066L22.8244 25L17.7583 19.934C17.6154 19.7912 17.5021 19.6215 17.4248 19.4349C17.3475 19.2482 17.3077 19.0481 17.3077 18.8461C17.3077 18.438 17.4698 18.0467 17.7584 17.7582C18.0469 17.4696 18.4383 17.3076 18.8463 17.3076C19.0484 17.3076 19.2484 17.3474 19.4351 17.4247C19.6218 17.5021 19.7914 17.6154 19.9342 17.7583L25 22.8242L30.0658 17.7583C30.3543 17.4697 30.7456 17.3076 31.1537 17.3076C31.5617 17.3076 31.9531 17.4696 32.2416 17.7582C32.5302 18.0467 32.6923 18.438 32.6923 18.8461C32.6923 19.2541 32.5303 19.6455 32.2417 19.934L27.1758 25L32.2419 30.066Z" fill="black"/>
</svg>
