<svg width="50" height="50" viewBox="0 0 50 50" fill="none" xmlns="http://www.w3.org/2000/svg">
<path d="M25 5C21.0444 5 17.1776 6.17298 13.8886 8.37061C10.5996 10.5682 8.03617 13.6918 6.52242 17.3463C5.00867 21.0008 4.6126 25.0222 5.3843 28.9018C6.15601 32.7814 8.06082 36.3451 10.8579 39.1421C13.6549 41.9392 17.2186 43.844 21.0982 44.6157C24.9778 45.3874 28.9991 44.9913 32.6537 43.4776C36.3082 41.9638 39.4318 39.4004 41.6294 36.1114C43.827 32.8224 45 28.9556 45 25C44.9939 19.6975 42.8848 14.614 39.1354 10.8646C35.386 7.11521 30.3025 5.00611 25 5ZM32.2415 30.0661C32.3885 30.2081 32.5057 30.3778 32.5863 30.5655C32.6669 30.7532 32.7094 30.9551 32.7112 31.1594C32.7129 31.3637 32.674 31.5662 32.5967 31.7553C32.5193 31.9444 32.4051 32.1162 32.2606 32.2606C32.1162 32.4051 31.9444 32.5193 31.7553 32.5966C31.5662 32.674 31.3637 32.7129 31.1594 32.7111C30.9551 32.7094 30.7532 32.6669 30.5655 32.5863C30.3778 32.5057 30.2081 32.3885 30.0662 32.2415L25 27.1754L19.9339 32.2415C19.6437 32.5218 19.2551 32.6768 18.8517 32.6733C18.4483 32.6698 18.0625 32.508 17.7772 32.2228C17.492 31.9375 17.3302 31.5517 17.3267 31.1483C17.3232 30.7449 17.4782 30.3563 17.7585 30.0661L22.8246 25L17.7585 19.9338C17.4782 19.6437 17.3232 19.2551 17.3267 18.8517C17.3302 18.4483 17.492 18.0624 17.7772 17.7772C18.0625 17.492 18.4483 17.3302 18.8517 17.3267C19.2551 17.3231 19.6437 17.4782 19.9339 17.7585L25 22.8246L30.0662 17.7585C30.3563 17.4782 30.7449 17.3231 31.1483 17.3267C31.5517 17.3302 31.9376 17.492 32.2228 17.7772C32.508 18.0624 32.6698 18.4483 32.6733 18.8517C32.6769 19.2551 32.5218 19.6437 32.2415 19.9338L27.1754 25L32.2415 30.0661Z" fill="black"/>
</svg>
