<svg width="50" height="50" viewBox="0 0 50 50" fill="none" xmlns="http://www.w3.org/2000/svg">
<path d="M36.6485 34.9514C36.8736 35.1765 37 35.4817 37 35.8C37 36.1182 36.8736 36.4235 36.6485 36.6485C36.4235 36.8736 36.1182 37 35.8 37C35.4817 37 35.1765 36.8736 34.9514 36.6485L25 26.6969L15.0486 36.6485C14.8235 36.8736 14.5183 37 14.2 37C13.8818 37 13.5765 36.8736 13.3515 36.6485C13.1264 36.4235 13 36.1182 13 35.8C13 35.4817 13.1264 35.1765 13.3515 34.9514L23.3031 25L13.3515 15.0486C13.1264 14.8235 13 14.5183 13 14.2C13 13.8818 13.1264 13.5765 13.3515 13.3515C13.5765 13.1264 13.8818 13 14.2 13C14.5183 13 14.8235 13.1264 15.0486 13.3515L25 23.3031L34.9514 13.3515C35.1765 13.1264 35.4817 13 35.8 13C36.1182 13 36.4235 13.1264 36.6485 13.3515C36.8736 13.5765 37 13.8818 37 14.2C37 14.5183 36.8736 14.8235 36.6485 15.0486L26.6969 25L36.6485 34.9514Z" fill="black"/>
</svg>
